<svg width="294" height="350" viewBox="0 0 294 350" fill="none" xmlns="http://www.w3.org/2000/svg">
<mask id="mask0_3_31" style="mask-type:luminance" maskUnits="userSpaceOnUse" x="0" y="0" width="294" height="350">
<path d="M293.207 0.666656H0.333496V349.556H293.207V0.666656Z" fill="white"/>
</mask>
<g mask="url(#mask0_3_31)">
<path d="M180.852 97.5145C174.649 97.5145 166.816 95.3071 159.366 91.4681C152.523 87.9491 146.672 83.4383 142.931 78.7675C139.063 73.9688 137.88 69.522 139.542 66.2589C141.045 63.3157 144.786 61.7161 150.062 61.7161C156.264 61.7161 164.098 63.9235 171.548 67.7625C178.39 71.2815 184.241 75.7923 187.982 80.4631C191.851 85.2618 193.034 89.7086 191.371 92.9717C189.901 95.8829 186.16 97.5145 180.852 97.5145Z" fill="#ED4F30"/>
<path d="M119.462 258.143C115.466 258.143 111.469 257.887 107.504 257.375C102.101 256.704 96.761 255.488 91.5813 253.76C79.2715 249.569 67.9848 242.819 58.073 233.766C58.009 233.702 57.9451 233.67 57.8811 233.606C57.5934 233.382 57.2097 233.062 57.0818 232.518C57.0178 232.326 57.0498 232.134 57.1777 232.006C57.2736 231.846 57.4335 231.75 57.6253 231.718C57.977 231.686 58.3287 231.654 58.6805 231.654C60.1512 231.654 61.622 232.038 62.933 232.742C63.5724 233.062 64.2758 233.318 65.0112 233.51C66.4501 233.926 67.8889 234.278 69.2318 234.597C72.1414 235.301 75.1149 235.845 78.0885 236.197C78.5361 236.261 78.9837 236.293 79.4313 236.325C80.2946 236.389 81.2219 236.485 82.1171 236.645C83.3002 236.837 84.5152 236.933 85.7301 236.933H85.9859C88.4159 236.965 90.8779 236.965 93.2759 236.997H94.4589C94.6188 237.029 94.8107 237.029 94.9705 237.029C95.2263 237.029 95.4821 236.997 95.7379 236.965C96.761 236.677 97.8162 236.645 98.8074 236.613C99.7026 236.581 100.534 236.549 101.333 236.389C102.292 236.165 103.316 236.069 104.275 235.941C105.202 235.845 106.161 235.717 107.089 235.525L107.664 235.397C110.03 234.885 112.46 234.374 114.826 233.702C119.974 232.294 125.058 230.407 129.886 228.135C130.749 227.719 131.644 227.239 132.476 226.792L133.531 226.216L134.074 225.928C135.257 225.288 136.472 224.616 137.623 223.912C140.277 222.281 142.867 220.521 145.329 218.634C147.919 216.65 150.125 214.795 152.075 213.003C153.802 211.436 155.369 209.644 156.871 207.917C157.255 207.469 157.639 207.021 158.054 206.573C160.996 203.246 163.522 199.471 165.664 196.208C166.432 195.056 167.071 193.776 167.711 192.593C167.902 192.241 168.062 191.889 168.254 191.569L168.318 191.473C169.149 189.906 170.013 188.274 170.748 186.642C172.155 183.507 173.306 180.276 174.233 176.949C175.032 174.102 175.928 170.871 176.439 167.64C176.567 166.808 176.695 165.912 176.791 165.08C176.823 164.76 176.887 164.44 176.919 164.12C176.983 163.641 177.047 163.193 177.143 162.745C177.335 161.657 177.494 160.633 177.526 159.61C177.526 158.746 177.558 157.882 177.59 157.05C177.686 152.316 177.782 147.389 177.047 142.59C176.631 139.839 176.216 137.376 175.704 134.912C174.905 131.169 173.785 127.426 172.411 123.843C171.675 121.828 170.844 119.844 169.917 117.957C169.725 117.573 169.661 117.573 169.469 117.573H169.309C168.83 117.637 168.35 117.669 167.87 117.669C166.943 117.669 165.984 117.541 165.089 117.285C164.321 117.093 163.49 116.965 162.691 116.869C162.211 116.805 161.731 116.741 161.252 116.709C160.389 116.613 159.525 116.549 158.63 116.357C153.418 115.27 149.262 113.926 145.521 112.134C144.402 111.591 143.315 111.015 142.26 110.471C141.748 110.183 141.204 109.927 140.693 109.639C139.478 109.031 138.327 108.296 137.208 107.528C134.714 105.704 131.868 103.561 129.342 100.969C126.049 97.5784 123.843 94.4112 122.34 90.9562C121.125 88.1729 120.549 85.8056 120.453 83.5022C120.262 80.559 120.965 77.6158 122.436 75.0565C120.805 75.0565 119.207 75.0245 117.512 75.0245H116.137C115.562 75.0245 115.114 74.9605 114.698 74.8645C114.41 74.8005 114.219 74.5446 114.219 74.2567C114.219 73.9687 114.41 73.7128 114.666 73.6488C114.986 73.5529 115.338 73.4889 115.657 73.4569H115.721L116.809 73.4249C118.503 73.3929 120.23 73.3609 121.956 73.3609H122.5C126.177 73.4249 129.854 73.7128 133.499 74.2247C133.882 74.2887 134.362 74.3846 134.618 74.8005C134.874 75.2164 134.746 75.6963 134.586 76.0482C134.49 76.2721 134.362 76.5281 134.266 76.752C134.074 77.1359 133.882 77.5198 133.818 77.9037C133.467 80.1751 133.691 81.9986 134.522 83.6301C134.97 84.5259 135.449 85.3897 135.961 86.2534C138.103 89.5805 140.789 92.5237 143.922 94.9871C147.951 98.1862 152.331 101.001 156.935 103.337C162.691 106.216 168.03 107.976 173.242 108.743C174.809 108.967 176.184 109.095 177.494 109.095C179.093 109.095 180.532 108.935 181.907 108.583C184.848 107.848 186.543 106.44 187.246 104.137C187.342 103.849 187.566 103.145 188.334 103.081H188.397C188.493 103.081 188.589 103.113 188.685 103.145C189.197 103.401 189.549 103.817 189.804 104.169C189.868 104.265 189.932 104.361 190.028 104.425C203.329 119.62 211.355 139.103 212.601 159.29C213.017 166.168 212.697 173.142 211.642 179.956C211.227 182.611 210.587 185.267 209.98 187.826C209.788 188.594 209.596 189.362 209.436 190.129C209.308 190.641 209.18 191.121 209.052 191.537C207.646 196.24 205.823 200.879 203.713 205.325C198.341 216.554 190.891 226.44 181.523 234.629C164.289 249.825 142.291 258.143 119.462 258.143Z" fill="#ED4F30"/>
<path d="M94.9386 238.276C94.7468 238.276 94.523 238.276 94.3311 238.245H93.3399C90.91 238.245 88.416 238.213 85.954 238.181H85.6982C84.4193 238.181 83.1404 238.085 81.8614 237.893C81.0301 237.733 80.1348 237.669 79.3035 237.605C78.8559 237.573 78.3763 237.541 77.9287 237.477C74.8912 237.125 71.8537 236.581 68.9121 235.877C67.5692 235.557 66.1304 235.205 64.6596 234.789C63.8603 234.597 63.0929 234.31 62.3575 233.926C61.2384 233.318 59.9595 232.998 58.7125 232.998C58.3928 232.998 58.105 233.03 57.7853 233.062H57.7213C57.5934 233.062 57.4975 233.03 57.3696 232.966C57.2097 232.87 57.0179 232.742 56.858 232.582L56.8261 232.55C51.0708 227.08 46.019 220.905 41.7985 214.187C39.2406 210.156 37.0344 205.901 35.1799 201.518C33.1976 196.912 31.5669 192.081 30.288 187.218C30.0641 186.354 29.9043 185.491 29.7764 184.659C29.7124 184.211 29.6165 183.795 29.5206 183.347C28.7852 179.636 28.2736 175.861 28.0178 172.086C27.6341 166.584 27.762 160.985 28.3695 155.515C29.041 149.372 30.3199 143.262 32.2383 137.376C37.9297 119.94 48.0333 105.288 62.2616 93.8034C75.6266 83.0863 91.7093 76.2721 108.687 74.1607L109.391 74.0647C110.893 73.8727 112.428 73.6808 113.963 73.6808C114.219 73.6808 114.506 73.6808 114.762 73.7128C114.794 73.7128 114.858 73.7128 114.89 73.7448C115.178 73.8407 115.53 73.8727 115.977 73.8727H117.256C118.855 73.9047 120.933 73.9047 123.043 73.9047C123.235 73.9047 123.427 74.0007 123.555 74.1607C124.099 74.8325 123.651 75.4403 123.523 75.6323C123.491 75.6643 123.491 75.6963 123.459 75.7282C122.052 78.0956 121.413 80.8149 121.573 83.5981C121.669 85.7735 122.244 87.9809 123.363 90.6362C124.77 93.9313 126.912 96.9705 130.11 100.266C132.316 102.537 134.778 104.457 137.783 106.664C138.838 107.432 139.958 108.104 141.109 108.679C141.652 108.967 142.164 109.223 142.707 109.511C143.762 110.055 144.849 110.631 145.937 111.175C149.582 112.934 153.642 114.246 158.726 115.302C159.525 115.462 160.325 115.558 161.188 115.621C161.668 115.653 162.147 115.717 162.627 115.781C163.49 115.877 164.353 116.005 165.217 116.229C166.016 116.453 166.847 116.549 167.679 116.549C168.094 116.549 168.542 116.517 168.958 116.453C169.085 116.453 169.181 116.421 169.277 116.421C170.173 116.421 170.556 116.933 170.844 117.509C171.803 119.46 172.667 121.508 173.402 123.523C174.809 127.17 175.928 130.945 176.759 134.784C177.303 137.28 177.686 139.775 178.134 142.558C178.901 147.453 178.805 152.412 178.71 157.242C178.678 158.106 178.678 158.938 178.646 159.802C178.614 160.921 178.454 162.041 178.262 163.129C178.198 163.577 178.102 164.024 178.038 164.472C178.006 164.792 177.942 165.112 177.91 165.432C177.814 166.264 177.686 167.16 177.558 168.023C177.047 171.351 176.12 174.614 175.32 177.493C174.393 180.852 173.178 184.179 171.771 187.346C171.036 189.042 170.141 190.673 169.309 192.273L169.277 192.369C169.085 192.721 168.926 193.041 168.734 193.393C168.094 194.64 167.423 195.92 166.624 197.136C164.481 200.431 161.923 204.238 158.918 207.629C158.534 208.077 158.119 208.525 157.735 208.972C156.2 210.732 154.601 212.523 152.843 214.155C150.861 215.979 148.622 217.834 146.001 219.849C143.507 221.769 140.853 223.56 138.167 225.192C136.984 225.928 135.737 226.6 134.554 227.239L134.042 227.527L132.987 228.103C132.124 228.551 131.229 229.031 130.333 229.479C125.441 231.782 120.294 233.67 115.082 235.109C112.684 235.781 110.222 236.293 107.824 236.805L107.248 236.933C106.289 237.157 105.266 237.253 104.307 237.381C103.316 237.509 102.388 237.605 101.493 237.797C100.566 237.989 99.6388 238.021 98.7435 238.053C97.7523 238.085 96.8251 238.117 95.9298 238.34H95.8659C95.6101 238.244 95.2903 238.276 94.9386 238.276Z" fill="#FF7A61"/>
<path d="M121.477 330.955C120.901 330.955 120.55 330.636 120.23 330.412L120.166 330.348C120.07 330.284 120.006 330.188 119.974 330.06C119.079 327.564 118.184 325.005 116.425 322.894C116.201 322.638 116.233 322.254 116.489 322.03C116.649 321.87 116.809 321.71 116.937 321.55C117.033 321.422 117.129 321.326 117.256 321.23C123.044 315.312 128.511 308.881 133.339 303.219C133.755 302.739 134.266 302.195 135.098 302.195C135.322 302.195 135.577 302.227 135.833 302.323C136.313 302.451 136.792 302.515 137.272 302.515H137.304C138.199 302.579 139.126 302.643 140.054 302.643C141.812 302.643 143.603 302.515 145.329 302.227C152.395 300.98 157.799 298.196 161.892 293.718C161.956 293.43 162.115 293.174 162.339 292.982C162.435 292.694 162.627 292.438 162.947 292.342C163.043 292.31 163.139 292.278 163.234 292.278C163.362 292.278 163.458 292.31 163.554 292.374C164.13 292.758 164.354 293.494 164.066 294.101C163.394 295.829 162.435 297.429 161.188 298.836C159.014 301.235 156.296 303.123 153.291 304.307C151.596 305.01 149.678 305.778 147.663 306.13C146.257 306.418 144.754 306.642 143.283 306.738C142.228 306.802 141.173 306.93 140.15 307.154C139.446 307.282 139.35 307.506 139.318 307.698C139.286 307.922 139.19 308.274 139.19 308.402C139.254 308.466 139.446 308.562 139.542 308.626C141.588 309.841 143.795 310.449 146.097 310.449C147.312 310.449 148.591 310.289 149.87 309.937C150.573 309.745 151.276 309.521 151.98 309.329C152.3 309.233 152.651 309.137 152.971 309.041C153.035 309.009 153.099 309.009 153.163 309.009C153.227 309.009 153.259 309.009 153.323 309.041C153.419 309.073 153.515 309.073 153.578 309.073C153.898 309.073 154.218 308.977 154.57 308.849C154.761 308.785 154.953 308.721 155.145 308.689C155.913 308.498 156.68 308.402 157.479 308.402C158.982 308.402 160.485 308.753 162.115 309.457C163.746 310.193 165.217 311.345 166.688 313.072C167.711 314.32 168.382 315.824 168.702 317.391C168.798 317.743 168.734 318.127 168.51 318.415C168.286 318.735 167.935 318.927 167.487 318.991C165.409 319.279 163.298 319.567 161.252 319.95C158.119 320.558 154.761 321.294 150.989 322.19C147.216 323.118 142.26 324.333 137.304 325.741C134.202 326.605 131.389 327.532 128.735 328.524C127.488 329.004 126.209 329.42 124.962 329.836C124.003 330.156 122.98 330.476 122.02 330.828C121.861 330.923 121.669 330.955 121.477 330.955ZM90.7183 338.473C88.5761 338.473 86.4978 338.058 84.5154 337.674H84.4835C83.4283 337.386 82.4371 337.002 81.5099 336.458C80.9664 336.17 80.5827 335.658 80.4548 335.05V334.89C80.4548 334.603 80.4867 334.347 80.5507 334.059V334.027C81.3181 331.499 82.3092 329.004 83.4603 326.637C84.5474 324.429 85.9223 322.382 87.6169 320.558C90.3027 317.775 93.4361 316.111 96.9851 315.664C97.6246 315.568 98.2961 315.536 98.9355 315.536C101.27 315.536 103.668 316.048 106.194 317.135L106.577 317.295C107.984 317.903 109.455 318.511 110.574 319.759C110.67 319.854 110.734 320.014 110.734 320.142C110.894 322.926 110.286 325.677 108.815 328.556C107.313 331.499 104.947 333.867 101.781 335.562C99.0634 336.97 96.1858 337.898 93.1483 338.314C92.3809 338.409 91.5816 338.473 90.7183 338.473ZM54.4283 330.38C52.1262 330.38 49.92 329.772 48.0335 329.164C46.6906 328.748 46.5627 327.82 46.5947 327.244C46.5947 326.989 46.5627 326.733 46.5308 326.477V326.317C46.7226 324.141 47.5859 322.094 49.2805 319.822C51.5186 316.783 54.5242 314.576 58.4569 313.008C61.2067 311.921 64.1482 311.377 67.2177 311.377C68.6565 311.377 70.1912 311.505 71.694 311.729C73.5485 312.017 75.6907 312.464 77.3533 313.936C77.4173 314 77.4812 314.064 77.5132 314.128C77.8329 314.832 77.801 315.632 77.3853 316.271C77.0336 316.783 76.7139 317.295 76.3941 317.775L75.7227 318.831C73.6124 322.062 70.543 324.653 66.4184 326.797L66.2265 326.893C64.404 327.82 62.5495 328.78 60.4713 329.356C58.7127 329.868 56.8582 330.188 55.0038 330.316C54.8119 330.38 54.6201 330.38 54.4283 330.38ZM114.123 318.671C113.995 318.671 113.899 318.639 113.771 318.575L111.469 317.135C107.217 314.448 103.124 313.136 98.9675 313.136C98.5518 313.136 98.1362 313.136 97.7525 313.168H97.4967C96.9851 313.168 96.6334 312.88 96.4736 312.368C96.4096 312.145 96.4736 311.921 96.6015 311.761C96.7294 311.601 96.8892 311.441 97.0491 311.281C97.2729 311.025 97.5287 310.737 97.7525 310.481L99.1593 308.977C102.74 305.17 106.449 301.235 109.807 297.141C111.533 294.997 113.995 293.654 116.745 293.334H117.097C118.919 293.334 119.91 294.517 120.55 295.509C121.957 297.684 122.436 300.244 121.957 302.803C121.925 303.059 121.861 303.347 121.829 303.635C121.605 305.01 121.381 306.418 120.869 307.762C119.91 310.257 118.695 313.136 116.841 315.696C116.393 316.335 115.946 317.039 115.53 317.711L115.498 317.775C115.21 318.223 114.762 318.575 114.219 318.671H114.123Z" fill="#9AC5F0"/>
<path d="M78.1206 312.72H77.8329C77.641 312.688 77.4172 312.624 77.2254 312.528H77.1934C73.7402 310.993 70.2231 310.193 66.77 310.193C65.1713 310.193 63.5407 310.353 61.942 310.673L61.846 310.705C61.7181 310.737 61.5263 310.769 61.3345 310.769C61.0467 310.769 60.7909 310.673 60.5671 310.513C60.4392 310.385 60.3433 310.225 60.3113 310.033C60.2793 309.393 60.695 309.041 60.9188 308.817L61.0467 308.69L61.7182 308.018C62.0379 307.698 62.3576 307.378 62.6454 307.058L64.9475 304.435C68.6564 300.18 72.4613 295.765 76.2022 291.414C77.3852 289.943 79.0798 288.919 80.9343 288.503H81.1261C82.0854 288.631 82.7888 289.271 82.9806 290.326C83.0446 290.614 83.1085 290.87 83.1405 291.158C83.3323 291.99 83.5242 292.886 83.4922 293.814V294.101C83.4602 294.901 83.4282 295.669 83.684 296.405C83.8119 296.821 83.8119 297.269 83.684 297.684C83.4602 298.388 83.3963 299.156 83.4602 299.924V299.956C83.5242 302.291 83.0126 304.691 81.8935 307.314L81.4139 308.466C81.0302 309.393 80.6146 310.321 80.2309 311.249C79.9431 312.113 79.0798 312.72 78.1206 312.72Z" fill="#9AC5F0"/>
<path d="M169.214 105.704C169.15 105.704 169.086 105.704 169.022 105.672C168.958 105.672 168.894 105.64 168.798 105.608C168.51 105.512 168.191 105.416 167.903 105.352C167.104 105.128 166.304 104.872 165.505 104.585L163.299 103.721C162.467 103.369 161.636 103.017 160.773 102.729C158.918 102.089 157.192 101.193 155.529 100.298C154.954 100.01 154.41 99.6899 153.834 99.4339C152.843 98.9541 152.843 98.3782 153.163 97.4825C153.451 96.6507 153.771 95.8189 154.058 94.9871C154.442 93.9634 154.794 92.9397 155.145 91.916C155.337 91.3721 155.529 90.8283 155.689 90.3164C155.817 89.9645 155.945 89.5806 156.073 89.2287C156.073 89.1967 156.073 89.1967 156.105 89.1647C156.201 88.9728 156.296 88.8128 156.424 88.6529C156.52 88.5249 156.68 88.4289 156.84 88.4289H157.032C157.543 88.4289 157.863 88.6529 158.119 88.8128C158.183 88.8448 158.215 88.8768 158.279 88.9088C162.627 91.4681 167.231 93.5155 172.059 94.9871C172.123 95.0191 172.155 95.0191 172.219 95.0191L172.603 95.1151C172.891 95.2111 173.115 95.371 173.242 95.627C173.402 95.8829 173.434 96.2028 173.37 96.4907C173.37 96.5547 173.338 96.5867 173.306 96.6507C172.987 97.5145 172.635 98.3782 172.315 99.21C171.612 101.034 170.876 102.889 170.301 104.777C170.237 105.32 169.757 105.704 169.214 105.704ZM142.452 90.9882C142.388 90.9882 142.324 90.9882 142.292 90.9562C141.748 90.7963 141.397 90.4764 141.109 90.1884C140.981 90.0605 140.885 89.9645 140.789 89.9005C139.958 89.2927 139.734 88.4929 140.118 87.4372C140.885 85.4537 141.653 83.4063 142.388 81.4548C142.676 80.655 142.963 79.8872 143.283 79.0874C143.411 78.6396 143.827 78.3516 144.274 78.3516H144.338C144.498 78.3516 144.626 78.4156 144.754 78.5436L145.202 78.9915C145.521 79.3114 145.873 79.6633 146.225 79.9512C146.96 80.559 147.152 81.3268 146.736 82.2546C145.937 84.1421 145.138 86.0296 144.338 87.8851L143.379 90.1564C143.379 90.1884 143.347 90.2204 143.347 90.2204C143.219 90.4124 143.091 90.6043 142.899 90.7643C142.772 90.9242 142.612 90.9882 142.452 90.9882Z" fill="#ED4F30"/>
<path d="M121.669 338.666C121.509 338.666 121.349 338.634 121.221 338.57C121.125 338.538 121.029 338.474 120.933 338.378C120.678 338.058 120.582 337.642 120.646 337.258C120.742 335.722 120.55 334.251 120.358 332.683L120.294 332.075C120.262 331.851 120.198 331.627 120.134 331.403C120.006 330.924 119.878 330.412 119.974 329.804C120.006 329.58 120.166 329.388 120.39 329.292C120.454 329.26 120.55 329.26 120.614 329.26C120.774 329.26 120.902 329.324 121.029 329.42L121.093 329.484C121.317 329.676 121.413 329.74 121.509 329.74C121.541 329.74 121.605 329.74 121.669 329.708C122.66 329.356 123.683 329.004 124.674 328.684C125.889 328.268 127.168 327.852 128.383 327.405C131.101 326.381 133.947 325.453 137.08 324.589C142.036 323.182 147.024 321.934 150.829 321.038C154.634 320.111 158.023 319.375 161.156 318.799C163.235 318.415 165.313 318.127 167.455 317.839C167.551 317.839 167.583 317.807 167.583 317.807V317.775C167.295 316.4 166.688 315.088 165.824 314C164.45 312.401 163.203 311.377 161.7 310.737C160.229 310.097 158.886 309.777 157.575 309.777C156.904 309.777 156.232 309.873 155.561 310.033C155.401 310.065 155.241 310.129 155.081 310.193C154.666 310.321 154.218 310.481 153.706 310.481C153.515 310.481 153.323 310.449 153.131 310.417C152.907 310.353 152.747 310.225 152.683 310.001C152.619 309.809 152.651 309.553 152.779 309.393C153.131 308.978 153.579 308.818 153.93 308.69C154.058 308.658 154.186 308.594 154.282 308.562L154.57 308.434C157.703 307.026 159.877 305.522 161.54 303.603L161.476 303.635C158.598 305.906 155.145 307.506 150.605 308.626C148.783 309.073 147.12 309.297 145.489 309.297C143.731 309.297 142.004 309.041 140.373 308.498C140.086 308.402 139.798 308.338 139.51 308.274C139.446 308.274 139.35 308.242 139.286 308.242C139.158 308.242 139.063 308.242 138.935 308.274C138.871 308.274 138.839 308.306 138.775 308.306C138.615 308.306 138.455 308.242 138.327 308.146C138.167 307.986 138.103 307.794 138.135 307.57C138.231 306.994 138.647 306.226 139.958 306.002C141.013 305.778 142.132 305.618 143.251 305.586C144.658 305.49 146.065 305.299 147.44 305.011C149.294 304.691 151.053 303.987 152.779 303.283L152.843 303.251C155.657 302.131 158.215 300.34 160.261 298.1C161.38 296.821 162.275 295.349 162.883 293.75V293.718C162.915 293.654 162.883 293.59 162.851 293.558C162.691 293.462 162.563 293.27 162.563 293.046C162.531 292.63 162.723 292.342 162.851 292.118C162.883 292.054 162.915 292.022 162.947 291.958C163.426 290.934 163.906 289.879 164.354 288.855C164.514 288.439 164.514 287.991 164.354 287.607C164.322 287.575 164.29 287.543 164.258 287.543H164.226C164.226 287.543 164.194 287.543 164.194 287.575C164.098 287.671 164.002 287.831 163.906 287.991C163.714 288.343 163.458 288.791 162.947 289.047C162.851 289.079 162.755 289.111 162.659 289.111C162.435 289.111 162.211 288.983 162.116 288.791C161.124 287.031 160.165 284.088 160.165 282.745C160.165 282.425 160.421 282.137 160.741 282.105C160.869 282.105 160.964 282.073 161.092 282.073C161.22 282.073 161.316 282.073 161.444 282.105C161.476 282.105 161.508 282.105 161.54 282.137C164.833 283.032 167.583 285.752 168.766 289.207C169.821 292.342 169.374 295.541 167.487 298.004C167.455 298.068 167.423 298.1 167.359 298.164C167.295 298.228 167.231 298.324 167.199 298.388C167.199 298.42 167.167 298.42 167.167 298.452C167.103 298.516 167.103 298.612 167.135 298.708H167.231C167.295 298.708 167.391 298.708 167.551 298.644C167.711 298.58 167.871 298.516 168.031 298.42C168.127 298.388 168.222 298.324 168.286 298.292C168.382 298.26 168.478 298.228 168.542 298.228C168.766 298.228 168.99 298.356 169.086 298.548C169.406 299.092 169.597 299.668 169.725 300.276C170.748 304.531 172.027 308.754 173.53 312.88C173.914 313.904 174.329 314.928 174.745 315.952C174.937 316.431 175.129 316.911 175.321 317.359L175.353 317.455C175.64 318.159 175.928 318.927 175.736 319.823C175.257 321.742 174.266 323.15 172.827 323.949C171.644 324.653 170.365 325.197 169.022 325.581C167.071 326.093 165.121 326.637 163.203 327.181C160.613 327.884 157.959 328.62 155.305 329.324C142.58 332.651 132.156 335.594 122.564 338.57C122.5 338.602 122.468 338.602 122.404 338.634C122.18 338.602 121.957 338.666 121.669 338.666ZM66.898 335.914C63.7966 335.914 60.6952 335.594 57.6577 334.986C54.1406 334.251 51.3589 333.323 48.8969 332.043C48.0656 331.659 47.2982 331.052 46.7227 330.348C46.7227 330.348 46.6587 330.252 46.6268 330.22C46.4669 329.996 46.2111 329.708 46.2431 329.324V328.588C46.2111 327.82 46.1791 326.957 46.6268 326.093C46.7547 325.901 46.9465 325.773 47.2023 325.773H47.2982C47.554 325.805 47.7778 326.029 47.8098 326.285C47.8737 326.605 47.9057 326.925 47.9057 327.277V327.341C47.8737 327.596 47.9057 327.82 48.4493 327.948C50.3357 328.524 52.35 329.1 54.4283 329.1H55.0038C56.7624 329.004 58.5209 328.684 60.1836 328.204C62.1979 327.66 64.0844 326.669 65.8749 325.741C69.8076 323.694 72.7172 321.23 74.6996 318.191C74.9554 317.775 75.2432 317.359 75.4989 316.943C75.7867 316.495 76.0745 316.048 76.3622 315.632C76.5221 315.376 76.5541 315.024 76.4262 314.736C76.2983 314.48 76.3622 314.192 76.5541 314C76.682 313.872 76.8418 313.84 77.0017 313.84C77.0976 313.84 77.2255 313.872 77.3214 313.904C79.7514 315.216 81.7978 317.167 83.2046 319.535C83.3645 319.823 83.5243 320.142 83.6202 320.43C84.0998 321.518 84.0039 322.734 83.3645 323.726C81.9576 326.061 80.8705 328.62 80.1991 331.276C79.9113 332.459 79.08 333.451 77.9609 333.931C77.5772 334.123 77.1616 334.283 76.7779 334.443L76.618 334.507C74.4118 335.402 72.1417 335.658 70.1913 335.786C69.0722 335.85 67.9851 335.914 66.898 335.914ZM103.732 342.984C99.703 342.984 95.6743 342.568 91.7415 341.769C87.585 340.937 84.5155 339.881 81.7658 338.41C81.542 338.282 81.3501 338.186 81.1902 338.09C80.4549 337.706 79.9113 337.45 79.8154 336.81C79.7514 336.298 79.9753 335.786 80.4868 334.635C80.5828 334.411 80.8066 334.251 81.0624 334.251H81.1263C81.4141 334.283 81.6379 334.475 81.6698 334.763C81.7018 334.987 81.8617 335.178 82.0535 335.274C82.0535 335.274 82.0855 335.274 82.0855 335.306C82.9168 335.786 83.8121 336.17 84.7713 336.394C86.6577 336.778 88.6721 337.162 90.6864 337.162C91.4858 337.162 92.2212 337.098 92.9565 337.002C95.8342 336.586 98.5839 335.722 101.174 334.379C104.147 332.779 106.258 330.668 107.664 327.948C109.007 325.261 109.583 322.734 109.423 320.206C109.423 319.951 109.519 319.727 109.743 319.599C109.839 319.535 109.967 319.503 110.062 319.503C110.19 319.503 110.318 319.535 110.414 319.599C112.588 321.07 114.411 323.054 115.69 325.357C118.088 329.516 118.887 334.059 119.495 338.378C119.591 339.081 119.239 339.753 118.599 340.073C117.512 340.713 116.361 341.193 115.146 341.545C112.397 342.313 109.583 342.76 106.737 342.888C105.778 342.952 104.755 342.984 103.732 342.984ZM80.263 314.16C80.1351 314.16 80.0392 314.128 79.9113 314.064L77.6092 312.593C77.3534 312.433 77.2575 312.113 77.3534 311.857C77.4493 311.601 77.6732 311.441 77.9609 311.441H78.1208C78.5364 311.441 78.8881 311.185 79.016 310.769C79.016 310.769 79.016 310.737 79.048 310.737C79.4317 309.809 79.8474 308.882 80.231 307.954L80.7426 306.802C81.7977 304.275 82.2774 302.131 82.2134 299.988C82.1495 299.092 82.2454 298.164 82.5012 297.301C82.5651 297.141 82.5651 296.949 82.5012 296.789C82.1814 295.861 82.2134 294.933 82.2454 294.038V293.75C82.2774 292.982 82.1175 292.214 81.9256 291.414L81.7338 290.55C81.6059 289.911 81.2862 289.783 80.9984 289.751C80.7426 289.719 80.5188 289.559 80.4549 289.303C80.3909 289.047 80.4549 288.791 80.6467 288.631L80.6787 288.599C80.7746 288.503 80.9025 288.343 81.1583 288.279C82.9168 287.703 84.7713 287.383 86.6577 287.383C87.8088 287.383 88.9598 287.511 90.1109 287.735C91.2939 287.991 92.445 288.375 93.5321 288.951C95.8022 290.071 97.5607 291.99 98.488 294.325C98.8077 295.029 98.6159 295.861 98.0084 296.309C95.8981 298.388 93.7879 300.5 92.0293 302.259C89.1517 305.171 86.2421 308.114 83.3964 311.025C82.7889 311.665 82.1814 312.305 81.5739 313.008L80.7106 313.968C80.6147 314.096 80.4229 314.16 80.263 314.16ZM115.402 319.599C115.338 319.599 115.242 319.599 115.178 319.567C114.571 319.343 114.027 318.959 113.612 318.447C113.484 318.287 113.452 318.031 113.516 317.839C113.58 317.647 113.771 317.487 113.995 317.423C114.187 317.391 114.315 317.295 114.411 317.135L114.507 316.975C114.922 316.304 115.338 315.632 115.818 314.992C117.576 312.529 118.759 309.745 119.687 307.346C120.166 306.098 120.358 304.819 120.582 303.475C120.614 303.187 120.678 302.899 120.71 302.611C121.157 300.404 120.71 298.132 119.495 296.245C118.791 295.093 118.088 294.645 117.129 294.645H116.873C116.617 294.645 116.361 294.485 116.265 294.229C116.169 293.942 116.265 293.654 116.489 293.494C116.873 293.238 117.32 293.078 117.8 293.078H117.864C118.344 293.046 118.823 293.014 119.303 293.014C123.427 293.014 127.136 294.613 130.302 297.813C131.197 298.676 131.932 299.7 132.54 300.788C132.86 301.268 132.796 301.939 132.38 302.355C132.284 302.451 132.156 302.579 132.06 302.707L131.868 302.899L130.717 304.051C126.049 308.786 121.221 313.68 116.745 318.735C116.457 319.151 116.073 319.439 115.626 319.599H115.402ZM85.2509 320.175H85.123C84.8992 320.143 84.7393 319.983 84.6434 319.791C83.94 318.063 82.8209 316.687 81.7338 315.504C81.51 315.248 81.51 314.864 81.7658 314.608C82.1175 314.256 82.4692 313.936 82.8209 313.616C83.4923 312.976 84.1318 312.401 84.7393 311.761C89.1197 307.282 93.564 302.739 97.9764 298.196C98.2961 297.844 98.6479 297.525 98.9996 297.173C99.2234 296.949 99.5111 296.821 99.8309 296.821C100.055 296.821 100.279 296.885 100.47 297.013C101.494 297.653 102.677 298.036 103.924 298.068C104.339 298.1 104.659 298.324 104.819 298.644C104.979 298.996 104.883 299.412 104.595 299.764C103.668 300.82 102.74 301.875 101.845 302.899C100.982 303.859 100.151 304.851 99.3193 305.81C97.305 308.178 95.1947 310.641 92.7967 312.784C91.1341 314.288 89.5993 315.888 87.9687 317.615C87.2333 318.383 86.4979 319.183 85.6985 319.983C85.5706 320.11 85.4108 320.175 85.2509 320.175Z" fill="#5B8FCB"/>
<path d="M42.8537 241.092C42.2782 241.092 41.7986 240.676 41.7666 240.132C41.7026 239.332 41.7026 238.532 41.7026 237.765V237.733C41.7026 237.573 41.7666 237.413 41.8625 237.253C42.0543 236.965 42.3421 236.805 42.6938 236.805C42.8857 236.805 43.0455 236.869 43.2054 236.965C44.3245 237.605 45.1558 238.468 46.0191 239.588C46.1789 239.78 46.2109 240.068 46.083 240.292C45.9871 240.516 45.7633 240.644 45.5075 240.644H45.2837C44.7401 240.644 44.3245 240.772 43.8768 240.9C43.5891 240.996 43.3013 241.06 42.9816 241.124C42.9496 241.092 42.9176 241.092 42.8537 241.092ZM202.722 297.301H201.827C200.931 297.301 200.675 296.725 200.612 296.245C200.58 295.989 200.707 295.733 200.931 295.605C201.443 295.285 201.89 294.869 202.37 294.389C202.626 294.133 202.914 293.877 203.201 293.622C203.265 293.366 203.457 293.142 203.681 293.014C203.777 292.822 203.905 292.598 204.033 292.406C206.463 288.503 207.038 284.312 205.759 279.673C205.663 279.321 205.535 279.033 205.376 278.746H205.312V281.017C205.312 281.785 205.344 282.553 205.28 283.352C204.992 286.775 204.001 289.367 202.178 291.446C200.228 293.686 197.862 294.837 195.112 294.837C194.824 294.837 194.537 294.837 194.217 294.805C189.709 294.421 185.264 290.934 183.666 286.551C183.602 286.36 183.634 286.136 183.729 285.976C184.049 285.496 184.529 285.432 184.817 285.368C184.849 285.368 184.913 285.368 184.944 285.336C186.064 285.112 187.119 284.568 187.95 283.768C189.581 282.265 190.572 280.249 190.732 278.042C190.828 276.986 190.668 275.962 190.252 275.035C190.156 274.875 190.06 274.683 189.9 274.555H189.836C189.836 274.555 189.773 274.555 189.773 274.587C189.709 274.715 189.677 274.875 189.677 275.035V275.067C189.677 275.227 189.709 275.354 189.709 275.514C189.772 275.994 189.836 276.57 189.581 277.178C189.389 279.705 188.014 281.593 185.52 282.713C184.944 282.968 184.369 283.096 183.857 283.096C182.546 283.096 181.491 282.265 180.916 280.793C179.989 278.362 179.221 275.866 178.646 273.339C178.134 271.26 178.166 269.052 178.742 267.005C179.157 265.469 179.637 263.966 180.116 262.494L180.468 261.342L180.5 261.278C180.564 261.022 180.756 260.319 181.651 260.287H181.683C181.907 260.287 182.099 260.383 182.227 260.574C182.387 260.798 182.514 261.022 182.674 261.278C182.93 261.694 183.186 262.078 183.474 262.494C185.392 265.149 188.014 267.101 191.499 268.412C194.281 269.468 197.222 269.98 200.196 269.98C202.338 269.98 204.608 269.692 206.878 269.18C207.646 268.988 208.445 268.796 209.18 268.604C209.532 268.508 209.852 268.412 210.204 268.348L210.491 268.156C210.523 268.156 210.555 268.124 210.587 268.124C214.456 266.685 217.494 264.637 219.892 261.79L220.371 261.022C220.723 260.447 221.107 259.839 221.522 259.231C221.714 258.943 221.874 258.591 222.034 258.239C222.29 257.631 222.609 256.927 223.249 256.32C223.377 256.192 223.537 256.16 223.697 256.16C223.76 256.16 223.792 256.16 223.856 256.192C224.08 256.256 224.24 256.384 224.304 256.576C224.464 257.023 224.624 257.439 224.784 257.855C225.071 258.623 225.359 259.327 225.615 260.063C226.446 262.462 227.342 265.309 227.501 268.412C227.661 271.26 227.501 274.139 227.054 276.954C226.926 278.17 226.638 279.385 226.254 280.537C225.231 283.288 223.601 285.816 221.49 287.799C221.362 287.927 221.203 287.959 221.043 287.959C220.947 287.959 220.851 287.927 220.787 287.895C220.243 287.639 220.115 287.159 220.083 286.903C220.083 286.839 220.052 286.807 220.052 286.743C219.988 286.583 220.02 286.456 220.052 286.296C221.107 283.672 221.49 280.825 221.139 278.042V278.01C221.043 276.826 220.819 275.642 220.403 274.523C220.339 274.363 220.147 274.235 219.956 274.235H219.924C219.732 274.267 219.604 274.427 219.572 274.619C219.54 275.291 219.54 275.962 219.572 276.698C219.7 279.961 219.124 283.16 217.877 286.2C216.407 289.751 214.52 292.438 212.09 294.453C210.683 295.669 208.957 296.501 207.134 296.853C205.695 297.173 204.225 297.301 202.722 297.301Z" fill="#F7F6F5"/>
<path d="M200.1 268.86C199.333 268.86 198.501 268.828 197.67 268.764C195.336 268.604 193.066 268.028 190.956 267.101C188.877 266.269 186.959 264.957 185.392 263.294C182.323 259.935 181.3 256.16 182.323 252.129C182.93 249.761 184.177 247.554 185.872 245.794C186 245.666 186.255 245.411 186.671 245.411C186.767 245.411 186.895 245.443 186.991 245.475C187.407 245.634 187.63 245.986 187.63 246.53C187.662 248.034 187.662 249.186 187.662 250.273C187.662 250.977 187.183 251.297 186.767 251.297H186.703C186.415 251.265 186.128 251.137 185.968 250.913L185.936 250.881C185.84 250.753 185.776 250.593 185.712 250.465C185.68 250.401 185.616 250.305 185.584 250.241C185.584 250.209 185.552 250.209 185.552 250.177C185.552 250.145 185.52 250.145 185.52 250.145C185.456 250.145 185.424 250.209 185.392 250.305V250.337C185.232 250.849 185.328 251.393 185.648 251.841C186.192 252.609 186.895 253.28 187.694 253.824C189.421 255.04 191.371 255.904 193.418 256.384C194.217 256.576 194.984 256.767 195.784 256.959L196.167 257.055L196.999 257.087C197.606 257.119 198.214 257.151 198.821 257.151C199.237 257.183 199.652 257.183 200.068 257.183C204.8 257.183 209.277 255.904 213.753 253.248C215.288 252.385 216.63 251.265 217.75 249.921C218.101 249.473 218.453 248.994 218.805 248.514C218.933 248.322 219.06 248.13 219.22 247.938V247.554C219.188 247.394 219.092 247.33 219.028 247.33C218.996 247.33 218.965 247.33 218.933 247.362C218.645 247.618 218.389 247.906 218.101 248.194C217.941 248.386 217.75 248.546 217.558 248.738C217.398 248.898 217.046 249.249 216.566 249.249C216.407 249.249 216.247 249.218 216.087 249.154C215.831 249.026 215.671 248.77 215.703 248.482C215.927 246.722 216.151 244.963 216.407 243.203C216.407 243.171 216.407 243.139 216.439 243.107C216.503 242.883 216.63 242.691 216.854 242.595C216.886 242.563 216.918 242.563 216.95 242.563C217.078 242.499 217.238 242.467 217.398 242.467H217.462C217.622 242.467 217.781 242.531 217.909 242.659C219.284 244.035 220.691 245.443 221.299 247.49C221.522 247.746 221.65 248.098 221.65 248.45C222.45 250.145 222.354 251.905 222.162 253.376C221.778 256.224 220.531 258.815 218.549 260.894C215.671 264.061 211.962 266.429 207.87 267.741C205.472 268.508 202.946 268.86 200.1 268.86ZM104.755 296.373C103.891 296.373 102.996 296.245 102.101 295.989C100.662 295.669 99.543 294.581 99.1593 293.174C98.4879 290.934 97.0171 289.111 94.715 287.575C94.2993 287.319 93.8517 287.063 93.4361 286.807C93.2762 286.711 93.1483 286.647 92.9884 286.551C92.8286 286.519 92.6367 286.487 92.4769 286.455C92.4449 286.455 92.4129 286.455 92.4129 286.423C90.7503 285.72 88.8638 285.368 86.6896 285.368C86.3699 285.368 86.0502 285.368 85.7304 285.4H85.4427C85.1869 285.4 84.963 285.432 84.7712 285.432C84.3875 285.432 83.9719 285.4 83.6841 285.08C83.3324 284.696 83.3324 284.184 83.3644 283.288V283.16C83.5242 279.065 83.7161 274.939 83.8759 270.844C83.8759 270.652 83.9079 270.46 83.9719 270.268C83.9719 270.236 84.0038 270.204 84.0038 270.172C84.1957 269.852 84.4834 269.66 84.8032 269.66C84.9311 269.66 85.1549 269.692 85.3787 269.852L85.4427 269.884C85.6984 270.108 85.9862 270.332 86.242 270.556C87.6488 271.835 89.1516 273.051 90.6863 274.139C90.9421 274.331 91.1979 274.459 91.4857 274.651C92.1251 275.035 92.7966 275.418 93.2762 276.09C93.3721 276.218 93.4041 276.346 93.4041 276.506C93.3401 277.53 93.3082 278.522 93.2442 279.545C93.2122 279.929 93.2122 280.281 93.1803 280.665C93.1163 281.529 93.0844 282.425 93.0524 283.288C93.0524 283.704 93.0844 284.12 93.1483 284.536H93.1803C93.2122 284.536 93.2122 284.504 93.2442 284.504C93.3721 283.992 93.5 283.512 93.6279 283L93.7238 281.849L94.1075 277.914C94.2034 277.146 94.715 276.89 95.1626 276.89C95.3545 276.89 95.5463 276.922 95.7382 277.018C96.0899 277.146 96.4736 277.274 96.8253 277.402C97.5607 277.69 98.328 277.978 99.0954 278.17C100.726 278.618 102.453 278.842 104.147 278.842H104.307C105.426 278.842 105.938 279.065 106.002 280.313C106.034 280.857 106.066 281.401 106.098 281.913C106.194 283.352 106.257 284.856 106.162 286.359L106.257 287.255C106.353 288.055 106.449 288.823 106.513 289.623V289.655C106.545 290.166 106.641 290.678 106.801 291.158C106.865 290.966 106.897 290.806 106.961 290.614C106.993 290.486 107.025 290.358 107.057 290.262C107.057 289.847 107.057 289.463 107.089 289.047C107.121 288.119 107.121 287.191 107.121 286.264V280.217C107.121 279.001 107.313 278.554 108.528 278.202C110.99 277.498 113.196 276.122 114.922 274.267C114.954 274.235 114.954 274.203 114.986 274.203C115.146 274.043 115.434 273.723 115.914 273.723C116.105 273.723 116.265 273.755 116.457 273.851C116.649 273.947 116.809 274.139 116.809 274.395C116.841 274.779 116.873 275.131 116.905 275.514C116.969 276.25 117.033 276.986 117.033 277.754C117.033 278.138 117.065 278.554 117.097 278.938C117.16 279.897 117.224 280.857 117.129 281.849C117.416 283.832 117.704 289.303 117.608 290.454C117.576 290.678 117.448 290.87 117.256 290.966C117.129 291.03 117.001 291.094 116.841 291.126C116.809 291.126 116.809 291.126 116.777 291.158C114.219 291.702 111.789 292.886 109.807 294.581C108.4 295.765 106.673 296.373 104.755 296.373ZM253.88 71.5373C253.688 71.5373 253.528 71.4734 253.4 71.3134C253.272 71.1534 253.144 70.9935 253.016 70.8655C252.697 70.4816 252.377 70.1297 252.025 69.7778C250.906 68.6261 249.02 67.2825 246.494 67.2825C245.375 67.2825 244.224 67.5384 243.073 68.0823C241.954 68.6261 240.898 69.3619 239.971 70.2257L239.875 70.3217C239.715 70.4816 239.428 70.7376 238.98 70.7376C238.82 70.7376 238.66 70.7056 238.5 70.6416C238.277 70.5456 238.117 70.3217 238.117 70.0657V68.4662C238.117 67.5064 237.989 66.5787 237.669 65.6829C236.902 63.5075 235.431 62.1639 233.129 61.588C232.585 61.4601 232.01 61.3961 231.434 61.3961C230.635 61.3961 229.772 61.524 228.748 61.78C228.621 61.812 228.493 61.844 228.365 61.9079C228.013 62.0359 227.597 62.1639 227.054 62.1639H226.766C226.574 62.1319 226.414 62.0679 226.318 61.9079C226.223 61.78 226.159 61.588 226.191 61.3961C226.35 60.4683 226.35 59.5406 226.191 58.6448C226.127 58.133 225.903 57.6531 225.711 57.1092C225.519 56.6933 225.359 56.2455 225.199 55.7656C225.135 55.5736 225.199 55.3497 225.327 55.1897C225.455 55.0298 225.647 54.9338 225.839 54.9338H226.031C227.661 54.9338 228.684 53.9421 229.548 52.8864C230.507 51.6707 231.21 50.1991 231.53 48.6315C232.234 45.5923 231.594 43.161 229.548 41.1135C228.205 39.7699 226.766 38.5222 225.263 37.3705C224.976 37.1786 224.752 36.9547 224.496 36.6987C224.176 36.3788 224.368 35.8989 224.4 35.771C224.528 35.4511 224.784 35.3551 224.944 35.3231C225.199 35.2911 225.455 35.2591 225.679 35.2271C225.903 35.1951 226.159 35.1951 226.382 35.1631C228.397 34.8752 229.899 34.0754 230.923 32.6998C231.402 32.092 231.722 31.3882 231.946 30.6524C232.042 30.3964 232.266 30.2045 232.553 30.2045H233.193C233.385 30.2045 233.576 30.3004 233.704 30.4604C233.8 30.6204 233.864 30.7803 233.832 30.9723C233.96 31.0362 234.056 31.1322 234.152 31.2282C235.719 33.9155 238.373 35.803 241.41 36.4108C242.369 36.6027 243.328 36.6987 244.288 36.6987C245.599 36.6987 246.877 36.5388 248.124 36.1869C250.235 35.643 252.249 34.6513 254.679 32.9557C254.775 32.8917 254.903 32.8278 255.031 32.8278C255.159 32.8278 255.319 32.8598 255.414 32.9557L255.894 33.3396C256.118 33.4996 256.182 33.7875 256.118 34.0434L255.958 34.4913C255.606 35.579 255.255 36.6027 255.127 37.6905C254.807 40.6337 256.246 42.8731 259.091 43.8328C259.955 44.1527 260.85 44.3127 261.777 44.3447C262.065 44.3447 262.353 44.3767 262.736 44.3767C262.928 44.3767 263.184 44.4086 263.44 44.4086C263.696 44.4086 263.919 44.6006 264.015 44.8245C264.111 45.0485 264.047 45.3364 263.855 45.4964C263.28 46.0402 262.64 46.4881 261.937 46.84C261.01 47.3519 260.21 48.0557 259.603 48.8874C259.347 49.2713 259.027 49.8792 259.155 50.455C259.283 51.0309 259.827 51.4468 260.274 51.6707C261.17 52.1506 262.161 52.4385 263.184 52.5665C263.28 52.5665 263.344 52.5664 263.44 52.5984C263.855 52.5984 264.463 52.6304 265.038 53.2063C265.198 53.3342 265.262 53.5582 265.23 53.7501C265.198 53.9421 265.07 54.134 264.911 54.23C262.768 55.4137 261.585 56.8213 261.138 58.6448C260.69 60.5003 261.17 62.2918 262.609 64.1473C262.736 64.3073 262.768 64.4992 262.704 64.6912C262.64 64.8831 262.513 65.0431 262.353 65.1071C262.065 65.235 261.777 65.299 261.457 65.299C261.17 65.299 260.882 65.235 260.658 65.203C260.562 65.1711 260.434 65.1391 260.338 65.1391C260.083 65.1071 259.859 65.0751 259.635 65.0751C257.812 65.0751 256.342 66.0348 255.574 67.7624C255.287 68.5301 255.095 69.3299 254.999 70.1617V70.2897C254.967 70.5136 254.935 71.2494 254.072 71.4414C253.944 71.5373 253.912 71.5373 253.88 71.5373ZM134.842 300.532C134.266 300.532 133.723 300.212 133.467 299.7C133.115 299.124 132.796 298.516 132.444 297.94L131.996 297.205C131.836 297.077 131.645 296.917 131.517 296.757L131.485 296.725C130.366 295.413 129.023 294.261 127.52 293.398C125.857 292.438 124.035 291.734 122.148 291.382C120.774 291.126 120.518 290.838 120.422 289.399C120.166 286.391 119.942 283.32 119.686 280.313L119.495 277.338L119.431 276.378C119.431 276.186 119.495 276.026 119.622 275.898C119.75 275.77 119.91 275.706 120.07 275.706H120.102C120.774 275.738 121.221 276.058 121.573 276.314C121.637 276.346 121.701 276.41 121.765 276.442C122.788 277.114 123.875 277.722 124.994 278.202C126.465 278.842 128 279.321 129.534 279.673C130.493 279.865 130.813 280.217 130.845 281.209L130.941 283.032C130.973 284.024 131.037 285.016 131.101 286.008C131.197 287.191 131.325 288.375 131.453 289.559L131.485 289.719C131.517 290.102 131.613 290.486 131.804 290.806C131.9 290.71 131.932 290.55 131.964 290.262L132.348 285.944C132.188 285.24 132.188 284.536 132.188 283.832C132.188 283.448 132.188 283.096 132.156 282.744C132.124 282.297 132.124 281.881 132.124 281.465V281.369C132.124 280.729 132.668 280.217 133.307 280.217H134.266C134.65 280.217 135.034 280.249 135.449 280.249C137.911 280.249 140.373 279.929 142.771 279.321C143.027 279.257 143.283 279.225 143.507 279.161H143.571C143.635 279.161 143.731 279.129 143.795 279.129C144.338 279.129 144.85 279.513 144.946 280.057C145.041 280.409 145.137 280.793 145.233 281.145C145.553 282.297 145.905 283.512 146.065 284.76C146.097 284.856 146.129 284.92 146.161 285.016C146.256 285.24 146.32 285.496 146.384 285.72V285.752C146.832 287.319 147.312 288.919 147.791 290.518C147.951 290.966 148.143 291.446 148.367 291.862C148.431 291.958 148.527 292.022 148.655 292.022H148.718C148.814 291.99 148.846 291.894 148.846 291.798C148.814 291.062 148.75 290.326 148.655 289.591C148.431 288.343 148.175 287.063 147.951 285.848L147.727 284.792C147.28 283.576 146.992 282.329 146.768 281.145L146.384 279.417C146.32 279.097 146.225 278.33 147.28 277.85C149.358 276.954 151.308 275.834 153.099 274.459C153.355 274.235 153.61 274.139 153.866 274.139C154.186 274.139 154.634 274.299 154.857 275.067C154.921 275.322 155.017 275.578 155.113 275.834C155.369 276.538 155.625 277.242 155.657 278.042C156.232 279.545 156.712 281.081 157.16 282.553C157.479 283.576 157.767 284.6 158.119 285.624C158.406 286.487 158.63 287.351 158.886 288.183C159.238 289.527 159.589 290.806 160.165 292.022C160.453 292.566 160.261 293.238 159.749 293.59L159.43 293.845C158.918 294.261 158.406 294.677 157.863 295.029C155.241 296.725 152.427 298.004 149.422 298.804C144.562 300.148 139.51 300.372 135.194 300.468H135.002C134.906 300.532 134.874 300.532 134.842 300.532ZM32.1426 267.357C31.9827 267.357 31.7909 267.325 31.5351 267.261C28.6575 266.461 25.6839 265.885 22.7104 265.565C22.2308 265.501 21.7512 265.437 21.2716 265.405C19.2892 265.181 17.2429 264.957 15.2286 264.509C11.7434 263.71 8.96174 262.43 6.65964 260.51C5.34872 259.423 4.26162 258.015 3.5582 256.48C3.17452 255.712 3.11057 254.752 3.43031 253.92C3.75004 253.088 4.00583 252.257 4.22965 251.425C4.48544 250.465 4.86912 249.505 5.31675 248.642C5.60451 248.034 6.08412 247.458 6.62767 247.042C8.41819 245.666 10.2727 244.387 12.1911 243.203C12.5428 243.011 12.8305 242.819 13.2142 242.819C13.7258 242.819 14.0455 243.171 14.3973 243.523C16.4755 245.762 18.8416 247.746 21.4315 249.345C21.943 249.569 22.2628 250.081 22.2628 250.625C22.2628 250.817 22.1988 250.977 22.0709 251.105C21.943 251.201 21.7832 251.265 21.6233 251.265H21.5594C21.3675 251.233 21.1757 251.233 21.0158 251.201C20.5682 251.169 20.1525 251.105 19.7369 251.105H19.4491C18.362 251.041 17.2109 251.009 16.0919 250.977H15.9959C15.2925 250.977 14.5571 251.137 13.9496 251.489C13.9496 251.489 13.9177 251.489 13.9177 251.521C13.8537 251.553 13.8217 251.585 13.7898 251.617C13.7578 251.713 13.7578 251.777 13.7578 251.809C13.7578 251.841 13.7898 251.905 13.8857 251.969C13.9177 251.969 13.9177 252.001 13.9496 252.001C14.0136 252.065 14.1095 252.097 14.1734 252.129C16.0919 252.992 18.2021 253.76 20.5042 253.76C20.728 253.76 20.9838 253.76 21.2076 253.728C22.007 253.664 22.8383 253.632 23.6376 253.632L24.1492 253.6H24.437C25.588 253.6 26.6751 253.92 27.6343 254.56C30.416 256.448 32.3664 258.879 33.3896 261.79C33.9012 263.326 33.8372 264.989 33.1977 266.461C33.1658 266.717 32.878 267.357 32.1426 267.357Z" fill="#F7F6F5"/>
<path d="M43.1737 276.666C42.2785 276.666 41.3512 276.602 40.456 276.506H40.424C39.5607 276.506 38.8573 275.866 38.7294 275.003C38.1219 272.443 37.8981 269.852 38.026 267.229C38.0899 265.821 38.4416 264.477 39.0172 263.198C39.9444 261.15 41.2553 259.839 43.0778 259.103C43.6214 258.879 44.1649 258.783 44.6765 258.783C45.9874 258.783 47.1385 259.487 47.9058 260.734C48.6092 261.758 48.865 263.07 48.5773 264.285C48.2256 266.045 48.0017 267.868 47.9058 269.66C47.8739 269.948 47.9058 270.268 47.9058 270.556V271.036C47.9058 271.1 47.9378 271.132 47.9698 271.164H48.0337C48.0977 271.164 48.1616 271.132 48.1936 271.1L48.2256 271.068C48.6412 270.652 48.897 270.108 48.961 269.5V269.468C49.4086 267.069 49.7923 264.221 49.2167 261.374C48.7371 258.943 46.8827 257.343 44.4846 257.343C43.7173 257.343 42.9179 257.503 42.1506 257.855C40.3601 258.655 38.9532 260.031 37.8661 262.014C37.8022 262.142 37.7382 262.302 37.6743 262.462C37.5144 262.878 37.3226 263.39 36.811 263.774C36.7151 263.87 36.5552 263.902 36.4273 263.902C36.2994 263.902 36.1395 263.838 36.0116 263.774C35.8837 263.678 35.7558 263.55 35.628 263.454L35.0524 262.974C34.6048 262.686 34.317 262.206 34.2211 261.694C33.7415 259.615 32.7184 257.567 30.9278 255.072L30.8639 255.008C30.704 254.816 30.2244 254.304 30.672 253.536C30.7999 253.344 30.9918 253.216 31.2156 253.216H31.3435C32.8462 253.504 34.413 253.664 35.9477 253.664C37.4185 253.664 38.8573 253.536 40.2961 253.248C43.3016 252.705 46.1473 251.393 48.5133 249.473C48.6412 249.377 48.7691 249.313 48.929 249.313H48.9929C49.1528 249.345 49.3127 249.409 49.4406 249.569C53.8209 255.2 55.2598 261.022 53.789 267.389C53.3413 269.276 52.4781 271.1 51.2631 272.635C49.3766 275.035 47.0745 276.314 44.2289 276.57C43.9411 276.666 43.5574 276.666 43.1737 276.666Z" fill="#F7F6F5"/>
<path d="M37.4823 251.841C35.7877 251.841 34.0291 251.649 32.2706 251.233C26.5793 249.953 21.4315 247.17 16.5076 242.723C15.964 242.276 15.6443 241.54 15.7402 240.804C15.8681 238.341 16.5396 235.877 17.7226 233.702C18.0103 233.222 18.2981 232.806 18.6498 232.422C18.8736 232.166 19.2253 231.75 19.8968 231.75C20.0247 231.75 20.1206 231.75 20.2485 231.782C20.4723 231.846 20.6642 232.006 20.7281 232.23C20.824 232.55 20.9199 232.838 21.0159 233.19C21.1757 233.798 21.3676 234.438 21.5914 235.205C21.6553 235.429 21.5914 235.653 21.4315 235.813C21.3036 235.941 21.1438 236.005 20.9839 236.005H20.856C20.6642 235.973 20.5043 235.909 20.3444 235.877C20.0886 235.813 19.9288 235.781 19.7369 235.749H19.609C19.5131 235.749 19.4492 235.781 19.3852 235.877C19.3852 235.877 19.3852 235.941 19.4172 235.973L19.4811 236.037C19.9607 236.549 20.4723 236.997 21.0159 237.381C24.1173 239.588 27.5385 241.316 31.1835 242.499C33.3897 243.171 35.404 243.523 37.3544 243.523C38.5054 243.523 39.6245 243.395 40.7436 243.171C43.0457 242.691 44.5485 241.86 45.6036 240.548C45.7315 240.388 45.8913 240.324 46.0832 240.324C46.275 240.324 46.4669 240.42 46.5948 240.58C47.8417 242.244 48.8969 244.707 49.1207 246.434V246.498C49.2806 247.938 49.2806 248.29 48.1295 248.93C48.0336 248.962 47.9377 249.026 47.8417 249.09C44.6444 250.881 41.1273 251.841 37.4823 251.841ZM12.9585 277.914C12.6707 277.914 12.351 277.914 12.0633 277.882C11.4238 277.85 10.7843 277.626 10.2408 277.242C9.21759 276.57 8.22641 275.834 7.29918 275.035C5.89234 273.819 4.93313 272.251 4.51747 270.46C3.97392 268.221 3.97392 265.981 4.00589 263.838V262.942C4.00589 262.686 4.16576 262.43 4.42155 262.334C4.45352 262.302 4.51747 262.302 4.51747 262.302C4.61339 262.27 4.74129 262.206 4.90116 262.206C4.99708 262.206 5.12497 262.238 5.22089 262.302C6.59576 263.006 8.0026 263.742 9.40944 264.446C9.40944 264.446 9.44141 264.446 9.44141 264.478C9.5693 264.542 9.66523 264.638 9.76115 264.765C9.88904 264.925 10.2408 265.373 9.92101 265.917C9.85707 266.013 9.82509 266.109 9.76115 266.205C9.63325 266.429 9.53733 266.621 9.40944 266.845C8.6101 268.476 8.45023 270.268 8.41825 271.996V272.06C8.41825 272.155 8.4822 272.251 8.57812 272.283H8.6101C8.70602 272.283 8.80194 272.219 8.83391 272.123V272.06C8.96181 271.676 9.0897 271.324 9.2176 270.94C9.28154 270.684 9.37746 270.46 9.44141 270.236C9.82509 268.956 10.3367 267.709 10.9761 266.493C11.2 266.077 11.5197 265.437 12.319 265.437C12.5109 265.437 12.7347 265.469 12.9905 265.565C14.0136 265.853 15.0368 266.013 16.1239 266.173L17.9464 266.461C18.4899 266.557 19.0655 266.621 19.609 266.717C19.9607 266.749 20.2805 266.813 20.6322 266.845C20.7601 266.877 20.856 266.877 20.9519 266.877C22.103 267.005 22.4227 267.421 22.3907 268.828C22.3907 269.404 22.3268 269.98 22.1669 270.556C21.6234 272.731 20.3124 274.619 18.2981 276.122C16.7953 277.274 14.8769 277.914 12.9585 277.914Z" fill="#F7F6F5"/>
<path d="M24.5969 281.401C22.5186 281.401 20.3124 280.985 17.6267 280.121C17.3709 280.025 17.211 279.865 17.0831 279.705L16.9552 279.577C16.7953 279.449 16.7314 279.225 16.7634 279.034C16.7953 278.842 16.9232 278.65 17.0831 278.554L17.3389 278.426C17.5307 278.298 17.7226 278.202 17.9144 278.106C19.0015 277.562 19.9607 276.858 20.824 275.994C22.8384 273.915 23.8615 271.579 23.8935 268.892C23.8935 267.773 24.6609 267.645 24.9806 267.645C25.1085 267.645 25.2683 267.677 25.4602 267.709C25.5561 267.741 25.684 267.773 25.7799 267.805C25.8439 267.836 25.9078 267.837 25.9718 267.868L26.2595 267.932C27.5705 268.188 28.8174 268.412 30.0964 268.412H30.512C32.0787 268.348 32.8781 267.996 33.3897 267.069C33.6135 266.717 33.8693 266.525 34.221 266.525C34.4128 266.525 34.5727 266.589 34.7965 266.685C35.0203 266.813 35.1802 267.069 35.1482 267.325C35.0203 268.412 35.0843 269.532 35.1482 270.716C35.1802 271.42 35.2121 272.123 35.2121 272.827C35.2441 275.163 34.221 277.338 32.4304 278.842C31.0556 279.993 29.361 280.793 27.6024 281.113C26.6752 281.305 25.652 281.401 24.5969 281.401ZM124.706 276.026C124.61 276.026 124.546 275.994 124.451 275.962C122.564 275.163 120.838 273.947 119.495 272.443C119.079 271.995 119.047 271.452 119.015 271.068V270.908C118.919 269.788 118.791 268.7 118.695 267.581C118.599 266.749 118.535 265.885 118.44 265.053C118.376 264.477 118.312 263.742 118.28 263.07C118.28 262.91 118.248 262.43 118.567 262.078C118.887 261.726 119.335 261.726 119.495 261.726C120.678 261.694 121.829 261.662 122.98 261.662C123.907 261.662 124.323 262.046 124.387 263.006C124.483 264.317 124.578 265.629 124.674 266.909C124.77 268.22 124.866 269.532 124.962 270.812C125.026 271.803 125.122 272.795 125.218 273.915L125.346 275.354C125.378 275.578 125.282 275.802 125.09 275.93C124.962 275.962 124.834 276.026 124.706 276.026ZM179.669 53.0783C179.317 53.0783 178.966 52.9503 178.742 52.6944C178.294 52.3105 178.166 51.6387 178.454 51.0948C178.614 50.7749 178.806 50.487 179.062 50.2311C180.308 48.8235 181.811 47.6718 183.442 46.744C185.392 45.7203 187.183 45.2404 188.941 45.2404H189.293C191.659 45.2404 194.025 45.8802 196.103 47.0639C197.031 47.5758 197.83 48.2476 198.469 49.0794C198.661 49.3033 198.821 49.5912 198.917 49.8792C198.917 49.9112 198.917 49.9112 198.949 49.9432C199.013 50.2631 198.949 50.615 198.789 50.8709C198.789 50.9029 198.757 50.9029 198.757 50.9029C198.757 50.9029 198.725 50.9349 198.725 50.9669C198.533 51.1908 198.278 51.3188 197.99 51.3188C197.766 51.3188 197.574 51.2548 197.414 51.1268C196.039 50.2631 194.569 49.6232 192.97 49.2393C191.947 48.9514 190.924 48.7915 189.901 48.7915C188.046 48.7915 186.224 49.2713 184.593 50.1351C183.474 50.7749 182.355 51.4787 181.3 52.2465C181.012 52.4705 180.66 52.6944 180.34 52.8864C180.085 53.0143 179.861 53.0783 179.669 53.0783ZM88.2564 270.364C88.0646 270.364 87.8727 270.3 87.7129 270.172L87.6809 270.14L87.4251 269.916C86.5298 269.148 85.6026 268.38 84.8992 267.357C84.1638 266.813 84.1958 266.045 84.1958 265.501V265.277C84.2597 262.878 84.2917 260.479 84.3236 258.111V257.535C84.3236 256.512 84.3556 255.584 85.3468 255.584C85.6665 255.584 86.0502 255.712 86.6897 255.936C86.8815 256 87.0734 256.064 87.3292 256.16C87.4251 256.192 87.521 256.224 87.5849 256.256C88.3843 256.384 88.9598 257.119 88.8959 257.951C88.8959 258.911 88.8959 259.839 88.9278 260.798V262.11C88.9918 262.398 89.0238 262.686 89.0557 263.006C89.2156 264.381 89.2156 265.757 89.2156 267.101C89.2156 267.868 89.2156 268.636 89.2476 269.404V269.5C89.2156 269.66 89.1836 269.788 89.0877 269.916C88.8639 270.204 88.5761 270.364 88.2564 270.364ZM81.2542 158.106H81.1263C80.8705 158.042 80.6786 157.818 80.6467 157.562C80.4868 156.41 80.199 155.195 79.8793 154.011C79.7194 153.339 79.5276 152.636 79.3997 151.964C79.3677 151.836 79.3038 151.452 79.2079 150.972C79.016 149.82 78.4085 146.429 78.0568 145.533C75.8506 145.245 73.5485 145.245 71.2784 145.214C70.2552 145.214 69.2321 145.182 68.2089 145.15C67.9212 145.15 67.6654 144.926 67.6014 144.67C67.5375 144.382 67.6654 144.094 67.9212 143.966L75.1472 139.967C74.7316 137.919 74.2519 136.096 73.2927 134.496C72.2696 132.801 70.7349 131.617 69.1362 131.329C68.8804 131.265 68.6885 131.073 68.6246 130.817C68.5926 130.561 68.6885 130.306 68.9123 130.146C70.9267 128.962 73.1968 128.322 75.5309 128.322C75.8826 128.322 76.2663 128.322 76.618 128.354C85.8904 129.378 89.8231 137.408 88.704 152.923C88.6721 153.211 88.4802 153.435 88.1925 153.499C87.3292 153.659 86.4659 153.947 85.6665 154.363C84.9311 154.715 84.2597 155.163 83.6202 155.707C83.0127 156.219 82.4692 156.826 81.9896 157.466C81.8936 157.594 81.8297 157.722 81.7338 157.85C81.6698 158.01 81.478 158.106 81.2542 158.106ZM133.211 158.842C133.115 158.842 133.019 158.81 132.924 158.778C130.014 157.274 126.913 156.315 123.651 155.931C123.299 155.899 123.076 155.611 123.076 155.259L123.108 154.843C123.3 151.612 123.459 148.573 123.523 145.405C121.509 144.606 119.303 143.998 117.193 143.39C116.233 143.134 115.21 142.846 114.251 142.558C113.963 142.462 113.803 142.206 113.803 141.918C113.803 141.63 113.995 141.375 114.283 141.311L122.34 139.327C122.468 137.344 122.5 135.392 121.957 133.569C121.669 132.513 121.125 131.521 120.422 130.689C120.262 130.529 120.23 130.274 120.294 130.05C120.358 129.826 120.55 129.666 120.774 129.634C120.933 129.602 121.093 129.57 121.285 129.57C121.637 129.538 122.021 129.506 122.372 129.506C126.177 129.506 130.142 131.745 132.476 135.232C136.76 141.503 135.961 151.324 133.787 158.362C133.723 158.554 133.595 158.682 133.435 158.778C133.371 158.81 133.307 158.842 133.211 158.842Z" fill="#F7F6F5"/>
<path d="M291.065 52.0226C289.786 51.8947 288.507 51.7987 287.26 51.6387C284.479 51.2868 281.761 50.519 279.235 49.3354C278.372 48.9195 277.54 48.4076 276.741 47.8638C272.425 44.7926 271.05 40.4738 272.872 35.5471C273.927 32.6998 275.622 30.2365 277.668 27.9971C278.851 26.7175 280.13 25.5338 281.377 24.2861C281.729 23.9342 282.113 23.6783 282.304 23.1984C282.4 22.9745 282.4 22.7185 282.24 22.5266C282.081 22.3346 281.825 22.2387 281.601 22.3346C281.377 22.3986 281.153 22.5266 280.962 22.6546C278.18 24.574 275.046 25.6617 271.785 26.5255C269.835 27.0374 267.852 27.3253 265.838 27.3893C255.223 27.6452 247.038 21.6628 245.055 11.7455C244.448 8.67431 244.48 5.53916 245.183 2.49998C245.279 2.14807 245.311 1.79617 245.311 1.44426C245.247 1.02837 244.863 0.772441 244.48 0.836424C244.288 0.868415 244.096 0.996381 243.968 1.15634C243.84 1.47625 243.712 1.82816 243.616 2.18006C242.817 4.45145 241.762 6.59487 240.227 8.48237C237.254 12.0334 233.001 12.8332 228.845 11.2016C226.862 10.4018 225.072 9.25016 223.505 7.81055C223.057 7.39466 222.61 7.01076 222.13 6.62686C221.778 6.33894 221.363 6.43492 220.979 6.75483C220.627 7.04275 220.659 7.36267 220.819 7.71457C221.267 8.77029 221.714 9.79401 222.13 10.8497C223.185 13.537 223.665 16.3842 223.505 19.2635C223.409 20.7031 223.057 22.1107 222.418 23.3904C221.043 26.1736 218.677 27.7092 215.607 28.221C212.602 28.7329 209.788 27.9971 207.07 26.8774C206.047 26.4615 205.12 25.9177 204.129 25.4058C203.873 25.2778 203.617 25.0859 203.33 24.9899C202.69 24.734 202.179 24.9259 201.795 25.5658C201.475 26.0456 201.571 26.4615 202.147 26.9414C202.37 27.1333 202.658 27.2933 202.882 27.4533C203.745 28.1251 204.577 28.8289 205.408 29.5327C205.664 29.7566 206.111 29.9806 205.983 30.3645C205.855 30.8124 205.376 30.6204 205.024 30.6204C201.987 30.5564 198.949 30.9083 195.976 31.6761C189.485 33.3077 183.986 36.5068 179.637 41.5934C178.294 43.129 177.111 44.7926 176.12 46.5841C175.896 47 175.544 47.3519 175.129 47.6078C169.629 51.3508 165.729 56.3735 163.043 62.3559C162.339 63.9554 162.435 63.7635 160.933 63.2836C158.471 62.4198 155.945 61.78 153.355 61.3001C150.637 60.8523 147.919 60.5963 145.17 61.0122C143.891 61.1722 142.676 61.5881 141.557 62.1639C140.022 63.0277 138.903 64.2114 138.455 65.9709C138.135 67.2505 137.4 68.3702 136.856 69.5859C136.633 70.0658 136.281 70.1298 135.801 70.0338C134.906 69.8738 134.011 69.7139 133.084 69.5859C126.689 68.6582 120.23 68.3702 113.771 68.7221C109.327 68.9781 104.947 69.5219 100.598 70.4177C94.2675 71.6973 88.0966 73.5528 82.1495 76.0162C73.8044 79.4713 65.9709 84.078 58.9047 89.6765C51.0712 95.9148 44.2288 103.305 38.6015 111.623C32.5265 120.548 28.0182 130.466 25.2365 140.895C23.382 147.837 22.3269 154.939 22.0711 162.105C21.6874 171.958 22.8065 181.844 25.3644 191.377C25.6202 192.177 25.5562 193.041 25.2045 193.776C23.6058 196.976 22.7106 200.367 21.8473 203.79C20.6003 209.004 19.737 214.315 19.2894 219.69C19.0656 221.961 19.0656 224.232 19.2894 226.472C19.3853 227.431 19.4812 228.359 19.6091 229.319C19.6731 229.703 19.4812 230.055 19.0976 230.183C17.1791 231.014 15.9322 232.55 14.909 234.278C14.1416 235.653 13.5981 237.093 13.2464 238.628C13.2144 238.756 13.1824 238.852 13.1824 238.98C13.1185 240.228 12.479 240.932 11.232 241.444C8.70613 242.499 6.49995 244.163 4.3897 245.858C3.43049 246.69 2.69509 247.746 2.31141 248.962C1.63996 250.881 1.06444 252.833 0.648778 254.816C0.297069 256.16 0.552859 257.599 1.32023 258.783C2.02365 259.871 2.0876 260.958 1.99167 262.174C1.76786 265.149 1.73588 268.124 2.21549 271.1C2.98286 275.706 6.72377 278.586 10.4007 279.225C11.8715 279.481 13.3103 280.025 14.6213 280.761C18.586 283.064 23.1902 284.12 27.7624 283.736C29.6489 283.576 31.4714 282.968 33.07 281.945C34.349 281.145 35.4041 280.025 36.1075 278.682C36.5552 277.85 36.5232 277.562 37.994 277.85C38.8892 278.01 39.7845 278.17 40.6798 278.298C43.3975 278.746 46.1792 278.458 48.7691 277.466C51.6787 276.346 54.0447 274.139 55.3556 271.324C56.2509 269.436 56.7625 267.389 56.8584 265.277C57.1462 259.551 55.0679 254.656 51.6467 250.177C51.3909 249.825 51.1351 249.505 50.8474 249.218C50.4957 248.898 50.3358 248.386 50.4637 247.906C51.1351 243.715 49.6004 240.164 47.0425 236.965C46.0193 235.685 44.7404 234.629 43.2696 233.926C42.854 233.766 42.6301 233.35 42.7261 232.902C42.9179 231.238 43.2696 229.607 43.7492 228.007C43.8132 227.815 44.005 227.719 44.1969 227.751C44.2288 227.751 44.2928 227.783 44.3247 227.815C44.5805 228.071 44.8043 228.359 45.0601 228.615C53.5331 238.436 63.9566 246.434 75.6589 252.033C77.7372 253.025 79.8474 253.92 81.9577 254.88C82.7251 255.232 82.757 255.296 82.6611 256.096C82.3734 259.071 82.0536 262.046 81.7978 264.989C81.7339 265.821 81.7339 266.653 81.6699 267.485C81.2862 272.539 80.9345 277.594 80.5509 282.649C80.4869 283.608 80.423 284.536 80.359 285.496C79.6556 286.2 78.6005 286.232 77.8011 286.775C77.4494 286.999 77.0338 287.159 76.6821 287.351C76.2984 287.511 75.9786 287.831 75.7868 288.215C75.4031 289.335 74.5078 290.103 73.7725 290.934C70.1594 295.189 66.4505 299.412 62.8694 303.699C60.8231 306.226 58.6489 308.658 56.3788 310.961C55.7393 311.601 55.0359 312.145 54.2366 312.592C51.1671 314.16 48.5453 316.495 46.5949 319.375C45.6676 320.782 44.9322 322.286 44.4526 323.917C44.2608 324.589 44.037 325.165 43.3016 325.389C43.0778 325.485 42.8859 325.613 42.6941 325.773C40.8716 327.245 39.7845 331.787 41.3512 334.059C41.5111 334.315 41.7029 334.539 41.9267 334.763C44.8683 337.578 48.3534 339.753 52.1583 341.161C56.187 342.728 60.4714 343.56 64.8198 343.592C68.4968 343.624 72.1098 343.176 75.499 341.641C75.7228 341.545 75.9786 341.481 76.2344 341.385C76.5542 341.737 76.9059 342.089 77.2256 342.44C79.112 344.68 81.574 346.055 84.2918 347.015C86.8177 347.879 89.4395 348.487 92.0933 348.839C96.09 349.383 100.119 349.543 104.115 349.255C108.432 348.999 112.716 348.391 116.937 347.463C119.719 346.823 122.468 346.087 125.186 345.224C127.168 344.584 129.151 344.072 131.165 343.56C141.78 340.969 152.364 338.186 162.915 335.37C166.016 334.539 169.086 333.579 172.187 332.619C173.21 332.267 174.234 331.883 175.225 331.403C177.559 330.348 178.902 328.524 179.701 326.253C180.5 324.045 180.628 321.646 180.021 319.375C179.637 317.967 179.03 316.655 177.815 315.76C177.303 315.376 176.951 314.768 176.823 314.128C176.152 311.345 175.321 308.594 174.329 305.906C173.306 303.091 172.283 300.276 171.164 297.525C170.748 296.533 170.621 295.445 170.844 294.421C171.804 289.431 170.077 285.4 166.048 282.265C164.641 281.177 162.947 280.505 161.156 280.377C160.101 280.281 159.75 279.801 159.462 278.906C158.119 274.875 156.712 270.876 155.337 266.845C154.314 263.902 153.291 260.958 152.076 258.111C151.98 257.887 151.916 257.663 151.82 257.439C151.724 257.183 151.852 256.863 152.108 256.768C152.14 256.768 152.14 256.736 152.172 256.736C152.555 256.576 152.971 256.416 153.355 256.288C161.412 253.408 169.054 249.441 176.024 244.483C179.285 242.211 182.419 239.684 185.328 236.997C185.584 236.741 185.872 236.517 186.16 236.325C186.352 236.197 186.511 236.325 186.575 236.485C186.639 236.581 186.639 236.709 186.639 236.837C186.671 238.276 186.703 239.716 186.767 241.124C186.799 241.668 186.607 242.179 186.224 242.595C185.648 243.299 185.073 244.003 184.529 244.675C182.962 246.594 181.651 248.674 180.98 251.073C180.66 252.289 180.341 253.504 180.404 254.784C180.468 256.224 180.149 257.663 179.509 258.943C178.678 260.67 177.943 262.43 177.303 264.254C176.951 265.341 176.6 266.429 176.28 267.485C175.672 269.564 175.608 271.739 176.088 273.851C176.536 275.962 176.887 278.074 177.623 280.121C178.518 282.585 179.317 285.112 180.277 287.543C181.715 291.254 184.305 294.197 187.79 296.277C189.869 297.557 192.299 298.196 194.729 298.132C195.688 298.132 196.679 298.164 197.638 298.324C201.283 298.74 204.96 298.644 208.541 297.972C210.332 297.621 212.026 296.853 213.465 295.733C214.265 295.189 215 294.581 215.671 293.846C216.886 292.374 218.421 291.382 220.02 290.39C225.327 287.095 228.621 282.393 229.804 276.314C230.667 271.899 230.891 267.421 229.836 262.974C229.036 259.327 227.406 255.936 225.072 252.993C224.56 252.417 224.272 251.681 224.208 250.913C223.953 248.066 222.833 245.411 220.979 243.235C220.18 242.243 219.22 241.412 218.165 240.708C217.59 240.388 217.238 239.748 217.334 239.076C217.43 236.325 217.494 233.574 217.462 230.823C217.43 227.943 217.174 225.096 216.982 222.249C216.663 218.09 216.087 213.931 215.448 209.804C214.744 205.261 213.913 200.751 212.826 196.272C212.506 195.056 212.57 193.808 212.922 192.593C214.84 186.195 216.087 179.572 216.599 172.918C217.142 166.2 216.918 159.418 215.991 152.732C213.401 133.761 205.728 117.029 193.194 102.409C192.427 101.481 191.595 100.586 190.796 99.7218C190.38 99.3379 190.316 98.7301 190.572 98.2502C191.308 96.6186 191.915 94.9231 192.65 93.2915C193.737 90.8922 193.514 88.5248 192.491 86.1894C191.787 84.5899 190.86 83.1183 189.741 81.7746C188.27 79.9191 186.639 78.2236 184.881 76.688C184.433 76.3041 183.986 75.8562 183.538 75.4723C181.875 74.3526 180.277 73.169 178.774 71.8893C177.847 71.3135 176.919 70.7696 176.024 70.1618C174.841 69.394 174.841 69.394 175.449 68.2103C175.513 68.0503 175.608 67.8904 175.704 67.7304C175.8 67.5385 176.056 67.4425 176.248 67.5385C176.312 67.5705 176.376 67.6344 176.44 67.6984C177.335 68.9781 178.294 70.1938 179.317 71.3774C180.916 72.7211 182.611 73.9367 184.401 75.0245C185.041 75.2484 185.648 75.5043 186.288 75.7283C190.284 77.1359 194.217 76.688 198.022 75.0564C200.612 73.9367 202.466 71.9533 203.841 69.5539C206.079 65.555 206.495 61.3001 205.6 56.8853C204.832 53.0784 202.914 49.6233 200.068 46.968C199.94 46.84 199.812 46.7121 199.685 46.6161C199.557 46.5201 199.461 46.2962 199.557 46.1682C199.685 46.0403 199.844 45.9443 200.004 45.9123C200.356 45.8483 200.74 45.8483 201.091 45.8163C204.609 45.6244 208.158 46.0083 211.547 47C211.899 47.096 212.314 47.16 212.474 47.5119C212.762 48.2797 213.433 48.3756 214.073 48.4716C214.648 48.5356 215.064 48.9835 215.096 49.5593C215.128 49.7832 215.16 50.0392 215.16 50.2631C214.936 53.3983 214.456 56.4375 212.442 59.0288C212.282 59.2207 212.186 59.4446 212.09 59.6686C211.93 60.0205 212.058 60.4364 212.378 60.6283C212.762 60.9162 213.273 61.0442 213.753 60.9802C214.36 60.9482 214.968 60.8203 215.575 60.7883C217.973 60.6603 220.34 60.9482 222.482 62.0999C225.999 63.9874 227.63 67.0586 227.885 70.8976C228.141 74.4486 227.054 77.7437 225.391 80.8469C224.336 82.9263 222.865 84.8138 221.107 86.3494C220.18 87.1172 219.38 88.0129 218.517 88.8767C218.197 89.1326 217.942 89.5165 217.846 89.9004C217.782 90.1244 217.846 90.3803 218.005 90.5723C218.197 90.7962 218.517 90.9242 218.837 90.8282C219.061 90.7642 219.284 90.6682 219.476 90.5083C220.691 89.3566 222.066 88.3329 223.249 87.1492C225.807 84.6219 228.845 82.6704 232.234 81.4227C233.896 80.7829 235.655 80.463 237.413 80.495C240.003 80.495 242.465 81.5187 244.288 83.3742C246.366 85.4216 247.549 87.981 248.284 90.7322C249.084 93.6754 249.563 96.6826 249.34 99.7538C249.244 100.65 249.404 101.545 249.723 102.377C249.787 102.537 249.883 102.729 250.107 102.665C250.267 102.633 250.427 102.537 250.555 102.409C250.874 101.769 251.066 101.065 251.13 100.362C251.386 98.826 251.61 97.2904 251.898 95.7869C252.377 93.5155 252.953 91.2441 254.168 89.1966C254.647 88.3649 255.223 87.5651 255.894 86.8933C257.941 84.8778 260.243 84.4299 262.896 85.5816C264.047 86.0935 265.135 86.8293 266.062 87.693C267.117 88.6208 268.076 89.6125 268.939 90.6682C269.131 90.8922 269.323 91.1161 269.547 91.3081C269.803 91.5 270.154 91.5 270.41 91.3401C270.73 91.1161 270.986 90.8282 270.826 90.4443C270.666 90.0604 270.474 89.7085 270.218 89.3566C268.556 86.6373 267.788 83.4702 267.98 80.271C268.3 75.0564 272.009 71.0255 277.572 70.0658C279.235 69.7139 280.962 69.6819 282.656 69.9698C283.232 70.0978 283.967 70.3537 284.447 69.6499C284.191 68.9781 283.519 68.9461 282.976 68.7221C280.066 67.6664 277.349 66.1948 274.823 64.3713C273.767 63.6355 272.872 62.7398 272.201 61.684C271.114 59.9565 271.369 58.5489 272.936 57.2692C273.799 56.5974 274.759 56.0856 275.814 55.7017C277.508 55.0618 279.299 54.6139 281.121 54.39C283.775 54.0701 286.429 53.7502 289.115 54.294C289.786 54.39 290.458 54.454 291.129 54.454C292.504 54.582 292.952 54.0061 293.048 53.2703C292.856 52.6305 292.216 52.1186 291.065 52.0226ZM140.725 87.661C141.812 84.8778 142.835 82.0945 143.891 79.2793C143.955 79.0874 144.114 78.9594 144.306 78.9914C144.786 79.4713 145.265 80.0151 145.841 80.463C146.417 80.9109 146.417 81.4227 146.161 82.0306C145.042 84.6539 143.923 87.3091 142.804 89.9324C142.708 90.0924 142.612 90.2204 142.484 90.3163C141.908 90.1564 141.62 89.6445 141.173 89.3566C140.501 88.9087 140.437 88.3968 140.725 87.661ZM4.06996 254.08C4.3897 253.248 4.67746 252.385 4.90127 251.521C5.15706 250.593 5.50877 249.697 5.9564 248.866C6.21219 248.322 6.59587 247.842 7.07548 247.49C8.83403 246.114 10.6885 244.835 12.5749 243.683C13.2784 243.267 13.3743 243.267 13.9498 243.907C16.092 246.21 18.522 248.226 21.1758 249.889C21.4636 250.017 21.6874 250.305 21.6874 250.625C21.016 250.561 20.4404 250.497 19.833 250.465C18.618 250.401 17.403 250.337 16.188 250.305C15.3247 250.273 14.4934 250.497 13.726 250.881C13.2784 251.073 13.0545 251.617 13.2784 252.065C13.3423 252.225 13.4702 252.385 13.662 252.481C13.758 252.545 13.8859 252.609 13.9818 252.673C16.3159 253.728 18.7139 254.528 21.3677 254.336C22.3269 254.272 23.3181 254.24 24.2773 254.208C25.3644 254.144 26.4515 254.432 27.3787 255.04C29.9366 256.768 31.855 259.039 32.9102 261.95C33.3898 263.326 33.3258 264.829 32.7183 266.141C32.4945 266.685 32.3346 266.781 31.7591 266.621C28.8495 265.789 25.844 265.213 22.8385 264.925C20.3765 264.637 17.8826 264.413 15.4526 263.87C12.3831 263.166 9.56942 262.014 7.13942 259.999C5.89245 258.975 4.8693 257.663 4.19785 256.16C3.84614 255.488 3.81417 254.752 4.06996 254.08ZM12.0953 277.274C11.5518 277.242 11.0402 277.05 10.5606 276.762C9.56942 276.09 8.57824 275.355 7.651 274.587C6.37206 273.467 5.4768 271.995 5.09311 270.364C4.48562 267.901 4.58153 265.437 4.58153 262.974C4.7414 262.91 4.83733 262.846 4.8693 262.878C6.27614 263.582 7.651 264.317 9.05784 265.021C9.12179 265.053 9.15377 265.085 9.18574 265.149C9.31363 265.277 9.40955 265.437 9.31363 265.629C9.15376 265.949 8.96192 266.269 8.80205 266.589C7.97074 268.284 7.7789 270.14 7.74693 271.995C7.68298 272.443 8.00271 272.827 8.41837 272.923C8.866 272.987 9.28166 272.731 9.40955 272.315C9.63337 271.708 9.79323 271.068 10.0171 270.46C10.4007 269.212 10.9123 267.965 11.4878 266.813C11.8715 266.109 12.0634 265.981 12.7668 266.173C14.3974 266.653 16.124 266.813 17.7866 267.101C18.6819 267.261 19.5772 267.357 20.5044 267.485C21.4956 267.645 21.7514 267.485 21.6874 268.828C21.6874 269.372 21.6235 269.916 21.4956 270.428C20.952 272.603 19.6411 274.299 17.8506 275.642C16.2519 276.89 14.1736 277.498 12.0953 277.274ZM32.0469 278.33C30.736 279.417 29.1692 280.153 27.5066 280.473C24.1814 281.177 20.984 280.537 17.8506 279.513C17.7227 279.449 17.5948 279.289 17.403 279.13C17.7227 278.97 17.9785 278.81 18.2343 278.682C19.3853 278.106 20.4085 277.37 21.3037 276.474C23.3501 274.363 24.5331 271.867 24.565 268.924C24.565 268.348 24.7569 268.22 25.3644 268.348C25.5562 268.38 25.7161 268.476 25.876 268.508C27.4427 268.796 28.9774 269.084 30.5761 269.02C31.9829 268.956 33.2299 268.7 33.9973 267.357C34.0612 267.229 34.1891 267.037 34.5728 267.229C34.381 269.052 34.6367 270.94 34.6048 272.827C34.6367 274.971 33.6775 276.986 32.0469 278.33ZM53.2774 267.357C52.8617 269.18 52.0304 270.876 50.8793 272.315C49.2167 274.459 47.1065 275.77 44.2928 275.994C43.0138 276.058 41.7669 276.026 40.4879 275.866C39.9124 275.898 39.4328 275.482 39.4008 274.907C38.8253 272.411 38.5695 269.852 38.6974 267.261C38.7613 265.949 39.0811 264.637 39.6246 263.454C40.392 261.758 41.543 260.415 43.3336 259.679C44.9962 259.039 46.467 259.519 47.3942 261.054C48.0017 261.95 48.2255 263.07 47.9697 264.126C47.5861 265.949 47.3622 267.773 47.2983 269.628C47.2663 270.108 47.2983 270.588 47.2983 271.068C47.2983 271.388 47.4901 271.644 47.7779 271.771C48.1296 271.931 48.5133 271.803 48.7691 271.516C49.2807 271.004 49.6004 270.332 49.6963 269.596C50.2079 266.845 50.5276 264.062 49.9521 261.246C49.1847 257.503 45.5717 255.712 41.9907 257.279C39.9124 258.207 38.4736 259.775 37.4184 261.726C37.1307 262.238 37.0667 262.878 36.5552 263.262C36.2354 262.974 35.9157 262.686 35.564 262.462C35.2762 262.27 35.0524 261.95 34.9885 261.598C34.4129 259.039 33.102 256.832 31.5673 254.72C31.4074 254.496 31.0877 254.336 31.3435 253.888C34.3809 254.496 37.4824 254.496 40.5199 253.952C43.6533 253.376 46.5629 252.033 49.0249 250.017C53.1814 255.328 54.7481 260.99 53.2774 267.357ZM46.0833 240.9C47.2343 242.435 48.2895 244.803 48.4813 246.466C48.6732 248.002 48.6732 247.81 47.5221 248.45C42.79 251.201 37.7062 251.777 32.3986 250.593C26.4195 249.25 21.3677 246.274 16.9234 242.243C16.5077 241.892 16.2839 241.38 16.3478 240.836C16.4437 238.436 17.1152 236.101 18.2662 233.99C18.522 233.574 18.8098 233.19 19.1295 232.838C19.3533 232.582 19.6091 232.294 20.1207 232.39C20.3765 233.254 20.6323 234.182 20.952 235.333C20.4085 235.205 20.1207 235.109 19.801 235.077C19.4493 234.981 19.0656 235.141 18.8418 235.429C18.6499 235.749 18.7139 236.165 19.0016 236.389C19.4812 236.901 20.0248 237.381 20.6323 237.829C23.7977 240.068 27.2828 241.828 30.9598 243.043C34.1891 244.035 37.4824 244.451 40.8396 243.715C42.8859 243.331 44.7404 242.563 46.0833 240.9ZM42.8859 237.541C43.8451 238.085 44.6125 238.82 45.5397 240.004C44.3887 239.94 43.7173 240.356 42.9499 240.452C42.6941 240.484 42.4383 240.356 42.4063 240.1C42.3744 239.332 42.3424 238.564 42.3424 237.797C42.3744 237.605 42.5342 237.477 42.7261 237.509C42.79 237.509 42.854 237.509 42.8859 237.541ZM61.5266 309.105C62.0701 308.53 62.6456 308.018 63.1572 307.442C67.6975 302.227 72.2057 297.013 76.714 291.766C77.8331 290.39 79.3678 289.463 81.0944 289.079C81.1903 289.015 81.2543 288.887 81.3822 288.855C84.1639 287.927 87.1374 287.767 90.015 288.311C91.1341 288.535 92.2532 288.919 93.2764 289.463C95.4186 290.518 97.0493 292.342 97.9445 294.549C98.1683 294.997 98.0404 295.509 97.6248 295.797C95.5785 297.78 93.5961 299.764 91.5818 301.779C88.7041 304.691 85.8265 307.602 82.9489 310.545C82.0216 311.473 81.1903 312.497 80.2631 313.52L77.961 312.049C77.7692 312.017 77.6093 311.953 77.4494 311.889C72.4296 309.649 67.2498 308.913 61.8143 310.001C61.5266 310.065 61.2388 310.161 60.983 309.937C60.951 309.553 61.3027 309.361 61.5266 309.105ZM88.6082 269.436C88.5762 269.596 88.4164 269.724 88.2565 269.724C88.1926 269.724 88.1606 269.692 88.1286 269.66C87.1374 268.828 86.1143 267.997 85.3789 266.877C84.7714 266.493 84.8673 265.853 84.8673 265.277C84.8993 262.91 84.9632 260.511 84.9952 258.143C85.0272 255.808 84.8033 255.968 87.1374 256.8C87.2653 256.832 87.3612 256.895 87.4891 256.895C88.0007 256.959 88.3524 257.407 88.2885 257.919C88.2885 259.359 88.3205 260.766 88.3205 262.206C88.3844 262.494 88.4483 262.782 88.4483 263.07C88.6722 265.181 88.5123 267.325 88.6082 269.436ZM85.0272 270.364C85.3149 270.588 85.6027 270.812 85.8585 271.068C87.2973 272.379 88.8001 273.563 90.3668 274.683C91.1981 275.259 92.1893 275.642 92.8287 276.474C92.7648 277.498 92.7328 278.49 92.6689 279.513C92.6049 280.761 92.509 282.009 92.477 283.256C92.477 283.8 92.541 284.344 92.6369 284.856C92.7328 285.304 93.0845 285.368 93.5961 285.048C93.692 284.984 93.7879 284.888 93.8519 284.792C93.9798 284.216 94.1397 283.64 94.2675 283.064C94.4274 281.369 94.5873 279.641 94.7791 277.946C94.8111 277.498 95.0669 277.402 95.5465 277.562C96.6975 277.946 97.8166 278.426 98.9677 278.746C100.726 279.225 102.549 279.481 104.371 279.449C105.266 279.449 105.394 279.545 105.426 280.313C105.49 282.329 105.714 284.344 105.554 286.36C105.682 287.479 105.81 288.567 105.906 289.655C105.938 290.422 106.13 291.158 106.449 291.83C106.545 291.958 106.705 292.054 106.865 292.054C107.025 292.054 107.185 291.958 107.281 291.798C107.441 291.318 107.569 290.774 107.696 290.295C107.728 288.919 107.76 287.575 107.76 286.2C107.76 284.184 107.792 282.169 107.76 280.153C107.76 279.161 107.824 279.002 108.72 278.746C111.278 278.01 113.58 276.57 115.402 274.619C115.594 274.427 115.754 274.139 116.169 274.331C116.233 275.419 116.361 276.57 116.393 277.69C116.457 279.066 116.649 280.409 116.521 281.785C116.809 283.576 117.129 289.207 117.001 290.326C116.905 290.39 116.777 290.422 116.681 290.454C113.995 291.03 111.501 292.246 109.423 294.005C107.345 295.701 104.819 296.053 102.197 295.317C100.982 295.061 100.023 294.133 99.7031 292.95C98.9037 290.39 97.2411 288.471 95.0029 286.999C94.3954 286.615 93.756 286.264 93.1485 285.88C92.9566 285.88 92.7968 285.848 92.6049 285.784C90.3668 284.824 88.0327 284.6 85.6347 284.696C83.8761 284.76 83.9081 284.888 83.972 283.128C84.1319 279.002 84.3237 274.907 84.4836 270.78C84.4836 270.652 84.4836 270.556 84.5476 270.428C84.6755 270.364 84.8033 270.236 85.0272 270.364ZM129.822 298.228C130.686 299.06 131.389 300.02 131.964 301.076C132.124 301.332 132.124 301.651 131.901 301.875C131.741 302.035 131.549 302.195 131.389 302.387C126.241 307.602 121.093 312.784 116.233 318.287C116.042 318.607 115.754 318.831 115.402 318.959C114.891 318.767 114.443 318.447 114.123 318.031L111.821 316.591C107.537 313.872 102.932 312.241 97.7207 312.529C97.4969 312.529 97.2091 312.624 97.1132 312.209C97.4649 311.825 97.8486 311.377 98.2642 310.929C102.389 306.546 106.545 302.227 110.35 297.557C111.981 295.573 114.315 294.261 116.873 293.974C117.161 293.782 117.544 293.654 117.896 293.686C122.628 293.27 126.561 294.933 129.822 298.228ZM119.495 262.334C120.646 262.302 121.797 262.27 122.948 262.27C123.523 262.27 123.651 262.398 123.715 263.006C123.939 265.629 124.099 268.22 124.323 270.844C124.419 272.251 124.579 273.659 124.706 275.387C122.884 274.619 121.285 273.467 119.974 272.027C119.655 271.676 119.687 271.26 119.623 270.844L119.047 264.989C118.983 264.349 118.919 263.678 118.887 263.038C118.855 262.558 119.015 262.366 119.495 262.334ZM92.3811 312.337C89.9191 314.544 87.7449 317.007 85.251 319.567C84.5476 317.839 83.4924 316.463 82.2455 315.088C83.3326 314.064 84.3237 313.2 85.251 312.241C89.6633 307.73 94.0757 303.219 98.4881 298.676C98.8078 298.324 99.1595 298.004 99.5112 297.653C99.6711 297.461 99.9589 297.429 100.183 297.589C101.302 298.324 102.613 298.708 103.956 298.772C104.307 298.804 104.403 299.092 104.147 299.412C103.252 300.468 102.325 301.491 101.398 302.515C98.4241 305.81 95.7383 309.329 92.3811 312.337ZM77.6413 333.387C77.1936 333.611 76.746 333.771 76.2984 333.963C74.316 334.763 72.1738 335.05 70.0635 335.21C65.9389 335.498 61.7823 335.242 57.7217 334.411C54.7481 333.803 51.8385 332.939 49.1208 331.531C48.3534 331.18 47.682 330.636 47.1384 329.996C47.0105 329.804 46.7867 329.58 46.7867 329.388C46.8187 328.396 46.5629 327.373 47.0745 326.413C47.2663 324.077 48.3214 322.062 49.6963 320.238C51.9664 317.167 55.0359 315.056 58.617 313.68C62.7735 312.017 67.1219 311.761 71.5343 312.465C73.4527 312.752 75.3711 313.168 76.8739 314.512C79.208 315.792 81.1584 317.647 82.5332 319.919C82.6931 320.174 82.821 320.462 82.9169 320.718C83.3006 321.614 83.2366 322.606 82.6931 323.438C81.2223 325.837 80.1352 328.46 79.4318 331.179C79.3039 332.107 78.6005 332.971 77.6413 333.387ZM118.344 339.529C117.289 340.137 116.169 340.617 115.018 340.969C112.333 341.737 109.551 342.153 106.769 342.281C101.781 342.536 96.7935 342.153 91.9015 341.129C88.5123 340.425 85.187 339.497 82.1176 337.834C80.2311 336.81 80.1032 337.13 81.1264 334.891C81.1264 334.667 81.1584 334.411 81.2223 334.187C81.9897 331.659 82.9489 329.228 84.0999 326.861C85.1551 324.685 86.498 322.702 88.1286 320.942C90.5586 318.383 93.5321 316.687 97.0812 316.24C100.183 315.856 103.124 316.463 105.97 317.679C107.473 318.319 109.007 318.895 110.126 320.142C112.237 321.55 113.963 323.438 115.178 325.677C117.48 329.644 118.28 334.059 118.919 338.474C118.983 338.921 118.727 339.369 118.344 339.529ZM164.961 287.223C164.801 286.839 164.386 286.679 164.002 286.839C163.906 286.871 163.842 286.935 163.746 286.999C163.363 287.383 163.267 288.055 162.691 288.343C161.732 286.615 160.837 283.8 160.805 282.617C160.996 282.585 161.156 282.585 161.348 282.617C167.231 284.216 171.068 292.086 166.976 297.493C166.88 297.653 166.752 297.78 166.656 297.908C166.432 298.196 166.4 298.612 166.592 298.932C166.784 299.22 167.231 299.284 167.743 299.092C168.031 298.996 168.286 298.836 168.542 298.708C168.83 299.188 168.99 299.732 169.118 300.276C170.173 304.563 171.42 308.818 172.923 312.976C173.498 314.48 174.106 315.984 174.681 317.487C174.937 318.159 175.257 318.831 175.065 319.567C174.681 321.134 173.882 322.51 172.475 323.31C171.324 323.981 170.109 324.525 168.798 324.877C164.226 326.093 159.686 327.404 155.081 328.62C144.114 331.499 133.147 334.507 122.308 337.866C122.021 337.962 121.733 338.122 121.445 337.994C121.285 337.802 121.253 337.578 121.285 337.354C121.381 335.562 121.125 333.771 120.902 332.011C120.806 331.307 120.486 330.636 120.582 329.9C119.655 327.309 118.727 324.717 116.937 322.51C117.225 322.19 117.448 321.902 117.704 321.646C123.332 315.856 128.575 309.745 133.819 303.603C134.33 302.995 134.778 302.611 135.641 302.899C136.153 303.059 136.697 303.123 137.272 303.123C139.99 303.347 142.74 303.251 145.457 302.803C152.108 301.651 157.991 299.028 162.499 293.942C162.499 293.686 162.659 293.43 162.915 293.334L162.947 293.27C162.915 293.11 163.011 292.918 163.171 292.886H163.203C163.171 292.566 163.426 292.342 163.522 292.086C164.002 291.062 164.482 290.039 164.897 288.983C165.185 288.407 165.185 287.767 164.961 287.223ZM153.451 274.971C153.834 274.651 154.09 274.747 154.25 275.259C154.538 276.218 155.017 277.146 155.017 278.17C156.009 280.665 156.648 283.288 157.511 285.816C158.247 287.959 158.598 290.231 159.558 292.278C159.686 292.566 159.59 292.886 159.334 293.078C158.726 293.558 158.119 294.069 157.479 294.517C154.953 296.181 152.14 297.429 149.23 298.228C144.626 299.476 139.894 299.764 135.13 299.892H134.938C134.554 299.924 134.203 299.732 134.043 299.38C133.531 298.484 133.02 297.621 132.508 296.757C132.316 296.597 132.156 296.469 131.964 296.277C130.781 294.901 129.407 293.718 127.84 292.822C126.113 291.83 124.227 291.094 122.244 290.742C121.125 290.518 121.125 290.486 121.029 289.335C120.774 286.296 120.55 283.288 120.326 280.249C120.23 278.938 120.166 277.658 120.07 276.314C120.646 276.346 120.997 276.666 121.413 276.954C122.468 277.658 123.587 278.266 124.77 278.778C126.273 279.417 127.84 279.929 129.439 280.313C130.142 280.473 130.238 280.601 130.27 281.273C130.366 282.872 130.398 284.472 130.526 286.104C130.622 287.351 130.749 288.599 130.909 289.847C130.973 290.518 131.197 291.126 131.613 291.638C132.348 291.542 132.604 291.03 132.668 290.39C132.796 288.919 132.956 287.447 133.084 285.976C132.828 284.92 132.956 283.832 132.86 282.777C132.828 282.361 132.828 281.945 132.828 281.529C132.796 281.241 133.02 280.985 133.307 280.953H134.267C137.176 281.081 140.118 280.761 142.931 280.057C143.155 279.993 143.411 279.961 143.635 279.897C143.923 279.801 144.242 279.993 144.306 280.281V280.313C144.722 281.849 145.202 283.384 145.425 284.984C145.553 285.304 145.681 285.656 145.777 286.008C146.257 287.607 146.704 289.207 147.216 290.806C147.376 291.318 147.6 291.798 147.855 292.278C148.079 292.662 148.527 292.854 148.942 292.726C149.294 292.598 149.518 292.278 149.518 291.894C149.486 291.126 149.422 290.358 149.326 289.591C149.038 287.959 148.719 286.328 148.399 284.696C147.727 282.968 147.504 281.113 147.056 279.321C146.96 278.906 147.184 278.682 147.568 278.522C149.614 277.53 151.628 276.378 153.451 274.971ZM223.697 256.768C224.176 258.015 224.592 259.135 224.976 260.255C225.903 262.91 226.67 265.597 226.862 268.444C227.022 271.26 226.862 274.075 226.415 276.826C226.287 278.01 226.031 279.193 225.647 280.313C224.688 282.968 223.089 285.368 221.043 287.319C220.915 287.639 220.691 287.927 220.403 288.119C220.276 288.215 220.116 288.311 219.956 288.215C219.892 288.119 219.86 287.991 219.892 287.895C220.084 287.415 220.18 286.903 220.595 286.552C221.714 283.832 222.098 280.889 221.746 277.978C221.65 276.73 221.395 275.514 220.979 274.331C220.787 273.851 220.308 273.595 219.828 273.627C219.348 273.691 218.965 274.107 218.933 274.619C218.901 275.323 218.901 276.058 218.933 276.762C219.061 279.929 218.485 283.096 217.27 286.008C215.991 289.079 214.265 291.83 211.643 294.005C210.3 295.157 208.701 295.925 206.975 296.277C205.312 296.597 203.617 296.725 201.923 296.661C201.667 296.661 201.315 296.725 201.219 296.181C202.147 295.605 202.85 294.709 203.713 294.005L203.745 293.974C203.713 293.782 203.873 293.59 204.065 293.558C204.225 293.302 204.353 293.046 204.513 292.79C207.102 288.631 207.582 284.216 206.303 279.545C206.207 279.129 206.047 278.746 205.824 278.394C205.632 278.138 205.312 278.042 204.992 278.17C204.736 278.234 204.577 278.458 204.577 278.682V280.121C204.577 281.209 204.64 282.265 204.545 283.352C204.289 286.2 203.521 288.887 201.603 291.094C199.685 293.302 197.223 294.485 194.217 294.229C189.933 293.846 185.712 290.486 184.209 286.392C184.401 286.104 184.721 286.104 185.009 286.04C186.256 285.784 187.407 285.176 188.334 284.28C190.061 282.681 191.148 280.473 191.307 278.138C191.435 277.018 191.244 275.866 190.796 274.811C190.668 274.555 190.508 274.299 190.284 274.107C189.965 273.851 189.517 273.883 189.261 274.203C189.229 274.235 189.229 274.267 189.197 274.299C189.037 274.555 189.005 274.875 189.037 275.163C189.069 275.802 189.261 276.474 188.941 277.082C188.814 279.545 187.471 281.209 185.264 282.169C183.506 282.968 182.163 282.329 181.492 280.601C180.564 278.202 179.829 275.738 179.253 273.243C178.774 271.26 178.806 269.18 179.349 267.229C179.893 265.341 180.468 263.454 181.076 261.566C181.14 261.31 181.204 260.99 181.651 260.958C182.067 261.598 182.451 262.27 182.898 262.878C185.009 265.789 187.854 267.773 191.212 269.02C196.391 270.972 201.667 271.068 206.975 269.82C208.158 269.532 209.309 269.212 210.492 268.924C210.588 268.828 210.684 268.764 210.779 268.7C214.552 267.325 217.814 265.213 220.403 262.142C220.947 261.278 221.459 260.415 222.066 259.583C222.674 258.751 222.802 257.599 223.697 256.768ZM214.073 253.824C215.639 252.929 217.046 251.745 218.229 250.369C218.805 249.665 219.284 248.93 219.796 248.194C219.828 247.97 219.828 247.714 219.828 247.49C219.7 246.786 218.997 246.466 218.485 246.914C217.973 247.362 217.558 247.842 217.11 248.322C216.918 248.514 216.695 248.738 216.311 248.578C216.535 246.818 216.758 245.059 217.014 243.299C217.014 243.235 217.078 243.203 217.11 243.171C217.206 243.139 217.302 243.107 217.43 243.107C218.773 244.451 220.18 245.858 220.691 247.842C220.915 248.034 221.011 248.322 220.947 248.578C221.682 250.081 221.682 251.681 221.459 253.28C221.107 255.968 219.892 258.495 218.005 260.447C215.192 263.55 211.579 265.853 207.614 267.133C204.385 268.156 201.059 268.38 197.702 268.156C195.464 267.997 193.258 267.453 191.18 266.557C189.165 265.757 187.311 264.509 185.808 262.91C183.026 259.871 181.875 256.384 182.898 252.321C183.474 250.049 184.657 247.97 186.288 246.274C186.416 246.146 186.543 246.018 186.767 246.082C186.991 246.146 186.991 246.338 186.991 246.53C187.023 247.778 187.023 249.026 187.023 250.273C187.023 250.433 186.991 250.657 186.735 250.657C186.607 250.657 186.511 250.593 186.448 250.497C186.32 250.305 186.224 250.081 186.096 249.889C185.936 249.601 185.648 249.473 185.328 249.537C185.041 249.633 184.817 249.857 184.753 250.177C184.561 250.881 184.689 251.617 185.105 252.225C185.712 253.057 186.448 253.792 187.311 254.368C189.101 255.616 191.116 256.512 193.258 257.023C194.185 257.279 195.112 257.503 196.072 257.727C196.967 257.759 197.894 257.791 198.789 257.855C204.321 258.079 209.373 256.576 214.073 253.824ZM207.966 137.92C210.14 144.894 211.451 152.092 211.898 159.354C212.314 166.2 211.994 173.078 210.939 179.892C210.428 183.315 209.5 186.674 208.701 190.033C208.605 190.513 208.477 190.961 208.349 191.409C206.943 196.112 205.152 200.687 203.042 205.101C197.734 216.202 190.252 226.12 181.012 234.214C160.901 251.937 134.171 260.159 107.601 256.736C102.229 256.064 96.9533 254.88 91.8056 253.152C79.2719 248.866 68.241 242.147 58.521 233.286C58.2013 232.998 57.8176 232.774 57.7217 232.358C57.5618 232.262 57.4339 232.166 57.2741 232.038C51.5508 226.6 46.5629 220.457 42.3424 213.803C39.8165 209.804 37.6103 205.613 35.7878 201.23C33.8054 196.624 32.2067 191.857 30.9278 186.994C30.6081 185.715 30.4162 184.435 30.1604 183.155C29.425 179.476 28.9135 175.733 28.6577 171.99C28.274 166.52 28.4019 161.017 29.0094 155.547C29.6808 149.436 30.9598 143.39 32.8462 137.536C38.4736 120.26 48.3534 105.8 62.6776 94.2833C75.9467 83.6301 91.9015 76.88 108.784 74.7685C110.766 74.5126 112.748 74.1927 114.795 74.2887C115.082 74.1927 115.37 74.1607 115.658 74.1287C117.896 74.0967 120.166 74.0327 122.404 74.0327C126.049 74.0967 129.694 74.3846 133.307 74.8965C134.011 74.9925 134.139 75.2164 133.883 75.8562C133.627 76.4961 133.179 77.1039 133.084 77.8397C132.764 79.9511 132.86 81.9986 133.851 83.95C134.299 84.8778 134.778 85.7416 135.322 86.6053C137.528 89.9964 140.246 93.0036 143.443 95.4989C147.536 98.7301 151.916 101.545 156.552 103.913C161.796 106.536 167.231 108.551 173.083 109.383C176.056 109.799 179.03 109.927 181.971 109.191C184.721 108.519 186.895 107.144 187.758 104.329C187.822 104.073 187.918 103.753 188.302 103.721C188.814 103.977 189.101 104.457 189.453 104.84C197.894 114.502 204.161 125.763 207.966 137.92ZM153.802 97.6743L155.817 92.1078C156.137 91.2121 156.424 90.2843 156.712 89.3886C156.776 89.2606 156.872 89.1327 156.968 89.0047C157.447 88.9407 157.703 89.2286 158.023 89.3886C162.403 91.9799 167.071 94.0273 171.931 95.5309C172.091 95.5949 172.283 95.5949 172.443 95.6909C172.731 95.7549 172.891 96.0428 172.795 96.2987C172.795 96.3307 172.763 96.3627 172.763 96.3947C171.74 99.114 170.557 101.801 169.725 104.616C169.661 104.904 169.406 105.064 169.15 105.032C169.118 105.032 169.086 105 169.054 105C167.967 104.68 166.848 104.361 165.761 103.977C164.162 103.401 162.627 102.665 161.028 102.089C158.598 101.257 156.424 99.9457 154.154 98.826C153.579 98.5381 153.547 98.3782 153.802 97.6743ZM179.509 75.8242C181.747 77.4878 183.794 79.3753 185.648 81.4227C187.375 83.3742 188.909 85.4216 189.773 87.917C190.029 88.6528 190.188 89.4206 190.156 90.1884C190.156 91.2441 189.645 92.2038 188.782 92.7797C188.27 93.1316 187.726 93.3875 187.151 93.5795C185.776 94.0273 184.401 93.9634 182.994 93.9634C180.788 93.9953 178.646 93.5155 176.504 93.0676C173.818 92.5557 171.228 91.724 168.734 90.5723C167.359 90.3163 166.144 89.6445 164.897 89.1007C162.691 88.1729 160.581 87.0852 158.566 85.8375C158.183 85.6456 157.799 85.4856 157.447 85.2937C154.698 83.7261 152.14 81.9666 149.55 80.1431C146.608 78.0316 144.146 75.3444 142.324 72.2092C141.78 71.2815 141.205 70.3537 141.141 69.234C140.693 68.1463 140.565 67.0586 141.173 65.9709C141.908 64.5953 142.068 64.4673 143.379 64.1474C143.475 64.5953 143.219 64.9152 143.027 65.2671C142.804 67.1546 143.091 69.0421 143.827 70.7696V70.9296C143.923 70.9935 143.987 71.0895 144.05 71.1855C146.225 75.2164 149.486 78.2236 153.291 80.7509C153.323 80.7509 153.355 80.7509 153.419 80.7829C153.834 80.9748 154.282 81.1668 154.698 81.3587C154.506 81.1028 154.378 80.8469 154.25 80.559C153.483 79.5992 152.651 78.7355 151.756 77.9037C150.733 76.88 149.87 75.7283 149.102 74.4806C148.335 73.2329 148.015 71.7933 148.143 70.3537C148.175 69.266 148.783 68.2423 149.742 67.6984C150.637 67.1546 151.628 66.8347 152.651 66.7387C155.209 66.5147 157.767 66.6747 160.261 67.2505C160.933 67.4105 161.092 67.6024 160.965 68.2423C160.709 69.6499 160.421 71.0575 160.133 72.4651C160.101 72.7531 159.845 72.977 159.526 72.945H159.494C158.758 72.881 158.055 72.7531 157.32 72.7211C155.657 72.6571 154.698 73.6808 155.657 75.3764C156.36 76.56 157.256 77.6477 158.311 78.5435C161.06 81.0388 164.13 83.1183 167.423 84.7498C169.757 85.9335 172.155 86.9572 174.713 87.5011C175.289 87.661 175.896 87.725 176.536 87.693C178.198 87.5651 179.094 86.0615 178.454 84.5899C178.166 83.918 177.719 83.3422 177.207 82.8303C176.504 82.1905 175.768 81.5507 175.033 80.9429C174.425 80.463 173.786 79.9831 173.146 79.5352C172.795 79.3113 172.603 78.8954 172.667 78.4475C172.827 76.784 173.114 75.1204 173.594 73.5209C173.69 73.2009 173.626 72.7851 174.17 72.5931C175.896 73.6168 177.815 74.5446 179.509 75.8242ZM158.79 76.1761C158.982 76.3361 159.174 76.624 159.43 76.592C159.206 76.624 158.982 76.3361 158.79 76.1761ZM173.146 82.7024C173.019 82.6384 172.827 82.6704 172.763 82.8303C172.763 82.8623 172.731 82.8943 172.731 82.9263C172.635 83.3102 172.731 83.6941 172.955 84.014C172.731 83.6941 172.667 83.3102 172.731 82.9263C172.763 82.7664 172.923 82.6704 173.051 82.7024C173.083 82.6704 173.115 82.7024 173.146 82.7024C173.882 83.1823 174.585 83.7261 175.065 84.5579C174.905 84.6219 174.777 84.6539 174.585 84.6858C174.745 84.6858 174.905 84.6538 175.065 84.5579C174.585 83.7261 173.882 83.2142 173.146 82.7024ZM174.361 84.6539C174.042 84.5899 173.722 84.4619 173.434 84.3339C173.306 84.302 173.178 84.206 173.051 84.11C173.146 84.206 173.274 84.27 173.434 84.3339C173.722 84.4939 174.042 84.5899 174.361 84.6539ZM192.043 62.9637C190.732 64.5953 188.878 64.9792 186.991 63.9874C184.881 62.8677 183.442 59.9885 183.826 57.6211C183.954 56.6614 184.369 55.7656 185.041 55.0618C185.776 54.326 186.575 53.6862 187.758 53.7822C188.654 53.7502 189.549 54.0061 190.316 54.518C191.979 55.5417 193.034 57.3012 193.13 59.2847C193.258 60.6283 192.874 61.94 192.043 62.9637ZM198.214 50.583C198.086 50.743 197.894 50.743 197.734 50.647C196.295 49.7193 194.729 49.0474 193.066 48.6636C190.124 47.7998 186.927 48.1517 184.241 49.6553C183.09 50.2951 181.971 51.0309 180.884 51.7987C180.596 52.0226 180.277 52.2146 179.989 52.3745C179.701 52.5025 179.381 52.4705 179.158 52.2466C178.902 52.0546 178.87 51.7027 179.03 51.4148C179.158 51.1589 179.317 50.9029 179.541 50.679C180.756 49.3354 182.195 48.1837 183.762 47.3199C185.52 46.4241 187.343 45.8163 189.261 45.9123C191.531 45.9123 193.801 46.5201 195.784 47.6398C196.647 48.1197 197.382 48.7275 197.99 49.4953C198.15 49.6873 198.246 49.8792 198.342 50.1032C198.342 50.2631 198.31 50.4551 198.214 50.583ZM260.434 58.5489C259.891 60.7883 260.626 62.7717 262.001 64.5953C261.362 64.8832 260.85 64.6273 260.339 64.5633C257.909 64.2434 255.862 65.3631 254.903 67.5705C254.583 68.4022 254.359 69.298 254.296 70.1618C254.264 70.4177 254.327 70.7696 253.848 70.8656C253.4 70.3537 252.953 69.7779 252.441 69.266C250.075 66.8986 246.718 65.619 242.753 67.4425C241.57 68.0183 240.451 68.7861 239.492 69.6819C239.268 69.8738 239.108 70.1618 238.692 69.9698V68.3702C238.724 67.3465 238.533 66.3228 238.213 65.363C237.381 62.9637 235.719 61.4921 233.193 60.8523C231.594 60.4684 230.06 60.6283 228.493 61.0442C227.981 61.1722 227.502 61.4921 226.734 61.3961C226.926 60.4044 226.926 59.3807 226.734 58.3889C226.606 57.3972 226.031 56.5334 225.711 55.4777C227.63 55.5417 228.845 54.518 229.9 53.2063C230.955 51.8947 231.658 50.3271 232.01 48.6955C232.713 45.6244 232.17 42.9051 229.868 40.6017C228.525 39.2261 227.054 37.9464 225.487 36.8267C225.263 36.6348 225.04 36.4428 224.816 36.2189C224.784 36.1869 224.848 35.931 224.88 35.931C225.359 35.867 225.839 35.835 226.319 35.771C228.333 35.4831 230.06 34.6833 231.275 33.0518C231.786 32.3799 232.17 31.6121 232.394 30.8124C232.298 30.5564 232.362 30.2685 232.585 30.2365C232.969 30.1725 233.065 30.4604 233.033 30.8124C233.289 30.9403 233.449 31.2282 233.417 31.5162C235.079 34.3634 237.893 36.3469 241.122 36.9867C243.456 37.4666 245.854 37.3706 248.125 36.7308C250.619 36.0909 252.825 34.8433 254.903 33.4037C254.999 33.1157 255.223 32.8918 255.479 32.7958C255.67 32.6998 255.83 32.8278 255.798 33.0518C255.798 33.3397 255.638 33.6276 255.383 33.7556C254.967 35.0032 254.519 36.2509 254.359 37.5625C254.008 40.7937 255.638 43.321 258.74 44.3767C259.667 44.6966 260.626 44.8886 261.586 44.9206C262.033 44.9206 262.513 44.9525 263.248 45.0165C262.705 45.5284 262.129 45.9443 261.458 46.2642C260.466 46.84 259.603 47.5758 258.9 48.5036C257.845 50.0072 258.164 51.3828 259.795 52.2466C260.786 52.7584 261.841 53.0784 262.928 53.2063C263.376 53.2703 263.888 53.1423 264.431 53.6542C262.513 54.8699 260.978 56.3415 260.434 58.5489Z" fill="black"/>
<path d="M162.052 302.227C161.7 302.483 161.38 302.739 161.061 302.995C157.927 305.49 154.282 306.898 150.413 307.858C147.12 308.69 143.795 308.817 140.534 307.73C140.214 307.634 139.894 307.538 139.574 307.506C139.287 307.474 139.031 307.474 138.743 307.538C138.519 308.658 138.551 308.721 139.287 309.137C142.708 311.153 146.321 311.505 150.126 310.545C151.181 310.289 152.204 309.937 153.259 309.617C153.579 309.233 154.09 309.169 154.538 308.977L154.826 308.849C157.671 307.57 160.293 305.97 162.276 303.507C162.435 303.347 162.595 303.155 162.723 302.963C162.883 302.675 163.299 302.387 162.979 302.035C162.659 301.683 162.34 302.035 162.052 302.227ZM137.72 161.369C137.304 160.985 136.857 160.601 136.409 160.249C139.095 152.252 140.15 141.055 135.034 133.537C131.741 128.706 126.209 125.987 120.966 126.595C118.696 126.882 116.553 127.714 114.699 129.058C112.812 130.05 111.118 132.097 109.775 134.336C108.848 135.808 108.112 137.408 107.569 139.039C105.714 144.894 106.514 153.627 106.929 159.194C105.874 159.994 104.947 160.985 104.18 162.073C107.057 160.473 110.191 159.45 113.42 159.002C114.539 158.842 115.658 158.746 116.745 158.682C117.832 158.618 118.887 158.65 119.815 158.65C120.838 158.682 121.893 158.746 122.916 158.842C126.113 159.162 129.247 159.834 132.252 160.889C135.386 161.913 138.263 163.513 140.821 165.592C140.054 163.992 139.031 162.553 137.72 161.369ZM133.212 158.202C130.238 156.666 127.041 155.675 123.715 155.323C123.907 151.868 124.131 148.477 124.163 145.022C121.094 143.71 117.64 142.942 114.443 141.982L121.925 140.159L122.948 139.903C123.076 137.728 123.172 135.552 122.564 133.473C122.245 132.321 121.669 131.265 120.902 130.369C121.062 130.338 121.221 130.306 121.381 130.306C125.25 129.858 129.503 132.001 131.997 135.68C136.185 141.726 135.322 151.388 133.212 158.202ZM82.5334 162.297C82.8531 161.145 83.4606 160.058 84.2599 159.162C85.0273 158.266 85.9865 157.53 87.0736 157.018C87.5852 156.762 88.1607 156.538 88.7363 156.41C89.2798 156.251 89.8553 156.187 90.4628 156.155C91.6778 156.123 92.8928 156.346 94.0439 156.794C96.3779 157.69 98.5841 159.418 99.3835 162.329C99.7672 160.761 99.5433 159.13 98.744 157.754C97.9447 156.315 96.7616 155.099 95.3548 154.235C94.6514 153.787 93.884 153.435 93.0847 153.179C92.669 153.051 92.2853 152.955 91.8377 152.859H91.8057C92.9887 135.808 88.0328 126.563 77.0659 125.379C71.5664 124.771 65.7472 127.458 62.2621 132.225C59.3525 136.224 58.0416 141.566 58.6171 147.261C59.0967 152.156 60.7593 156.698 62.5499 160.953C62.4539 161.049 62.358 161.113 62.2621 161.209C60.5355 162.905 59.4484 165.112 59.0967 167.48C60.7593 165.848 62.326 164.44 64.0846 163.417C65.8112 162.393 67.6337 161.561 69.5521 160.985C71.5025 160.377 73.5168 159.962 75.5631 159.706C76.5863 159.578 77.6414 159.482 78.7285 159.418C79.2721 159.386 79.8156 159.386 80.3592 159.354C80.0714 160.121 79.8796 160.953 79.8156 161.753C79.6557 163.385 79.9435 165.048 80.615 166.552C81.2225 167.991 82.2776 169.207 83.5565 170.071C82.8851 168.823 82.4694 167.448 82.3096 166.04C82.0857 164.824 82.1817 163.545 82.5334 162.297ZM81.5102 157.082L81.2224 157.466C80.9667 155.579 80.3592 153.627 79.9755 151.804C79.8156 151.1 78.8564 144.958 78.4088 144.894C75.0835 144.446 71.5664 144.606 68.2092 144.478L74.9556 140.767L75.8829 140.255C75.4672 138.143 74.9556 135.968 73.8365 134.112C72.8134 132.417 71.1827 131.009 69.2643 130.625C71.4705 129.314 74.0284 128.706 76.5863 128.93C85.411 129.89 89.1839 137.696 88.0648 152.795C87.1376 152.987 86.2423 153.275 85.379 153.691C84.6117 154.075 83.8763 154.555 83.2368 155.099C82.6293 155.739 82.0218 156.378 81.5102 157.082ZM88.7363 204.11C88.7363 195.472 93.7561 188.466 99.959 188.466C101.174 188.466 102.389 188.754 103.476 189.266C102.613 188.306 101.622 187.506 100.471 186.866C95.0031 183.827 89.4716 187.506 86.8818 192.497C83.5885 198.863 83.3007 207.181 85.9226 213.835C87.9049 218.89 92.637 224.36 98.712 222.409C100.79 221.737 102.613 220.457 103.956 218.73C102.741 219.402 101.366 219.721 99.991 219.753C93.7561 219.753 88.7363 212.747 88.7363 204.11Z" fill="black"/>
<path d="M98.3598 215.595C101.909 215.595 104.787 210.539 104.787 204.302C104.787 198.065 101.909 193.009 98.3598 193.009C94.8104 193.009 91.9331 198.065 91.9331 204.302C91.9331 210.539 94.8104 215.595 98.3598 215.595Z" fill="black"/>
</g>
</svg>
