<svg width="316" height="364" viewBox="0 0 316 364" fill="none" xmlns="http://www.w3.org/2000/svg">
<mask id="mask0_2_96" style="mask-type:luminance" maskUnits="userSpaceOnUse" x="0" y="0" width="316" height="364">
<path d="M315.144 0H0V364H315.144V0Z" fill="white"/>
</mask>
<g mask="url(#mask0_2_96)">
<path d="M235.231 133.089C235.097 133.089 234.964 133.056 234.831 132.956C234.597 132.789 234.497 132.522 234.564 132.256C234.897 130.955 235.164 129.721 235.464 128.52C236.098 125.886 236.665 123.418 237.365 121.017C237.732 119.75 238.366 118.582 238.999 117.448C239.099 117.248 239.233 117.048 239.333 116.848C245.803 105.143 252.973 93.6371 260.643 82.6652C265.645 75.5284 270.848 67.7914 275.317 59.5874C275.45 59.2539 275.65 58.9538 275.85 58.687C276.15 58.2535 276.617 57.9867 277.151 57.9867C277.384 57.9867 277.618 58.0534 277.818 58.1534C278.018 58.2535 278.251 58.3535 278.451 58.4869C284.421 62.4221 289.057 66.5574 292.592 71.1263C293.292 71.9934 293.859 72.8938 294.459 73.7942C295.26 74.9948 295.293 75.5618 294.026 76.7957C290.157 80.6309 288.923 85.0997 290.19 90.5022C290.624 92.2698 290.491 92.6032 288.99 93.537C283.987 96.7719 279.152 100.44 274.483 104.009C273.216 104.976 271.982 105.91 270.714 106.877C259.809 115.081 248.704 123.385 237.732 131.555C237.398 131.789 237.065 132.022 236.565 132.322C236.298 132.489 235.964 132.689 235.564 132.956C235.498 133.056 235.364 133.089 235.231 133.089ZM245.436 85.7666C245.302 85.7666 245.202 85.7333 245.069 85.6666C243.535 84.6995 241.834 84.3326 240.233 84.0992C238.566 83.8324 236.865 83.5322 235.231 83.1987C234.697 83.0987 234.164 82.9986 233.597 82.8986C232.396 82.6652 231.696 82.1983 231.963 80.6309C232.563 77.496 232.863 74.2611 233.096 71.4931C234.364 56.1525 234.564 43.413 233.663 31.4073C233.63 30.807 233.63 30.2067 233.63 29.6398V28.8727C233.63 28.6393 233.763 28.4058 233.964 28.3058C234.23 28.139 234.53 28.0724 234.831 28.0724C235.231 28.0724 235.564 28.2057 235.864 28.3391C235.931 28.3725 238.366 29.4397 239.533 29.9399C243.835 31.8075 248.304 33.7417 252.739 35.5759C253.873 35.9428 254.707 36.9099 254.94 38.0771C255.007 38.3106 255.04 38.544 255.107 38.7775C255.34 39.6779 255.541 40.545 255.807 41.3787C257.708 47.0148 260.643 50.6832 265.045 52.8175C265.312 52.9176 265.445 53.151 265.579 53.2844C265.612 53.3178 265.645 53.3845 265.679 53.4178C265.812 53.5846 265.879 53.7847 265.845 53.9848C265.679 55.0186 265.145 55.8523 264.645 56.6527C264.511 56.8528 264.378 57.0862 264.245 57.2863C261.743 61.5884 258.942 65.7571 256.441 69.4255L255.274 71.1263C252.372 75.4284 249.371 79.8305 246.703 84.366C246.536 84.6328 246.369 84.8662 246.169 85.133L245.869 85.5332C245.836 85.6666 245.636 85.7666 245.436 85.7666ZM219.123 80.5308C218.99 80.5308 218.856 80.5308 218.723 80.4974C217.889 80.3974 217.022 80.264 216.188 80.164C214.488 79.9305 212.82 79.6971 211.119 79.497C208.751 79.1635 206.317 78.83 203.849 78.6299C202.615 78.5632 201.381 78.2297 200.247 77.6961C194.144 74.6947 188.008 71.6265 181.972 68.6251C181.172 68.2249 180.238 67.5913 180.204 66.1573C179.971 58.8204 177.136 52.0838 171 44.3135C169.132 41.9457 166.965 39.778 164.597 37.877C163.496 37.01 163.596 36.0762 163.863 35.4425C165.231 32.1076 165.364 28.4725 164.263 24.3039C163.83 22.7031 163.997 22.3029 165.364 21.5025C174.769 15.9999 185.507 13.0985 196.412 13.0985C197.913 13.0985 199.447 13.1652 200.948 13.2653C203.215 13.432 205.45 13.8655 207.651 14.4992C208.451 14.6659 209.052 15.3663 209.118 16.2C209.619 21.3358 212.553 24.9375 218.656 27.9056C219.29 28.2057 219.957 28.4392 220.624 28.6059C223.025 29.2062 223.258 29.8732 223.225 31.5073V32.141C223.258 35.6093 223.225 39.1443 223.225 42.5793V47.7818C223.325 58.587 222.125 69.192 220.791 79.0301C220.657 79.9972 220.057 80.5308 219.123 80.5308Z" fill="#F3D164"/>
<path d="M227.093 179.678C226.826 179.678 226.56 179.645 226.293 179.612C224.325 179.378 222.324 179.145 220.357 178.945C219.389 178.845 218.389 178.745 217.422 178.611C212.253 178.044 207.05 177.511 201.881 176.977L200.347 176.81C197.412 176.477 194.377 176.143 191.409 175.877C189.642 175.71 188.308 174.843 187.374 173.175C183.472 166.239 183.372 159.169 187.041 152.132C187.908 150.531 189.175 149.164 190.709 148.163C191.743 147.43 192.91 147.063 194.177 147.063C194.711 147.063 195.245 147.129 195.745 147.263C200.047 148.263 204.582 148.797 208.984 149.297L210.185 149.431C215.221 149.997 220.357 150.564 225.392 151.065C226.593 151.198 227.86 151.265 229.061 151.331C229.761 151.365 230.428 151.432 231.128 151.465C233.73 151.665 233.963 151.898 234.53 154.5V154.533C234.864 156.067 234.864 157.634 234.897 159.135C234.897 159.435 234.897 159.769 234.93 160.069C234.997 164.204 234.363 168.506 232.963 173.175C232.562 174.543 231.996 175.877 231.262 177.11C230.228 178.811 228.861 179.678 227.093 179.678ZM198.746 153.999C196.545 153.999 194.478 154.7 192.877 156C190.776 157.735 189.642 160.202 189.775 162.804C189.909 165.438 191.343 167.773 193.644 169.273C195.211 170.274 196.912 170.741 199.313 170.807C200.014 170.774 200.681 170.674 201.381 170.541C204.482 169.74 206.683 167.739 207.484 164.905C208.284 162.103 207.55 159.002 205.55 156.867C203.882 155.033 201.414 153.999 198.746 153.999Z" fill="#FC633F"/>
<path d="M120.31 84.1993C119.943 84.1993 119.576 84.0659 119.143 83.8324C110.939 78.83 102.601 73.7943 94.3306 68.7919C94.2973 68.7586 94.2639 68.7586 94.2306 68.7252C94.0305 68.5585 93.8304 68.325 93.697 68.1249C93.6303 68.0582 93.5969 67.9582 93.5969 67.8581C93.4635 66.8243 94.2306 66.4241 94.5974 66.2574C94.6641 66.224 94.7642 66.1907 94.8309 66.124C95.8647 65.3903 96.8985 64.5565 97.5655 63.456C98.3659 62.0887 99.5331 61.7886 100.7 61.6552C102.735 61.4551 104.802 61.2216 106.77 61.0215C109.338 60.7214 112.006 60.4546 114.64 60.1878C122.511 59.4541 129.047 59.1206 135.217 59.1206C136.684 59.1206 138.152 59.154 139.586 59.1873C146.556 59.4207 153.459 60.6213 160.129 62.789C161.329 63.1559 162.53 63.5894 163.731 64.023C164.231 64.1897 164.731 64.3564 165.198 64.5232C165.598 64.5899 166.032 64.6899 166.432 64.8233C166.465 64.8233 166.465 64.8233 166.499 64.8567C166.799 64.9901 166.999 65.2569 167.165 65.457C167.199 65.5237 167.266 65.5904 167.299 65.6237C167.466 65.7905 167.499 66.0239 167.466 66.2574C167.432 66.4908 167.232 66.6575 167.032 66.7242C166.932 66.7576 166.865 66.7909 166.765 66.8243C166.565 66.891 166.365 66.9577 166.165 66.991C166.098 67.0244 166.032 67.0244 165.965 67.0244C165.832 67.0244 165.698 66.991 165.631 66.9577C161.663 67.3579 157.728 68.1249 153.892 69.2921C150.024 70.4594 146.289 72.0601 142.754 74.0277C139.486 75.862 137.051 77.7295 135.083 79.8639C134.55 80.4642 133.85 81.0644 132.782 81.0644C132.416 81.0644 132.049 80.9977 131.615 80.8643C130.448 80.4642 129.347 80.2641 128.28 80.2641C125.879 80.2641 123.745 81.2979 121.944 83.3655C121.544 83.7324 121.043 84.1993 120.31 84.1993Z" fill="#F3D164"/>
<path d="M187.908 267.654C187.674 267.654 187.408 267.587 187.041 267.487C185.14 266.82 183.206 266.153 181.305 265.486C155.826 256.448 130.38 247.411 104.901 238.373C104.535 238.24 104.168 238.073 103.801 237.873C103.734 237.84 103.634 237.806 103.567 237.739H103.401C102.834 237.739 102.334 237.539 101.9 237.173C101.767 237.173 101.667 237.139 101.566 237.072H101.466C100.933 237.072 100.399 236.872 99.9991 236.506C99.899 236.506 99.7656 236.472 99.6656 236.406H99.4988C98.9652 236.406 98.465 236.205 98.0982 235.872C97.9648 235.839 97.8314 235.805 97.698 235.739H97.5646C97.031 235.739 96.5307 235.505 96.1972 235.138C94.0629 234.705 92.0619 233.971 90.1277 233.204C89.494 232.971 88.827 232.704 88.1601 232.47C86.5259 232.17 84.9585 231.603 83.5245 230.769L82.424 230.503H82.3573L78.5221 229.269L77.0881 228.802L74.6869 228.001L74.2868 227.868C73.8199 227.701 73.3196 227.535 72.8527 227.334C72.4525 227.168 72.3525 226.768 72.2858 226.534V226.467C72.2524 226.401 72.2524 226.334 72.2524 226.267C72.2524 225.8 72.7193 225.5 73.0862 225.467C73.2863 225.434 73.453 225.434 73.6198 225.434C74.2534 225.434 74.787 225.634 75.2205 226.034C76.7546 226.201 78.2553 226.634 79.656 227.334C80.99 227.468 82.3239 227.901 83.5245 228.568C83.7246 228.568 83.9247 228.635 84.0914 228.735L84.1915 228.769C86.1257 229.169 88.1267 229.569 89.9609 230.569C92.6622 231.236 95.4636 231.937 98.1315 233.104H98.1649C98.365 233.104 98.5317 233.137 98.6984 233.237H98.8985C99.3988 233.237 99.8657 233.404 100.233 233.738C100.366 233.738 100.499 233.771 100.599 233.838H100.833C101.466 233.838 102.1 234.071 102.6 234.471H102.767C103.501 234.471 104.101 234.671 104.601 235.072C104.735 235.072 104.901 235.105 105.035 235.172H105.268C105.835 235.172 106.369 235.372 106.769 235.739C107.836 236.039 108.903 236.305 110.004 236.606C112.338 237.239 114.739 237.873 117.074 238.54C139.751 245.143 162.429 251.713 185.106 258.316C185.64 258.483 186.207 258.616 186.741 258.783C187.708 259.05 188.708 259.35 189.709 259.65C190.309 259.85 190.709 260.117 190.909 260.517C191.109 260.917 191.109 261.384 190.943 261.918C190.409 263.418 189.875 264.953 189.275 266.453C189.208 266.787 188.875 267.654 187.908 267.654Z" fill="#FC633F"/>
<path d="M232.963 143.428C232.83 143.428 232.696 143.394 232.596 143.294C232.43 143.194 232.33 142.994 232.296 142.794C232.029 139.359 234.03 137.391 235.831 136.091C243.135 130.722 250.505 125.219 257.675 119.883C262.444 116.348 267.213 112.78 271.982 109.245C273.216 108.311 274.483 107.41 275.717 106.477C279.786 103.475 284.021 100.374 287.99 97.1388C288.19 96.9721 288.423 96.772 288.623 96.6052C289.057 96.2384 289.524 95.8382 290.024 95.5047C291.925 94.1374 292.592 92.6033 292.225 90.4356C291.825 88.0011 292.091 85.4665 292.959 83.1654C293.692 81.1311 294.826 78.8634 297.327 77.6628C297.661 77.4961 297.961 77.296 298.228 77.0625L298.261 77.0292C298.628 76.729 298.761 76.2288 298.595 75.7952C298.395 75.2283 298.128 74.6947 297.794 74.2278C293.359 67.658 288.356 62.6556 282.554 58.9205C282.353 58.7871 282.12 58.6537 281.92 58.5203C281.486 58.2535 281.053 58.0201 280.653 57.6866C280.453 57.5198 280.119 57.4198 279.786 57.2864C279.052 57.0196 278.085 56.6527 277.885 55.5856C277.751 54.7852 278.151 54.0515 278.552 53.3178C278.685 53.051 278.818 52.8176 278.919 52.6175L279.252 51.8838L279.585 51.1501L279.686 50.8833C279.786 50.6832 279.852 50.5165 279.952 50.3164C280.052 50.0829 280.186 49.8495 280.286 49.5827L280.353 49.4159C280.419 49.2492 280.553 49.1158 280.719 49.0825C280.786 49.0491 280.853 49.0491 280.953 49.0491C281.053 49.0491 281.153 49.0825 281.253 49.1158C281.753 49.3492 282.22 49.616 282.687 49.8828L282.72 49.9162C290.324 55.4855 295.993 60.588 300.596 66.0239C304.597 70.7262 307.966 76.2955 310.934 83.032C311.567 84.4994 311.467 84.8663 310.1 85.9334L309.8 86.1669C308.099 87.5342 306.332 88.9349 304.531 90.2689C282.12 107.077 259.176 124.285 236.298 141.427C236.065 141.593 235.865 141.76 235.664 141.927C234.964 142.494 234.197 143.128 233.13 143.428H232.963ZM242.668 103.542H242.534C242.334 103.509 242.201 103.408 242.101 103.242C242.068 103.208 242.068 103.175 242.034 103.142C241.934 103.008 241.767 102.808 241.734 102.541C241.601 101.808 241.767 101.041 242.234 100.474C242.234 100.34 242.268 100.24 242.268 100.107C242.334 99.4399 242.434 98.6729 242.968 98.0059C243.068 96.1717 243.635 94.3708 244.669 92.8034C245.369 91.6695 246.103 90.5357 246.803 89.4351C248.237 87.2007 249.705 84.8663 251.172 82.5985C252.773 80.1307 254.407 77.6628 256.008 75.2617C257.608 72.8605 259.242 70.3593 260.843 67.9248C262.878 64.8567 264.712 61.6218 266.312 58.2869C267.113 56.6194 267.713 54.8185 268.113 53.0177C268.347 51.9505 268.18 51.7504 267.446 51.4169C261.21 48.7823 258.909 43.213 257.108 37.7103C256.941 37.2768 256.841 36.7766 256.808 36.3097C256.741 34.5755 255.874 33.575 253.84 32.808C249.905 31.3073 245.903 29.7732 242.068 28.2725C240.133 27.5388 238.199 26.7718 236.265 26.0381C235.731 25.838 235.164 25.6379 234.531 25.4378C233.63 25.2043 232.963 24.404 232.93 23.4702C232.796 22.1362 232.696 20.8022 232.63 19.635L232.596 19.2348C232.596 19.0014 232.663 18.8013 232.863 18.6679C233.23 18.3677 233.597 18.2343 233.997 18.2343C234.364 18.2343 234.631 18.3677 234.864 18.4344L234.931 18.4678C245.369 22.9699 256.174 27.1053 266.613 31.1072C268.98 32.0076 271.382 32.9414 273.749 33.8418C275.417 34.4755 277.118 35.1424 278.818 35.8428C280.486 36.5431 280.619 37.0767 280.386 38.7442C279.852 42.4793 278.618 46.3145 276.584 50.4164C273.449 56.8195 269.514 63.4894 264.211 71.3598C261.977 74.6614 259.709 78.0297 257.508 81.2645C255.174 84.6995 252.773 88.2345 250.438 91.7362C249.138 93.6705 247.87 95.6714 246.636 97.639C246.036 98.6062 245.402 99.5733 244.802 100.54C244.669 100.807 244.569 101.074 244.435 101.341L244.235 101.774C244.068 102.141 243.902 102.508 243.702 102.875C243.702 102.908 243.668 102.908 243.668 102.908C243.535 103.142 243.335 103.242 243.168 103.342C243.135 103.375 243.101 103.375 243.068 103.408C242.968 103.509 242.835 103.542 242.668 103.542ZM226.927 81.6647C226.794 81.6647 226.627 81.6647 226.46 81.6314C226.027 81.598 225.56 81.5313 225.126 81.4313C223.792 81.1645 223.325 80.4975 223.559 79.1302C225.993 64.0229 226.694 49.8828 225.726 35.9762C225.626 34.3754 225.36 32.7413 225.093 31.1739C224.959 30.2734 224.793 29.3397 224.659 28.4059C224.592 27.7722 224.192 27.272 223.625 27.1053C223.592 27.1053 223.592 27.1053 223.559 27.0719C222.492 26.6384 221.358 26.1381 220.024 25.5045C217.723 24.404 215.688 22.7698 214.087 20.7689C212.82 19.3015 212.087 17.3673 212.087 15.3663C212.12 13.0652 212.02 12.9318 209.652 12.2315C205.117 10.8641 200.448 10.1638 195.712 10.1638C194.745 10.1638 193.778 10.1972 192.844 10.2639C185.54 10.6307 178.437 12.2982 171.734 15.1662C169.133 16.2667 166.631 17.6341 164.364 19.3015C163.763 19.7684 163.163 20.2353 162.696 20.6688C161.629 21.636 161.362 22.6031 161.829 23.9371C163.196 27.8389 163.063 31.5407 161.462 35.009C160.962 36.1096 161.095 36.91 161.929 37.7103L161.963 37.7437C162.93 38.6775 163.93 39.6446 164.897 40.6451C170.5 46.2811 174.402 52.284 176.836 58.9205C177.603 60.9215 178.137 63.0558 178.337 65.2235C178.37 65.4236 178.304 65.5904 178.17 65.7571C178.037 65.8905 177.87 65.9572 177.67 65.9572H177.637C175.469 65.8572 174.535 64.79 173.802 63.1892C171.901 59.2206 169.466 55.4855 167.332 52.284C161.462 43.4798 155.593 35.9428 149.356 29.2063C145.888 25.4711 142.82 22.7698 139.652 20.7022C139.652 20.7022 139.618 20.7022 139.618 20.6688C139.352 20.4687 139.085 20.2353 138.851 19.9685C138.785 19.8685 138.718 19.7684 138.685 19.6684C138.518 18.9347 138.851 18.4011 139.685 18.1009C139.719 18.1009 139.785 18.0676 139.819 18.0676C148.056 14.5326 157.861 10.464 168.466 7.92941C176.236 6.06184 184.24 4.82792 192.21 4.22763C196.379 3.92749 200.147 3.76074 203.716 3.76074H205.35C211.686 3.79409 218.023 4.62782 224.159 6.22859C224.426 6.29529 224.659 6.36199 224.893 6.42869C225.159 6.49539 225.393 6.59544 225.626 6.62878C226.794 6.79553 227.661 7.79601 227.727 8.96324C227.861 10.1972 228.061 11.4311 228.228 12.665C228.461 14.4659 228.728 16.3001 228.928 18.1676C229.595 24.504 230.195 30.9404 230.695 37.2768C230.896 39.8447 230.929 42.3792 230.962 44.9805C231.096 55.4188 230.862 63.4227 230.162 70.9263C229.928 73.4608 229.528 75.9953 229.128 78.4632L228.928 79.8305C228.761 80.6976 228.394 81.6647 226.927 81.6647ZM127.513 99.1731C126.912 99.1731 126.345 98.8396 125.445 98.2727C123.811 97.2722 122.143 96.205 120.309 95.0044L73.6202 64.9234C73.3534 64.7566 73.12 64.5565 72.8865 64.3898C72.7865 64.3231 72.6864 64.2564 72.6197 64.1897C72.453 64.0563 72.3529 63.8895 72.3529 63.6894C72.3196 63.2226 72.4863 62.9224 72.6531 62.7557C72.9866 62.3888 73.4535 62.3888 73.6202 62.3888C75.0542 62.4222 76.5216 62.4222 77.9223 62.4222C83.2582 62.4222 88.6607 62.2888 93.9633 62.022H94.7303C95.1305 62.022 95.3973 62.1887 95.4973 62.3555C95.6307 62.5222 95.7641 62.789 95.6641 63.1892V63.2226C95.6307 63.4894 95.564 63.8895 95.2305 64.1563C94.2634 64.9567 93.0629 65.557 91.8289 65.7905C91.5288 65.8572 91.262 65.9239 90.9952 65.9906C90.6617 66.0573 90.2949 66.1573 89.9614 66.224C89.1276 66.3907 88.9609 66.5908 88.8942 66.9577C88.8275 67.4246 89.0276 67.8248 89.5945 68.2583C89.9614 68.5584 90.3949 68.8252 90.8284 69.0587C99.6327 74.2612 108.437 79.4637 117.241 84.6328C118.142 85.1664 119.042 85.6666 120.009 86.0668C120.343 86.2336 120.676 86.3003 121.043 86.3003H121.21C121.343 86.3003 121.51 86.2336 121.643 86.1669L121.843 86.0335C121.943 85.9668 122.043 85.9001 122.11 85.7667L122.177 85.7C122.21 85.6666 122.243 85.5999 122.31 85.5666C123.111 84.4661 124.144 83.5323 125.345 82.8987C125.345 82.8987 125.378 82.8987 125.378 82.8653L125.512 82.7986L126.212 82.4985C127.079 82.1983 128.013 82.0316 128.98 82.0316C129.981 82.0316 131.014 82.1983 132.115 82.5318C132.448 82.6319 132.715 82.6652 132.982 82.6652C133.482 82.6652 133.882 82.4651 134.349 82.0316C137.484 79.0635 141.019 76.5289 144.888 74.5947C153.358 70.3593 161.596 68.2917 170.066 68.2917H170.8C173.701 68.2917 176.636 68.9253 179.271 70.1592C180.605 70.7928 182.005 71.4265 183.339 72.0268C183.873 72.2602 184.44 72.527 184.974 72.7605C185.941 72.8939 186.774 73.3274 187.541 73.7276C187.775 73.861 188.008 73.961 188.242 74.0611C188.842 74.2612 189.476 74.4613 190.076 74.6947C190.276 74.7614 190.443 74.9282 190.509 75.1616C190.576 75.3951 190.509 75.5952 190.343 75.7619L189.742 76.4289C189.609 76.5623 189.442 76.6623 189.242 76.6623H189.109C189.042 76.6623 188.975 76.629 188.942 76.629C188.542 76.5623 188.008 76.4622 187.608 75.9953C186.141 75.7952 184.607 75.4951 183.173 74.7614C182.172 74.5947 181.138 74.4613 180.138 74.2945C177.87 73.961 175.502 73.5942 173.201 73.194C171.801 72.9272 170.333 72.8272 168.899 72.8272C164.464 72.8272 159.962 73.9944 154.759 76.4956C153.458 77.1292 152.191 77.8629 151.024 78.6966C144.421 83.2321 139.052 87.7677 134.583 92.6033C133.215 94.104 131.648 95.7048 129.68 97.6724C128.847 98.6062 128.28 99.1731 127.513 99.1731Z" fill="#24B59F"/>
<path d="M204.616 246.077C204.383 246.077 204.116 246.044 203.749 245.977C199.814 245.31 195.845 244.576 192.01 243.876L191.176 243.709C177.837 241.275 164.297 238.773 150.991 236.306C145.421 235.272 139.752 234.171 134.249 233.137C130.614 232.437 127.012 231.737 123.377 231.07C111.305 228.769 99.0323 226.434 86.9599 224.166L82.7578 223.366C74.7874 221.865 66.5501 220.298 58.4128 218.83C53.5438 217.963 48.5748 217.163 43.7725 216.396L41.0379 215.962C39.7706 215.762 38.47 215.562 37.1693 214.895C36.9025 214.762 36.7691 214.462 36.8358 214.162C42.9388 186.448 49.5419 158.368 55.9116 131.255C60.7806 110.512 65.8164 89.0683 70.6187 67.9249C70.652 67.7248 70.7854 67.558 70.9855 67.458C71.1856 67.3579 71.4191 67.3246 71.6525 67.3246C72.2195 67.3246 72.653 67.6581 72.9865 67.9249C73.0865 67.9916 73.1532 68.0583 73.2533 68.125C89.5277 78.5633 105.969 89.135 122.143 99.54C123.511 100.407 124.711 101.241 125.878 102.075C126.312 102.408 126.746 102.541 127.146 102.541C127.613 102.541 128.08 102.341 128.58 101.941C131.081 100.007 133.482 97.9059 135.75 95.6715C140.952 90.6024 146.622 85.9668 152.625 81.8649C156.193 79.397 160.095 77.5295 164.23 76.2289C166.431 75.5619 168.732 75.195 171.067 75.195C172.134 75.195 173.235 75.2617 174.302 75.4285C179.071 76.0288 183.84 76.9959 188.442 78.2632C190.009 78.6967 191.71 79.1302 193.744 79.6305C193.811 79.6305 193.844 79.6638 193.911 79.6972C196.412 81.0645 205.217 86.1336 213.654 94.1041C224.526 104.376 230.395 115.147 231.062 126.153C231.162 127.754 231.296 129.121 231.462 130.155V130.388C230.362 135.324 229.228 140.226 228.127 145.162L227.927 145.862L227.861 146.129C227.527 147.396 227.26 148.297 225.826 148.297C225.626 148.297 225.359 148.297 224.993 148.23C222.625 147.997 220.257 147.696 217.956 147.396L216.022 147.163C209.719 146.396 203.216 145.595 196.812 145.362H194.378C191.21 145.362 188.575 146.729 186.341 149.531C184.507 151.832 183.339 154.666 182.739 158.268C181.972 162.937 182.706 167.606 184.807 171.841C185.14 172.475 185.507 173.075 185.907 173.676C187.675 176.51 190.076 177.944 193.478 178.211C199.18 178.645 204.95 179.212 210.519 179.778C213.087 180.045 215.688 180.312 218.256 180.545C218.356 180.545 218.456 180.579 218.556 180.579C219.123 180.612 219.89 180.679 220.524 181.346C220.657 181.479 220.691 181.646 220.691 181.813C220.691 182.246 220.657 182.68 220.557 183.113V183.147C216.422 200.855 212.287 218.597 208.118 236.306C207.751 237.806 207.451 239.34 207.151 240.808C206.917 241.875 206.684 243.009 206.45 244.076C206.317 245.076 205.984 246.077 204.616 246.077Z" fill="#FC633F"/>
<path d="M194.511 359.765C193.677 359.765 192.944 359.431 192.277 358.798C191.976 358.497 191.576 358.231 191.209 357.964C190.476 357.464 189.642 356.897 189.175 355.929C189.075 355.729 189.075 355.529 189.175 355.363C189.609 354.462 190.342 354.129 190.943 353.862C191.076 353.795 191.209 353.762 191.309 353.695C195.645 351.394 199.48 347.926 203.082 343.09C207.917 336.553 211.819 329.35 214.621 321.68C216.188 317.544 217.288 313.242 217.889 308.874C217.855 309.007 217.789 309.14 217.755 309.274C214.52 319.412 210.819 327.849 206.35 335.053C202.681 340.989 197.913 346.025 192.21 349.993C191.276 350.66 190.309 351.327 189.342 351.961L188.241 352.695C187.874 352.961 187.508 353.061 187.141 353.061C186.607 353.061 186.14 352.795 185.707 352.328C184.006 350.327 182.572 348.159 181.371 345.825C178.87 341.222 177.403 336.22 177.036 330.984C176.536 323.514 178.103 317.144 181.838 311.441C184.039 308.073 187.041 305.172 190.509 303.138C192.843 301.77 194.911 299.836 196.979 296.968C200.814 291.832 203.449 285.829 204.649 279.56C204.682 279.359 204.716 279.159 204.783 278.926C204.816 278.692 204.883 278.426 204.949 278.092C205.016 277.759 205.283 277.559 205.616 277.559H205.716L207.617 277.825C211.186 278.326 214.554 278.826 217.955 279.326C218.356 279.393 218.756 279.493 219.123 279.593C219.356 279.66 219.59 279.726 219.856 279.76C220.857 279.893 221.591 280.827 221.457 281.827C221.39 282.694 221.39 283.628 221.39 284.495C221.357 286.263 221.357 288.064 220.99 289.864C220.723 291.198 220.59 292.632 220.423 294C220.39 294.333 220.357 294.667 220.323 294.967C220.423 294.8 220.523 294.6 220.59 294.4C220.857 293.5 221.157 292.599 221.457 291.732C222.291 289.264 223.125 286.73 223.358 284.095C223.458 283.295 223.625 282.528 223.825 281.794C224.025 281.027 224.592 280.56 225.426 280.56C225.526 280.56 225.626 280.56 225.759 280.593C227.627 280.827 228.294 281.561 228.36 283.495C228.46 286.296 228.027 289.031 227.593 291.665C227.427 292.766 227.227 293.866 227.093 295C226.96 295.967 226.359 296.801 225.492 297.235C224.859 297.602 224.192 297.935 223.558 298.302C223.191 298.502 222.791 298.702 222.424 298.902C221.857 299.169 221.324 299.469 220.824 299.803C220.423 300.069 220.19 300.436 220.157 300.77C220.123 301.103 220.223 301.47 220.523 301.837C220.99 302.37 221.524 302.837 222.057 303.304C222.358 303.571 222.691 303.804 223.025 304.038C224.992 305.372 225.659 307.239 225.059 309.741C223.325 316.877 221.724 322.28 219.79 327.216C217.822 332.351 215.488 337.354 212.82 342.089C210.819 345.524 208.551 348.826 206.016 351.861C203.115 355.363 199.914 357.83 196.212 359.398C195.578 359.631 195.011 359.765 194.511 359.765ZM124.744 351.294C124.244 351.294 123.777 351.027 123.477 350.627C123.077 350.093 123.143 349.326 123.644 348.893C123.944 348.659 124.244 348.426 124.511 348.192C126.512 346.592 128.579 344.958 130.947 343.724C131.047 343.657 131.181 343.657 131.281 343.657C131.581 343.657 131.781 343.824 131.948 343.957C131.981 343.99 132.014 344.024 132.048 344.024C132.281 344.157 132.381 344.391 132.381 344.657V344.791C132.381 344.991 132.381 345.324 132.181 345.591C131.848 346.058 131.481 346.492 131.047 346.858C129.546 348.059 128.012 349.226 126.545 350.36L126.045 350.76C125.845 350.927 125.611 351.06 125.378 351.194C125.211 351.227 124.978 351.294 124.744 351.294ZM143.12 345.058C141.152 345.058 139.318 344.924 137.517 344.624C137.017 344.591 136.516 344.391 136.15 344.024C136.116 343.99 136.083 343.957 136.083 343.924C136.016 343.857 135.983 343.757 135.95 343.69C135.916 343.657 135.916 343.624 135.916 343.59C135.783 343.157 135.783 342.656 135.916 342.223C136.15 341.122 136.283 340.022 136.283 338.921C136.316 338.288 136.083 337.754 135.716 337.354C135.383 336.987 134.916 336.787 134.449 336.787C134.015 336.787 133.582 336.954 133.182 337.287C132.348 337.988 131.514 338.655 130.68 339.288C130.414 339.488 130.18 339.688 129.913 339.888C128.879 340.689 128.279 341.189 127.479 341.189C126.845 341.189 126.245 340.856 125.244 340.289C122.176 338.521 119.375 336.32 116.64 334.186L115.84 333.552C114.573 332.552 113.272 331.551 112.005 330.551C107.102 326.682 102.067 322.68 96.7975 319.179C93.1624 316.777 89.2272 314.31 84.8918 312.742C80.7898 311.241 77.3882 310.541 74.1866 310.541H73.1528C72.1857 310.541 71.2185 310.508 70.4182 310.508C70.018 310.508 69.6511 310.474 69.2509 310.474C65.6159 310.474 62.0141 311.108 58.5792 312.342C58.5125 312.375 58.4458 312.375 58.3457 312.375C58.179 312.375 58.0456 312.309 57.9122 312.209C57.2118 311.642 57.1118 310.941 57.6787 310.208L57.7454 310.141C59.713 307.34 62.2142 304.772 65.7159 302.07C66.8831 301.17 68.3505 300.67 69.8512 300.67C70.018 300.67 70.1847 300.67 70.3515 300.703C76.7545 301.003 83.1242 302.17 89.2605 304.105C94.1295 305.705 98.5983 308.14 102.567 311.375C105.868 314.009 109.237 316.977 113.139 320.713C117.307 324.714 120.609 327.616 123.844 330.184C125.311 331.318 126.912 332.251 128.679 332.885C128.813 332.952 128.98 333.018 129.113 333.085C129.313 333.185 129.613 333.319 129.747 333.319C129.647 333.219 129.446 333.085 129.313 332.985C129.18 332.885 129.013 332.785 128.879 332.685C128.413 332.318 127.912 331.985 127.379 331.651C123.677 329.217 120.242 326.382 117.174 323.247C112.071 318.178 106.702 313.276 101.2 308.607C95.4301 303.738 88.4935 300.236 81.1566 298.469L79.6559 298.068C79.3558 298.002 79.0223 297.902 78.7221 297.835L78.322 297.768C78.0552 297.735 77.8217 297.635 77.6216 297.435L77.5883 297.401C77.3215 297.101 77.2881 296.834 77.2881 296.634C77.3548 296.168 77.7217 295.901 77.9551 295.767C77.9551 295.767 78.0218 295.734 78.0218 295.701C78.522 295.4 79.1223 295.234 79.6893 295.234H80.0228C81.7236 294.567 83.4911 294.2 85.3253 294.066C87.7265 293.833 89.8942 293.733 91.9618 293.733C96.3306 293.733 100.232 294.233 103.868 295.234C110.304 297.001 116.34 300.269 121.343 304.705C123.61 306.739 125.578 309.107 127.145 311.708C128.546 314.009 130.314 316.044 132.415 317.711C133.148 318.278 133.882 318.912 134.582 319.479C136.583 321.146 138.651 322.847 140.952 324.148C145.021 326.449 148.556 328.083 152.524 328.616C152.891 328.683 153.224 328.75 153.525 328.85C153.725 328.917 153.891 328.95 154.092 328.983C154.925 329.117 155.559 329.75 155.692 330.584C155.726 330.751 155.726 330.917 155.759 331.084C155.792 331.318 155.792 331.584 155.859 331.785C156.226 333.519 156.159 334.519 155.659 335.22C155.059 336.02 153.925 336.187 152.624 336.253C150.657 336.387 148.656 336.754 146.721 337.087C145.888 337.22 145.021 337.387 144.187 337.487H144.053C143.82 337.487 143.62 337.454 143.386 337.454C145.621 337.988 148.189 338.554 150.757 338.554C151.891 338.554 152.958 338.454 153.992 338.254C154.192 338.221 154.392 338.188 154.558 338.188C155.225 338.188 155.726 338.521 155.959 339.088C155.992 339.188 156.026 339.255 156.059 339.355C156.093 339.522 156.126 339.655 156.159 339.822V340.122C156.193 340.756 156.159 341.456 156.093 342.123C156.026 342.99 155.359 343.657 154.492 343.79C150.89 344.457 147.055 345.058 143.12 345.058ZM129.68 333.252C129.647 333.252 129.647 333.252 129.68 333.252V333.252Z" fill="#755F59"/>
<path d="M198.346 169.373C196.879 169.373 195.478 168.906 194.178 167.939L194.144 167.906C193.644 167.506 193.21 167.039 192.777 166.539C192.477 166.305 192.277 165.972 192.143 165.605C192.077 165.471 192.01 165.305 191.977 165.171C191.776 165.005 191.676 164.771 191.676 164.538C191.676 164.171 191.843 163.871 192.21 163.671C192.41 163.571 192.644 163.504 192.844 163.504C193.277 163.504 193.644 163.771 193.844 164.171C194.478 164.438 195.145 164.671 195.845 164.838C196.279 164.904 196.679 164.971 197.079 164.971C199.28 164.971 201.114 163.771 202.115 161.636C202.382 161.069 202.582 160.469 202.782 159.835C202.882 159.569 202.982 159.268 203.082 159.002C203.149 158.802 203.349 158.635 203.549 158.568H203.682C203.849 158.568 204.016 158.635 204.149 158.768C205.516 160.136 205.983 161.87 205.55 163.837C205.116 165.838 203.849 167.506 202.015 168.406C200.781 169.04 199.547 169.373 198.346 169.373ZM184.94 300.503C183.139 300.503 181.338 299.869 179.604 298.602C179.437 298.468 179.337 298.268 179.337 298.068C179.337 297.868 179.437 297.668 179.604 297.535C185.807 292.932 189.575 286.396 191.476 276.958C191.977 274.524 193.077 272.823 194.945 271.656C195.878 271.055 196.812 270.755 197.746 270.755C198.58 270.755 199.413 270.989 200.18 271.489C202.048 272.689 202.848 274.457 202.415 276.525C200.814 284.428 197.646 290.931 192.744 296.401C191.676 297.535 190.442 298.535 189.108 299.302C187.775 300.103 186.374 300.503 184.94 300.503ZM177.303 294.033C176.803 294.033 176.369 293.833 176.102 293.466C175.869 293.166 175.835 292.766 175.969 292.399C176.069 292.099 176.202 291.765 176.336 291.465C178.77 286.296 181.238 281.16 183.673 275.991C183.706 275.891 183.873 275.524 183.939 275.424C184.139 275.024 184.673 273.957 185.84 273.957C186.04 273.957 186.274 273.99 186.507 274.057C187.108 274.19 187.741 274.39 188.341 274.657C188.375 274.657 188.408 274.69 188.442 274.724C188.875 274.991 189.175 275.457 189.175 275.991V276.124C189.075 276.658 188.942 277.225 188.775 277.725C187.708 282.027 185.807 286.029 183.172 289.598C182.239 290.965 181.071 292.165 179.704 293.133C179.037 293.666 178.203 293.966 177.303 294.033ZM160.428 307.606C154.258 307.606 148.689 305.405 143.92 301.07C143.187 300.369 142.52 299.569 141.986 298.735C140.418 296.568 140.218 294.533 141.319 292.232C145.988 282.427 149.856 272.223 153.125 263.418C153.125 263.385 153.158 263.385 153.158 263.352C153.358 262.951 153.591 262.551 153.858 262.184C153.992 261.984 154.192 261.884 154.425 261.884C154.525 261.884 154.625 261.918 154.725 261.951C158.794 263.885 162.096 266.82 164.764 270.889C169.432 277.992 171.267 286.129 170.199 295.067C169.999 296.834 169.466 298.535 168.665 300.136C167.798 301.837 166.931 303.604 165.997 305.538C165.519 306.658 164.445 307.408 163.229 307.473C162.229 307.573 161.295 307.606 160.428 307.606Z" fill="#F7F6F5"/>
<path d="M157.227 325.315C156.227 325.315 155.226 325.148 154.259 324.848C144.388 321.813 136.217 315.977 129.947 307.506C128.713 305.839 128.347 303.838 128.847 301.837C129.414 299.669 130.981 297.768 132.949 296.868C133.616 296.601 134.283 296.434 134.983 296.334C135.15 296.301 135.317 296.301 135.483 296.301C136.45 296.301 137.084 296.835 137.384 297.868C138.518 301.737 141.019 304.705 145.488 307.54C147.055 308.507 148.756 309.307 150.524 309.907C153.258 310.875 156.127 311.341 159.028 311.341C159.561 311.341 160.095 311.308 160.629 311.308C160.996 311.275 161.362 311.275 161.729 311.241C162.196 311.208 162.696 311.175 163.163 311.141H163.33C164.164 311.141 164.864 311.742 165.031 312.575C165.898 316.811 164.831 320.579 161.863 323.714C160.762 324.848 159.428 325.315 157.26 325.315H157.227ZM142.22 276.358C142.153 276.358 142.12 276.358 142.053 276.325C139.819 275.791 137.851 274.691 135.85 273.49C126.212 267.654 118.342 259.583 112.506 249.512C112.506 249.479 112.472 249.479 112.472 249.445C112.372 249.212 112.272 248.978 112.239 248.711C112.172 248.411 112.339 248.078 112.606 247.944C112.639 247.944 112.672 247.911 112.706 247.878C112.872 247.778 113.073 247.678 113.306 247.678C113.439 247.678 113.573 247.711 113.673 247.778C118.442 250.179 123.644 251.78 128.18 253.08C130.681 253.814 133.149 254.648 135.55 255.481C138.885 256.615 142.32 257.783 145.788 258.616C146.022 258.683 146.288 258.75 146.489 258.85C148.923 259.817 149.157 260.384 148.189 262.952C146.755 266.72 145.288 270.522 143.854 274.257L143.787 274.424C143.587 274.991 143.32 275.691 142.587 276.191C142.487 276.325 142.353 276.358 142.22 276.358ZM152.892 234.171C145.988 234.171 139.185 232.337 133.249 228.835C130.748 227.468 128.58 225.6 126.846 223.299C125.278 221.132 124.545 219.164 124.578 217.096C124.611 215.396 125.178 213.828 126.379 212.327C126.512 212.161 126.712 212.061 126.913 212.061H126.946C127.146 212.061 127.346 212.194 127.479 212.361C127.58 212.494 127.646 212.628 127.746 212.761C127.913 213.028 128.046 213.261 128.213 213.461C131.415 218.03 135.683 220.365 140.853 220.365C141.419 220.365 142.02 220.331 142.653 220.265C143.454 220.198 144.254 219.931 144.954 219.531C144.221 219.297 143.52 219.064 142.787 218.831C141.286 218.33 139.719 217.83 138.185 217.263C131.548 214.829 127.58 208.526 128.28 201.622C128.447 200.022 128.947 198.521 129.681 197.12C129.814 196.887 130.014 196.787 130.281 196.787H130.381C131.115 196.887 131.281 197.454 131.348 197.654C131.348 197.687 131.348 197.687 131.381 197.72C133.416 202.156 138.218 205.157 143.32 205.157C144.921 205.157 146.455 204.857 147.889 204.29C144.588 203.923 141.386 202.789 138.585 201.055C137.351 200.322 136.217 199.388 135.283 198.254C133.516 196.02 132.949 193.352 133.716 190.884C134.449 188.483 136.384 186.648 139.018 185.848C141.019 185.248 142.987 184.948 144.921 184.948C147.889 184.948 150.791 185.681 153.525 187.115C153.959 187.349 154.426 187.616 154.826 187.849C155.493 188.216 156.093 188.583 156.727 188.883C157.427 189.216 158.161 189.383 158.961 189.383C161.529 189.383 163.864 187.616 164.497 185.214C164.564 184.914 164.631 184.581 164.631 184.247C164.631 184.114 164.664 183.88 164.631 183.814H164.597C164.564 183.88 164.497 183.98 164.464 184.047C164.43 184.114 164.397 184.147 164.364 184.214C163.363 185.915 161.629 187.049 159.662 187.349C159.495 187.382 159.328 187.382 159.195 187.382C158.794 187.382 158.461 187.249 158.228 187.015C157.861 186.615 157.894 186.048 157.927 185.648C158.494 180.946 159.528 177.477 161.262 174.376C163.13 171.074 165.331 168.673 167.966 167.039C169.766 165.905 171.467 165.372 173.135 165.372C173.368 165.372 173.602 165.372 173.835 165.405C175.769 165.572 177.37 166.539 178.737 168.373C179.304 169.107 178.904 169.774 178.737 170.107L178.671 170.207C175.703 175.543 174.669 181.413 175.669 187.716C175.903 189.216 176.136 190.65 174.969 192.184C174.235 193.185 174.002 194.452 174.335 195.653C175.102 198.688 174.869 201.756 174.635 204.49C174.202 210.527 172.868 216.463 170.667 222.132C170.2 223.466 169.533 224.733 168.733 225.934C168.733 225.934 168.733 225.967 168.699 225.967C168.132 226.701 167.865 227.601 167.899 228.535C167.999 229.936 167.198 230.603 166.398 231.103C163.697 232.737 160.529 233.704 156.727 234.038C155.46 234.104 154.192 234.171 152.892 234.171Z" fill="#F7F6F5"/>
<path d="M175.469 232.337C174.635 232.337 173.835 232.204 173.035 231.97C171.701 231.537 170.733 230.77 170.3 229.736C169.866 228.702 169.966 227.468 170.633 226.201C174.168 219.231 176.003 211.594 176.169 202.923C176.169 202.523 176.203 202.122 176.203 201.722C176.269 199.688 176.336 197.554 176.036 195.519C175.903 194.552 176.036 193.552 176.47 192.618C176.67 192.218 177.237 190.95 178.571 190.95C179.004 190.95 179.471 191.084 180.038 191.351C180.972 191.818 181.772 192.551 182.339 193.452C184.64 197.187 186.007 200.555 186.641 204.023C186.708 204.457 186.808 204.857 186.875 205.291C187.175 206.791 187.475 208.359 187.375 209.993C187.275 215.996 186.308 221.165 184.473 225.734C183.673 227.668 182.272 230.403 179.071 231.637C177.804 232.07 176.636 232.337 175.469 232.337ZM16.8265 147.496C14.5587 147.496 12.2243 147.029 9.92316 146.096C9.08943 145.829 8.52249 145.062 8.52249 144.195C8.42244 143.261 8.28905 142.294 8.15565 141.36C8.02225 140.326 7.85551 139.292 7.75546 138.225C7.12182 130.421 8.78929 123.385 12.7245 117.382C13.6916 115.848 14.9256 114.514 16.3929 113.38C18.4272 111.813 20.795 111.046 23.5964 111.046C24.0966 111.046 24.6302 111.079 25.1971 111.112H27.8317C28.1986 111.112 28.2319 111.079 28.2653 110.979C28.2986 110.912 28.2986 110.845 27.8984 110.545C26.3644 109.445 25.0637 108.945 23.7298 108.945H23.3296C23.1628 108.945 22.5959 108.945 22.3624 108.478C22.0957 107.977 22.4291 107.477 22.5292 107.277C25.1971 103.042 28.0652 100.374 31.5335 98.873C32.8341 98.3061 33.9347 98.0393 34.9685 98.0393C35.7022 98.0393 36.4025 98.1727 37.1028 98.4395C38.1033 98.8397 38.4702 99.44 38.6369 99.8735C38.8037 100.307 38.8704 101.041 38.3034 102.008C35.5688 106.743 33.9013 110.745 33.1009 114.581C32.0338 119.65 30.8332 126.353 31.2667 133.256V133.49C31.3334 134.423 31.3668 135.29 31.767 136.058C32.1338 136.825 31.767 137.391 31.5335 137.758C30.2662 139.726 28.7989 141.56 27.3648 143.328L26.7646 144.095C26.1309 144.895 25.2305 145.295 24.4635 145.629L24.2634 145.729C21.8289 146.896 19.3277 147.496 16.8265 147.496Z" fill="#F7F6F5"/>
<path d="M17.4595 158.968C11.6234 158.701 6.65431 155.567 3.41943 150.131C2.85249 149.23 2.48564 148.196 2.3856 147.096V146.962C2.35225 146.462 2.28555 145.595 3.11928 145.062C3.45277 144.861 3.78627 144.761 4.15311 144.761C4.58665 144.761 5.02019 144.895 5.48708 145.162C6.05402 145.495 6.62096 145.829 7.15455 146.195L7.38799 146.329C10.4895 148.296 14.0912 149.33 17.793 149.33C22.2618 149.33 26.4638 147.796 29.632 144.995C31.0326 143.761 32.1999 142.294 33.0336 140.626C33.4338 139.726 34.0341 138.859 34.7678 138.158C35.4014 137.558 36.1017 137.291 36.8354 137.291C37.2023 137.291 37.5358 137.358 37.9026 137.491C39.2699 138.058 39.3366 139.392 39.4033 140.059C39.47 141.026 39.2699 142.027 38.8697 142.927C35.8683 149.197 32.3666 153.432 27.8645 156.234C24.763 158.101 21.5948 158.968 17.4595 158.968ZM15.8921 110.578C15.5586 110.578 15.2584 110.312 15.2251 109.978C15.1917 109.745 15.1917 109.545 15.2251 109.311V109.244C15.4585 108.244 15.6586 107.277 15.8921 106.276C16.3256 104.409 16.7591 102.441 17.1927 100.54C17.2594 100.273 17.3261 100.007 17.4261 99.7399C17.5929 99.2396 17.7263 98.7727 17.6596 98.3392C17.6596 98.2392 17.6596 98.1725 17.6929 98.0724C18.0931 96.5717 18.46 95.1043 18.8601 93.6036C20.1608 88.5679 21.4947 83.3654 23.2956 78.363C24.6296 74.6612 27.1308 71.5264 31.1327 68.4916C32.9336 67.1243 34.9345 66.4573 37.1689 66.4573C38.1694 66.4573 39.2032 66.5907 40.2371 66.8908C40.2704 66.8908 40.3371 66.8908 40.4038 66.9242C40.6706 66.9575 41.1041 66.9909 41.3709 67.3577C41.5043 67.5245 41.6044 67.7912 41.5377 68.2248C41.5377 68.2581 41.5377 68.3248 41.5043 68.3582C41.4376 68.8251 41.3042 69.7255 40.3038 69.9923L40.0036 70.0924C39.6034 70.1924 39.2032 70.2924 38.8364 70.4258C36.4352 71.1929 34.6344 72.7603 33.3671 75.2615C30.1322 81.5312 27.6644 88.1677 26.0303 95.0043C25.8635 95.7046 25.7635 96.4049 25.6968 97.172C25.5967 98.0391 25.4633 98.9395 25.2299 99.8399C25.1298 100.273 24.8964 100.74 24.5962 101.107C22.3618 103.508 20.5276 106.176 19.1269 109.111C19.1269 109.144 19.0936 109.178 19.0936 109.178C18.9602 109.378 18.8268 109.545 18.6267 109.678C18.4933 109.778 18.3599 109.845 18.1932 109.845H18.0264C17.8263 109.845 17.5929 109.978 17.3261 110.112C16.9592 110.312 16.5257 110.545 15.9588 110.578H15.8921Z" fill="#F7F6F5"/>
<path d="M27.5303 98.3394C27.4302 98.3394 27.3302 98.3061 27.2302 98.3061C27.0634 98.2394 26.93 98.1393 26.83 97.9726C26.7633 97.8058 26.7299 97.6391 26.7966 97.4723C27.3969 95.7382 27.9638 93.9707 28.5308 92.2365C30.3316 86.6672 32.2325 80.8977 35.2673 75.6619C37.3683 72.0268 40.8367 71.3932 44.2717 71.2264H44.405C45.0053 71.2264 45.3055 71.4932 45.4389 71.7267C45.739 72.2269 45.4389 72.7939 45.3388 72.9939C41.637 80.0974 39.4026 87.9344 37.5684 94.7043C37.5684 94.771 37.5351 94.8044 37.5351 94.8711C37.4684 95.1379 37.335 96.005 36.3679 96.005C36.3012 96.005 36.2011 96.005 36.1011 95.9716C35.6675 95.9049 35.234 95.8716 34.7671 95.8716C32.7661 95.8716 30.7985 96.5386 28.3307 98.0059C28.2973 98.0059 28.2973 98.0393 28.264 98.0726C28.1639 98.1393 27.8971 98.3394 27.5303 98.3394ZM109.103 137.158C109.003 137.158 108.903 137.125 108.836 137.091C108.569 136.991 108.436 136.724 108.436 136.424C108.502 135.257 108.469 134.023 108.402 132.823C108.369 132.156 108.336 131.455 108.336 130.788C108.336 130.655 108.336 130.321 108.369 129.855C108.402 128.687 108.469 125.319 108.336 124.319C106.268 123.618 104.034 123.151 101.866 122.718C100.899 122.518 99.8983 122.318 98.9312 122.084C98.631 122.017 98.4309 121.751 98.4309 121.45C98.4309 121.15 98.5977 120.884 98.8978 120.784L106.135 118.516L106.635 118.349C106.635 116.381 106.535 114.48 105.901 112.746C105.268 110.945 104 109.511 102.533 108.911C102.266 108.811 102.099 108.544 102.133 108.278C102.133 108.011 102.299 107.744 102.566 107.677C103.934 107.177 105.368 106.944 106.802 106.944C108.002 106.944 109.203 107.11 110.37 107.444C119.141 110.212 121.409 118.749 117.307 133.523C117.24 133.823 116.973 134.023 116.673 134.023H116.573C115.739 134.023 114.905 134.123 114.072 134.357C113.305 134.557 112.571 134.857 111.871 135.257C111.204 135.624 110.537 136.091 109.97 136.624L109.803 136.791L109.636 136.958C109.436 137.091 109.269 137.158 109.103 137.158ZM159.127 147.93C158.96 147.93 158.827 147.863 158.693 147.796C156.192 145.795 153.357 144.261 150.289 143.261C149.956 143.161 149.756 142.794 149.856 142.461L149.989 141.96C150.789 138.926 151.523 136.057 152.19 133.089C150.423 131.922 148.422 130.922 146.521 129.955L143.819 128.554C143.553 128.42 143.419 128.12 143.486 127.82C143.553 127.52 143.819 127.32 144.119 127.287L152.223 126.92C152.724 125.019 153.124 123.185 152.957 121.317C152.89 120.25 152.557 119.183 152.023 118.249C151.89 118.049 151.923 117.782 152.023 117.582C152.157 117.382 152.357 117.248 152.59 117.248H153.124C157.159 117.582 161.094 120.65 162.895 124.885C165.83 131.789 163.162 141.093 159.694 147.496C159.594 147.663 159.427 147.796 159.227 147.83C159.227 147.93 159.16 147.93 159.127 147.93Z" fill="#F7F6F5"/>
<path d="M199.347 172.108C196.679 172.041 194.745 171.541 192.944 170.374C190.276 168.673 188.642 165.938 188.475 162.87C188.308 159.836 189.609 156.934 192.043 154.933C193.877 153.433 196.245 152.632 198.746 152.632C201.748 152.632 204.616 153.833 206.55 155.9C208.885 158.402 209.718 161.97 208.785 165.205C207.851 168.44 205.25 170.841 201.715 171.775C200.948 171.941 200.147 172.041 199.38 172.075C199.38 172.108 199.38 172.108 199.347 172.108ZM194.978 166.872C196.045 167.639 197.179 168.039 198.346 168.039C199.347 168.039 200.347 167.773 201.414 167.206C202.848 166.472 203.882 165.171 204.249 163.604V163.504C204.516 162.37 204.416 161.436 203.916 160.569C203.716 161.136 203.549 161.636 203.282 162.17C202.081 164.771 199.78 166.272 197.046 166.272C196.545 166.272 196.045 166.205 195.545 166.139H195.512C194.845 165.972 194.211 165.738 193.577 165.505C193.577 165.505 193.611 165.538 193.644 165.538L193.744 165.638C194.111 166.072 194.544 166.505 194.978 166.872ZM164.997 156.534C164.797 156.534 164.597 156.434 164.497 156.301C162.496 153.866 160.095 151.832 157.36 150.264C154.692 148.697 151.824 147.463 148.889 146.563C147.889 146.262 146.955 145.996 145.988 145.796C145.754 145.762 145.488 145.695 145.221 145.629C144.52 145.495 143.82 145.329 143.053 145.229C141.919 145.062 140.852 144.962 139.818 144.895C139.285 144.862 138.751 144.828 138.217 144.828C135.616 144.828 133.015 145.229 130.547 146.029C130.48 146.062 130.414 146.062 130.347 146.062C130.114 146.062 129.88 145.929 129.78 145.729C129.613 145.462 129.68 145.129 129.88 144.895C130.781 144.028 131.814 143.294 132.948 142.694L133.015 142.16C133.682 136.758 134.682 128.587 137.484 123.485C138.351 121.951 139.418 120.517 140.619 119.216C141.986 117.682 144.187 115.681 146.622 114.914C148.456 114.114 150.39 113.68 152.358 113.68C152.724 113.68 153.058 113.68 153.425 113.713C158.861 114.147 163.896 118.016 166.231 123.518C169.766 131.822 166.698 142.427 162.596 149.731C162.896 150.064 163.129 150.398 163.396 150.765C164.463 152.232 165.23 153.899 165.664 155.667C165.731 155.967 165.597 156.267 165.297 156.434C165.197 156.501 165.097 156.534 164.997 156.534ZM151.324 142.194C154.058 143.128 156.593 144.495 158.894 146.229C162.029 140.126 164.33 131.689 161.695 125.452C160.195 121.917 157.06 119.283 153.725 118.716C154.025 119.516 154.225 120.383 154.292 121.217C154.459 123.418 153.958 125.552 153.391 127.72C153.325 127.987 153.058 128.187 152.791 128.22L151.757 128.254L146.688 128.487C146.855 128.554 146.988 128.654 147.155 128.721C149.256 129.788 151.424 130.888 153.358 132.189C153.592 132.356 153.692 132.623 153.625 132.889C152.925 136.058 152.157 139.026 151.324 142.194ZM108.77 149.831C108.603 149.831 108.437 149.764 108.303 149.631C107.103 148.463 106.302 146.963 105.935 145.295C105.569 143.628 105.635 141.827 106.102 140.193C106.269 139.659 106.469 139.159 106.702 138.659C106.502 138.625 106.269 138.592 106.069 138.559C105.002 138.392 104.001 138.292 103.001 138.225C102.134 138.159 101.266 138.125 100.433 138.125C99.2988 138.125 98.165 138.192 97.0644 138.292C95.1635 138.492 93.2626 138.892 91.4618 139.559C89.4608 140.26 87.5932 141.427 86.0258 142.461C85.9258 142.527 85.7924 142.561 85.659 142.561C85.5256 142.561 85.3588 142.527 85.2588 142.427C85.0253 142.26 84.9586 141.96 85.0587 141.694C85.8924 139.359 87.4932 137.325 89.5608 135.957C88.7271 131.889 87.9934 127.087 88.4937 122.251C89.094 116.481 91.4284 111.412 95.1302 108.011C98.2984 105.109 102.567 103.442 106.802 103.442C108.403 103.442 109.937 103.675 111.405 104.142C122.043 107.511 125.245 117.482 120.909 133.756C121.143 133.856 121.376 133.99 121.576 134.123C122.343 134.557 123.044 135.057 123.711 135.657C124.978 136.825 125.945 138.325 126.479 139.993C127.012 141.66 126.912 143.428 126.178 145.028C126.078 145.262 125.845 145.429 125.578 145.429H125.445C125.145 145.362 124.911 145.129 124.911 144.828C124.711 141.86 122.743 139.993 121.143 138.959C120.209 138.359 119.142 137.925 118.041 137.758C117.674 137.692 117.307 137.658 116.941 137.658H116.507C115.974 137.692 115.44 137.758 114.94 137.925C113.872 138.192 112.905 138.692 112.038 139.359C111.171 140.026 110.471 140.86 109.971 141.827C109.437 142.894 109.104 144.028 109.003 145.195C108.903 146.496 109.037 147.796 109.404 149.064C109.504 149.364 109.37 149.664 109.104 149.831C109.003 149.797 108.903 149.831 108.77 149.831ZM102.134 121.451C104.435 121.917 106.836 122.418 109.037 123.185C109.604 123.385 109.871 123.485 109.704 130.055V130.788C109.704 131.422 109.737 132.089 109.771 132.789C109.804 133.523 109.837 134.257 109.837 134.957C110.271 134.623 110.704 134.323 111.205 134.057C112.005 133.623 112.839 133.29 113.706 133.056C114.506 132.856 115.307 132.723 116.14 132.689C119.842 119.049 117.808 111.212 109.971 108.744C108.937 108.444 107.87 108.278 106.802 108.278C106.002 108.278 105.235 108.344 104.468 108.511C105.635 109.411 106.569 110.712 107.136 112.313C107.87 114.347 107.936 116.481 107.97 118.849C107.97 119.149 107.77 119.416 107.503 119.483L106.536 119.783L101.7 121.317C101.8 121.384 101.967 121.417 102.134 121.451ZM123.344 187.415C114.406 187.415 105.802 182.913 101.933 176.21L101.9 176.143C101.8 175.977 101.733 175.81 101.7 175.61V175.576C101.7 175.343 101.8 175.11 101.967 174.909C102.267 174.609 102.667 174.543 103.001 174.543H103.634C105.268 174.543 106.436 173.842 107.436 172.308C107.603 172.075 107.736 171.841 107.836 171.608C107.97 171.341 108.136 171.074 108.303 170.841C107.569 170.207 106.836 169.54 106.169 168.84C104.668 167.239 103.301 165.505 102.167 163.637C101.033 161.803 100.099 159.869 99.3322 157.868C99.2322 157.568 99.3322 157.234 99.599 157.068C99.699 157.001 99.8324 156.968 99.9658 156.968C100.133 156.968 100.333 157.034 100.466 157.168L100.966 157.701C103.668 160.603 106.236 163.371 109.137 165.605C112.105 168.006 115.473 169.807 119.108 170.941C122.81 172.108 126.645 172.742 130.514 172.842H131.548C134.582 172.842 137.651 172.542 140.619 171.941C140.252 170.874 140.052 169.74 140.085 168.606C140.085 167.139 140.619 165.705 141.519 164.538C141.652 164.371 141.853 164.271 142.053 164.271C142.119 164.271 142.219 164.271 142.286 164.304C142.553 164.404 142.72 164.671 142.72 164.971C142.62 166.105 142.686 167.239 142.92 168.34C143.153 169.373 143.487 170.407 143.92 171.374C144.387 172.375 144.921 173.309 145.554 174.209C146.221 175.143 146.988 176.01 147.822 176.777C148.022 176.977 148.089 177.277 147.989 177.544C147.889 177.777 147.655 177.911 147.389 177.911H147.288C145.854 177.711 144.521 177.077 143.453 176.077C142.886 175.576 142.386 175.01 141.953 174.409C140.819 178.111 138.851 181.179 136.217 183.247C132.748 185.981 128.313 187.415 123.344 187.415Z" fill="black"/>
<path d="M312.468 78.8635C306.265 64.6567 296.361 53.6847 283.354 45.4141C282.854 45.0806 282.554 44.7471 282.654 44.1468C282.721 43.6133 282.788 43.0797 282.921 42.5794C283.455 40.2783 283.354 37.9105 283.421 35.5761C283.455 34.4422 282.921 33.8419 281.854 33.5084C280.02 32.9081 278.252 32.2411 276.451 31.5408C262.411 25.9715 248.504 20.102 234.198 15.233C232.864 14.7661 232.397 13.9991 232.197 12.6984C231.863 10.2639 231.163 7.89615 230.129 5.69509C229.629 4.62791 228.695 3.82753 227.561 3.49404C222.392 1.85992 217.023 0.826093 211.62 0.425902C206.184 0.0924085 200.748 0.0924082 195.346 0.359203C183.573 0.859442 172.068 2.69365 160.829 6.26203C153.025 8.76323 145.388 11.7313 138.218 15.7999C137.018 16.4669 135.884 17.234 134.783 18.0677C133.716 18.9014 133.783 19.9686 134.917 20.7023C136.718 21.8695 138.285 23.3035 139.886 24.7042C143.654 28.0058 146.923 31.8076 150.191 35.6094C156.66 43.113 162.597 51.0501 167.999 59.3541C168.499 60.1212 169.166 60.8215 169.2 61.822C167.999 62.0888 167.065 61.4218 166.132 61.0549C155.693 56.953 144.821 55.2522 133.616 55.3522C125.412 55.4189 117.242 56.1859 109.104 57.0864C103.068 57.7534 97.0986 58.7205 90.9957 58.9206C85.2596 59.0873 79.4902 59.2874 73.7541 59.4542C70.5526 59.5542 67.3844 59.5876 64.2162 58.8205C63.9161 58.7538 63.5826 58.7538 63.2825 58.7872C62.5488 58.8539 61.9485 59.8544 62.3487 60.4547C62.6822 60.9882 63.0824 61.4885 63.5826 61.8887C64.7165 62.8558 65.917 63.7229 67.1176 64.6233C67.6846 64.9568 67.918 65.6571 67.6179 66.2574C67.0176 68.0583 66.484 69.8925 65.9837 71.7601C63.5493 80.6977 61.5149 89.7353 59.4139 98.7397C55.4454 115.848 51.4435 132.956 47.4082 150.031C46.9079 152.199 46.6745 154.433 45.674 156.467C45.674 156.634 45.6407 156.834 45.6407 157.001C43.573 154.366 41.5387 151.732 39.6378 148.964C39.2043 148.33 39.1042 147.963 39.4044 147.23C40.3381 144.995 41.6054 142.861 41.8722 140.393C42.3057 136.591 39.371 133.89 35.6692 134.69C34.9356 134.857 34.7355 134.69 34.6354 133.957C33.9351 129.421 34.0351 124.852 34.4687 120.317C34.7688 116.982 35.4024 113.713 36.9365 110.679C38.1704 108.178 39.4044 105.676 40.5049 103.142C41.3386 101.141 41.8722 99.0731 40.1714 97.1722C39.9713 96.9388 39.9379 96.572 40.0713 96.3052C41.2719 92.1031 42.5392 87.9011 43.6397 83.6324C44.6735 79.6305 46.6411 75.9287 47.1747 71.7934C47.3081 70.7262 46.9746 70.0259 46.1076 69.5257C45.4406 69.1922 44.7402 68.9921 44.0066 68.9587C42.5725 68.792 42.5058 68.6586 43.0061 67.358C43.473 66.2241 43.2395 65.5571 42.2057 64.9235C41.1719 64.3232 40.038 63.9563 38.8708 63.7896C34.8355 63.1893 31.5006 64.8234 28.5658 67.358C25.2643 70.226 23.0965 73.8944 21.4291 77.8963C20.2285 80.8644 19.1947 83.8992 18.2275 86.934C16.2933 93.1036 14.259 99.2399 12.6249 105.51C12.158 107.31 12.158 109.178 11.6244 110.912C10.6906 113.98 9.28994 116.848 7.85592 119.716C4.42094 126.62 3.58721 133.99 4.72108 141.594C4.78778 142.027 5.12127 142.527 4.18749 142.527C1.45285 142.561 -0.0145193 144.195 0.185576 146.963C0.385672 149.064 1.11936 151.065 2.31993 152.766C5.05458 156.834 9.18989 158.968 13.592 160.636C14.7926 161.103 15.7264 161.57 16.3933 162.77C18.4276 166.372 20.1952 170.107 22.0294 173.809C22.7631 175.143 23.5301 176.477 24.2638 177.811C27.5987 183.88 31.8674 189.416 36.9032 194.152C36.8698 194.352 36.8031 194.552 36.7698 194.752L36.5697 195.553C36.4696 195.853 36.3029 196.12 36.1361 196.386C36.1028 197.02 36.0027 197.654 35.8693 198.287C34.9689 202.122 33.9684 205.924 33.1013 209.76C32.7011 211.527 32.501 213.328 32.2009 215.129C32.0008 216.396 32.6344 217.163 33.6683 217.697C34.0351 217.897 34.4353 218.03 34.8688 218.097C37.4034 218.564 39.7045 219.664 42.1056 220.531L89.8285 237.74C94.6308 239.474 99.4331 241.175 104.269 242.842C104.569 242.942 104.869 243.075 105.169 243.242C105.903 243.642 106.403 244.343 106.603 245.143C106.97 246.377 107.437 247.578 108.004 248.711C112.106 257.849 118.342 265.286 126.012 271.589C130.148 274.991 134.65 277.792 139.752 279.56C140.186 279.76 140.586 279.96 140.986 280.227C139.752 283.828 138.719 287.397 137.185 290.765C136.751 291.732 136.184 291.932 135.217 291.966C130.214 291.999 126.846 294.567 124.645 298.902C124.378 299.436 124.445 300.169 123.611 300.47C123.311 300.27 122.978 300.069 122.644 299.803C115.174 293.7 106.603 290.298 97.0319 289.331C86.8938 288.297 77.2892 290.065 68.3849 295.034C61.1814 299.002 55.7122 304.672 52.2438 312.175C51.3768 314.009 50.7765 315.944 50.443 317.945C50.1762 319.645 50.543 321.38 51.4768 322.847C53.6112 326.282 56.0123 329.517 58.9804 332.352C63.6493 336.787 68.9852 340.255 74.7213 343.157C86.3268 349.093 98.7328 352.294 111.572 354.062C112.94 354.295 114.34 354.062 115.574 353.428C116.975 352.695 118.409 352.028 120.076 351.194C120.477 351.727 120.877 352.228 121.277 352.728C122.411 354.162 123.945 354.696 125.746 354.862C128.08 355.096 130.415 355.062 132.749 354.796C134.65 354.562 136.551 354.329 138.452 354.062C144.255 353.228 149.957 351.928 155.427 349.76C158.862 348.393 160.729 345.991 160.696 342.223C160.662 338.588 160.796 334.986 160.196 331.384C159.962 330.05 160.029 329.917 161.263 329.517C164.164 328.55 166.198 326.615 167.666 324.048C169.767 320.246 170.5 316.244 169.1 312.042C168.733 310.941 168.8 309.707 169.333 308.674C170.634 305.872 171.834 303.037 173.068 300.203C173.402 299.436 173.769 298.635 174.136 297.868C174.269 297.602 174.502 297.268 174.836 297.401C175.103 297.535 175.303 297.768 175.403 298.068C176.237 300.803 178.271 302.17 180.805 303.071L182.906 303.771C182.706 304.805 181.873 305.172 181.306 305.772C175.67 311.608 172.535 318.545 172.068 326.615C171.368 338.855 175.67 349.126 184.474 357.597C186.975 359.931 189.71 361.966 192.611 363.733H192.878C193.378 363.767 193.912 363.8 194.412 363.833H194.479L196.913 363.8H197.08C201.849 362.199 205.684 359.231 209.052 355.563C212.721 351.527 215.689 346.992 218.257 342.223C222.459 334.419 225.393 326.115 227.695 317.578C228.595 314.176 229.295 310.741 230.162 307.373C230.529 305.972 230.162 304.905 229.162 303.938C228.562 303.371 227.761 302.971 227.394 302.137C227.795 301.57 228.462 301.503 229.028 301.37C230.496 301.037 231.163 300.103 231.363 298.702C231.43 298.168 231.53 297.668 231.63 297.135C232.43 291.865 232.497 286.53 232.363 281.227C232.363 280.693 232.33 280.16 232.263 279.626C232.063 277.892 231.43 277.258 229.662 276.958C225.26 276.225 220.858 275.524 216.456 274.791C213.621 274.324 210.786 273.857 207.952 273.423C206.851 273.257 205.884 272.99 205.417 271.823C205.284 271.522 205.117 271.256 204.917 271.022C202.783 268.054 198.214 265.753 193.612 268.421L192.511 269.055L192.311 269.355C192.278 269.421 192.211 269.488 192.177 269.521C192.011 269.688 191.777 269.922 191.544 269.722L191.477 269.655C191.377 269.488 191.377 269.288 191.444 269.121L191.744 268.721C191.844 268.621 191.911 268.554 191.977 268.454C194.345 263.052 196.713 257.616 199.081 252.18C199.381 251.513 199.448 250.712 200.215 250.246C202.016 250.546 203.883 250.946 205.784 251.113C207.885 251.313 208.852 250.512 209.486 248.478C209.552 248.278 209.619 248.078 209.653 247.878C210.586 243.742 211.52 239.607 212.554 235.505C213.121 233.271 213.321 230.936 214.288 228.769C214.255 228.402 214.255 228.035 214.321 227.668C214.355 227.435 214.421 227.235 214.455 227.001C216.889 225.834 219.19 224.467 221.391 222.899C231.897 215.362 238.099 205.124 239.734 192.218C240.467 186.782 239.534 181.246 236.999 176.41C236.599 175.643 236.132 174.876 235.632 174.176C235.665 174.109 235.665 174.076 235.698 174.009C235.798 173.709 235.898 173.375 235.965 173.075C236.065 172.542 236.265 172.075 236.632 171.675C236.999 168.84 237.433 166.005 237.666 163.137C237.933 159.836 237.633 156.534 236.799 153.332C236.265 151.198 235.398 149.431 232.964 148.664L232.93 148.63C232.93 148.63 232.964 148.63 232.964 148.597C233.998 147.763 234.831 147.096 235.665 146.463C256.308 130.822 276.918 115.148 297.528 99.4733C302.964 95.338 308.266 91.0693 313.602 86.8339C315.203 85.5667 315.27 85.1665 314.503 83.2989C313.769 81.7649 313.102 80.3308 312.468 78.8635ZM234.698 19.0348C247.504 24.5708 260.544 29.4065 273.55 34.4088C275.217 35.0425 276.918 35.7095 278.586 36.4098C279.92 36.9767 279.953 37.1768 279.753 38.6109C279.186 42.6461 277.785 46.4479 276.018 50.083C272.449 57.3532 268.214 64.2231 263.712 70.9597C259.143 77.7629 254.507 84.5328 249.938 91.3361C247.971 94.2375 246.137 97.2389 244.236 100.174L243.635 101.474C243.469 101.841 243.302 102.208 243.135 102.541C243.035 102.708 242.835 102.775 242.668 102.875C242.568 102.708 242.402 102.575 242.402 102.408C242.268 101.808 242.468 101.174 242.902 100.741C243.035 99.8735 243.002 98.9398 243.669 98.2394C243.702 96.4052 244.269 94.6377 245.27 93.137C247.437 89.7353 249.572 86.3004 251.773 82.8987C254.974 77.9964 258.242 73.1274 261.444 68.225C263.512 65.1236 265.346 61.8887 266.947 58.5537C267.78 56.8196 268.381 54.9854 268.781 53.1178C269.048 51.8505 268.848 51.2502 267.747 50.7834C261.811 48.2822 259.61 43.013 257.776 37.477C257.642 37.0768 257.542 36.6432 257.509 36.2097C257.442 33.942 256.075 32.8748 254.107 32.1411C248.238 29.9067 242.402 27.6389 236.532 25.3712C235.932 25.1377 235.331 24.9376 234.698 24.7709C234.064 24.6375 233.597 24.0706 233.564 23.4036C233.431 21.9362 233.331 20.4688 233.23 19.1682C233.931 18.668 234.331 18.9014 234.698 19.0348ZM289.591 90.7025C289.958 92.2032 289.958 92.2365 288.69 93.0369C282.321 97.1389 276.418 101.841 270.348 106.377C259.376 114.614 248.371 122.851 237.366 131.055C236.866 131.422 236.332 131.722 235.265 132.422C236.299 128.187 237.066 124.685 238.033 121.217C238.433 119.816 239.233 118.516 239.934 117.182C246.403 105.443 253.507 94.0707 261.211 83.0655C266.446 75.5619 271.549 67.9582 275.918 59.9211C276.051 59.6209 276.218 59.3541 276.418 59.1207C276.651 58.7538 277.118 58.5871 277.518 58.7872C277.718 58.8872 277.885 58.9873 278.085 59.0873C283.388 62.5557 288.19 66.5576 292.059 71.56C292.726 72.3937 293.293 73.2941 293.893 74.1946C294.56 75.2284 294.526 75.3951 293.559 76.3623C289.524 80.3975 288.257 85.1665 289.591 90.7025ZM167.899 52.0173C162.463 43.88 156.56 36.0763 149.857 28.8729C146.889 25.6713 143.721 22.6699 140.019 20.2687C139.786 20.102 139.552 19.8685 139.352 19.6685C139.219 19.0015 139.786 18.9348 140.086 18.8014C149.324 14.6994 158.728 10.9643 168.6 8.59648C176.37 6.72892 184.274 5.495 192.244 4.89471C196.613 4.56121 200.948 4.36112 205.317 4.42782C211.62 4.46117 217.856 5.2949 223.959 6.86232C224.46 6.99571 224.96 7.16246 225.493 7.29586C226.361 7.42926 227.028 8.16294 227.061 9.03002C227.428 12.0982 227.928 15.1329 228.228 18.2344C228.862 24.6041 229.462 30.9405 229.996 37.3102C230.196 39.8448 230.229 42.4127 230.262 44.9806C230.396 53.618 230.262 62.2555 229.462 70.8596C229.195 73.8277 228.695 76.7625 228.228 79.6972C228.028 80.8978 227.628 81.1312 226.494 81.0312C226.06 80.9978 225.66 80.9311 225.227 80.8644C224.226 80.6643 224.026 80.3308 224.159 79.3304C226.494 64.9902 227.361 50.5499 226.327 36.0096C226.16 33.4751 225.627 30.9405 225.293 28.406C225.227 27.5389 224.626 26.8052 223.793 26.5718C222.592 26.1049 221.458 25.5713 220.291 25.0377C218.057 23.9705 216.122 22.4364 214.588 20.5022C213.388 19.1349 212.754 17.3673 212.754 15.5331C212.787 12.8985 212.454 12.5317 209.853 11.7313C204.35 10.0639 198.581 9.39686 192.811 9.73036C185.474 10.0972 178.238 11.798 171.468 14.6661C168.8 15.7666 166.298 17.1673 163.964 18.8681C163.364 19.3016 162.797 19.8018 162.23 20.2687C160.996 21.3693 160.596 22.5698 161.196 24.2707C162.43 27.8057 162.463 31.4074 160.863 34.8424C160.229 36.2097 160.396 37.2769 161.463 38.3107C162.463 39.2778 163.43 40.245 164.398 41.2455C169.567 46.4479 173.669 52.3508 176.203 59.2874C176.97 61.255 177.47 63.3227 177.671 65.4237C175.803 65.357 175.069 64.4566 174.402 63.0559C172.568 59.1874 170.267 55.5857 167.899 52.0173ZM220.124 78.9302C220.024 79.7639 219.524 79.964 218.824 79.8639L211.22 78.8635C208.819 78.53 206.384 78.1965 203.95 77.9964C202.783 77.9297 201.649 77.6295 200.582 77.1293C194.479 74.1279 188.409 71.0931 182.306 68.0583C181.472 67.6581 180.939 67.1579 180.905 66.1574C180.639 57.5533 176.737 50.4499 171.568 43.9134C169.667 41.4789 167.466 39.2778 165.065 37.3769C164.498 36.9434 164.231 36.4098 164.531 35.7095C166.098 31.9076 165.965 28.0391 164.931 24.1373C164.564 22.8033 164.631 22.7032 165.731 22.0696C176.37 15.8666 188.642 13.0319 200.915 13.9324C203.149 14.0991 205.35 14.5327 207.485 15.1663C208.018 15.2663 208.419 15.7332 208.452 16.2668C209.086 22.5365 213.154 26.0048 218.357 28.5394C219.024 28.8729 219.724 29.1063 220.458 29.2731C222.892 29.8733 222.525 30.3069 222.525 32.1411C222.559 37.3436 222.525 42.5794 222.525 47.7819C222.625 58.2202 221.492 68.5919 220.124 78.9302ZM98.1658 63.7562C98.7995 62.6891 99.6665 62.3889 100.8 62.2889C105.436 61.822 110.105 61.255 114.74 60.8215C123.011 60.0545 131.282 59.5876 139.586 59.821C146.489 60.0545 153.359 61.255 159.929 63.3894C161.663 63.923 163.33 64.5566 165.065 65.1236C165.465 65.1569 165.832 65.257 166.232 65.3904C166.465 65.4904 166.632 65.7905 166.832 66.024C166.565 66.124 166.265 66.2241 165.998 66.2908C165.898 66.3241 165.798 66.2574 165.698 66.2241C161.63 66.6243 157.594 67.4247 153.692 68.5919C149.757 69.7925 145.989 71.3932 142.42 73.3942C139.519 75.0283 136.818 76.8959 134.583 79.3637C133.783 80.2308 133.083 80.5976 131.849 80.1641C127.847 78.7968 124.312 79.6305 121.444 82.8654C120.843 83.5324 120.376 83.7325 119.576 83.2322C111.239 78.2298 102.968 73.2274 94.6975 68.225C94.5307 68.0916 94.3973 67.9249 94.264 67.7581C94.1639 67.0578 94.8309 66.9244 95.1977 66.691C96.365 65.8572 97.4655 64.9568 98.1658 63.7562ZM73.6207 63.0559C80.424 63.1226 87.2606 63.0225 94.0639 62.6891C94.2639 62.6891 94.4974 62.7224 94.6975 62.6891C94.9976 62.6557 95.131 62.7558 95.0977 63.0559C95.0643 63.256 95.031 63.4894 94.8976 63.6228C93.9972 64.3899 92.93 64.8901 91.7628 65.1569C91.1291 65.2903 90.5288 65.457 89.8952 65.5571C89.1282 65.7238 88.4278 65.9573 88.2944 66.8577C88.161 67.6915 88.6279 68.2917 89.2282 68.792C89.6617 69.1255 90.0953 69.4256 90.5622 69.6591C99.3664 74.8615 108.171 80.0307 116.941 85.2332C117.842 85.8001 118.809 86.3004 119.776 86.7006C120.243 86.934 120.777 87.0007 121.31 86.9674C121.577 86.934 121.81 86.8673 122.044 86.7339C122.111 86.7006 122.211 86.6339 122.277 86.6005C122.444 86.5005 122.577 86.3671 122.711 86.2003C122.778 86.1336 122.844 86.0336 122.911 85.9335C123.645 84.8997 124.612 84.066 125.712 83.4657C125.979 83.3323 126.246 83.2322 126.513 83.1322C128.18 82.5319 130.014 82.5652 132.015 83.1655C133.216 83.5324 134.016 83.3323 134.883 82.5319C137.985 79.5972 141.453 77.1293 145.255 75.195C153.292 71.1931 161.696 68.8587 170.734 68.9921C173.602 68.9587 176.47 69.5924 179.071 70.7929C181.005 71.7267 182.94 72.5938 184.874 73.4609C186.041 73.5943 187.042 74.2613 188.076 74.7282C188.709 74.9283 189.343 75.1617 189.943 75.3618L189.343 76.0288C188.876 75.9287 188.376 75.9287 188.109 75.3951C186.508 75.195 184.941 74.8949 183.473 74.1279C180.105 73.5943 176.737 73.1274 173.402 72.5271C166.699 71.3599 160.529 72.994 154.559 75.862C153.226 76.529 151.958 77.2961 150.724 78.1298C144.721 82.2318 139.119 86.7673 134.183 92.1365C132.616 93.8707 130.982 95.5381 129.314 97.2056C127.647 98.873 127.647 98.8064 125.812 97.6725C124.078 96.6053 122.377 95.5048 120.677 94.4042C105.102 84.3661 89.5617 74.3613 73.9876 64.3232C73.6207 64.0897 73.3206 63.8229 73.0204 63.6228C72.9871 63.1226 73.3206 63.0559 73.6207 63.0559ZM44.34 71.8268C44.907 71.7934 45.0737 72.0269 44.7736 72.5938C41.1719 79.5305 38.9708 86.9674 36.9699 94.4709C36.8698 94.8378 36.9365 95.3714 36.2695 95.2713C33.2347 94.8044 30.6001 95.8716 28.0656 97.4057C27.8655 97.5391 27.6987 97.7392 27.4653 97.6725C30.0332 90.3356 31.9341 82.7653 35.9027 75.9621C37.8036 72.6272 40.9384 71.9935 44.34 71.8268ZM17.9274 99.4066C18.0275 99.0064 18.0608 98.5729 18.3276 98.2394C20.0618 91.6696 21.5625 84.9997 23.8969 78.5967C25.3643 74.5948 28.199 71.56 31.5339 69.0254C34.0685 67.0912 37.0032 66.691 40.0713 67.5247C40.4048 67.6247 41.0051 67.4914 40.8717 68.0583C40.7717 68.5252 40.7717 69.1255 40.138 69.3256C39.6378 69.459 39.1376 69.5924 38.6373 69.7591C35.9027 70.5928 34.0351 72.4604 32.7678 74.9283C29.4996 81.2313 27.0318 87.9345 25.3976 94.8378C25.0308 96.4052 25.0308 98.0727 24.5973 99.6734C24.5306 100.04 24.3305 100.374 24.097 100.674C21.8626 103.108 19.9617 105.843 18.5277 108.811C18.4276 108.945 18.3276 109.078 18.1942 109.178L16.0598 110.379C15.8264 110.379 15.593 110.512 15.4262 110.212C16.2933 106.61 16.8936 102.975 17.9274 99.4066ZM13.3252 117.749C14.259 116.281 15.4596 114.981 16.8269 113.914C19.3281 112.013 22.1628 111.512 25.1975 111.813H27.6987C28.199 111.813 28.7326 111.813 28.9327 111.246C29.1328 110.679 28.7326 110.345 28.3324 110.045C26.9317 109.045 25.3976 108.278 23.5968 108.344C23.1299 108.344 22.6964 108.378 23.1299 107.711C25.3309 104.242 27.9655 101.241 31.8341 99.5734C33.4682 98.8731 35.1356 98.4395 36.9032 99.1398C38.1037 99.6067 38.4706 100.541 37.7702 101.741C35.4358 105.743 33.4348 109.978 32.4677 114.514C31.1337 120.717 30.2333 126.987 30.6335 133.356C30.7002 134.39 30.7335 135.457 31.2004 136.424C31.4005 136.858 31.2004 137.158 31.0003 137.458C29.5663 139.659 27.8988 141.66 26.2981 143.695C25.6978 144.428 24.8307 144.762 24.0303 145.162C19.4615 147.296 14.8259 147.363 10.157 145.462C9.59008 145.295 9.18989 144.762 9.22324 144.161C9.05649 142.16 8.62295 140.16 8.4562 138.159C7.85592 130.822 9.25659 123.952 13.3252 117.749ZM27.4653 155.667C24.7307 157.368 21.7292 158.301 17.4605 158.301C12.1246 158.068 7.22228 155.3 3.95405 149.797C3.42046 148.964 3.12031 148.03 3.02027 147.063C2.98692 146.529 2.92022 145.962 3.45381 145.629C3.9874 145.295 4.58769 145.429 5.12127 145.729C5.75491 146.096 6.3552 146.496 6.98884 146.896C14.2923 151.532 23.8969 150.931 30.0332 145.529C31.5006 144.261 32.7345 142.694 33.6349 140.96C34.0351 140.093 34.5687 139.326 35.2357 138.659C35.936 138.025 36.7364 137.792 37.6368 138.125C38.5373 138.459 38.6707 139.292 38.6707 140.126C38.704 140.993 38.5706 141.86 38.2038 142.661C35.7026 147.863 32.501 152.532 27.4653 155.667ZM136.217 272.923C126.446 267.02 118.809 259.05 113.106 249.178C113.006 248.978 112.94 248.778 112.906 248.578C113.073 248.511 113.306 248.311 113.406 248.378C118.075 250.746 123.044 252.313 128.047 253.747C133.983 255.448 139.652 257.849 145.655 259.283L146.256 259.483C148.357 260.317 148.457 260.517 147.589 262.718C146.155 266.487 144.688 270.255 143.254 274.024C143.021 274.624 142.854 275.224 142.22 275.658C140.053 275.191 138.118 274.09 136.217 272.923ZM131.649 345.158C131.348 345.591 131.015 345.958 130.615 346.325C128.981 347.626 127.313 348.926 125.646 350.193C125.479 350.327 125.312 350.427 125.112 350.527C124.712 350.727 124.245 350.56 124.012 350.193C123.811 349.927 123.845 349.56 124.078 349.36C126.379 347.559 128.647 345.658 131.282 344.291C131.348 344.257 131.582 344.457 131.749 344.557C131.715 344.791 131.749 345.024 131.649 345.158ZM155.393 342.056C155.36 342.623 154.926 343.057 154.359 343.123C148.79 344.124 143.221 344.858 137.585 343.89C137.218 343.89 136.884 343.724 136.618 343.49C136.584 343.457 136.551 343.39 136.518 343.357C136.417 343.023 136.417 342.69 136.551 342.356C136.784 341.222 136.918 340.055 136.918 338.888C136.984 336.554 134.517 335.22 132.716 336.754C131.649 337.654 130.548 338.488 129.481 339.355C127.613 340.822 127.547 340.822 125.546 339.688C122.211 337.754 119.243 335.353 116.208 332.985C109.938 328.083 103.769 322.98 97.132 318.545C93.3302 316.01 89.4283 313.609 85.0929 312.042C81.4578 310.708 77.7894 309.774 73.8875 309.807C72.7203 309.807 71.5531 309.807 70.3858 309.774C66.2839 309.641 62.1819 310.274 58.3134 311.642C57.6798 311.141 58.0466 310.775 58.2467 310.441C60.3811 307.34 63.1157 304.838 66.0504 302.537C67.251 301.603 68.7184 301.17 70.2191 301.27C76.5888 301.57 82.8918 302.704 88.9948 304.638C93.7637 306.206 98.1992 308.64 102.101 311.808C105.769 314.743 109.238 317.878 112.639 321.113C116.108 324.414 119.643 327.649 123.378 330.617C124.879 331.818 126.579 332.752 128.38 333.419C128.981 333.652 129.881 334.353 130.315 333.452C130.648 332.818 129.714 332.452 129.247 332.051C128.747 331.651 128.214 331.318 127.647 330.984C124.012 328.583 120.61 325.782 117.575 322.68C112.439 317.578 107.103 312.675 101.567 308.007C95.698 303.038 88.728 299.536 81.2577 297.735C80.424 297.535 79.6236 297.301 78.7899 297.101L78.3563 297.035C78.2229 297.035 78.0895 296.968 77.9895 296.868C77.6894 296.568 78.0562 296.368 78.2896 296.201C78.8232 295.901 79.4235 295.767 80.0238 295.867C81.6913 295.2 83.4921 294.8 85.293 294.7C91.4293 294.133 97.5655 294.167 103.602 295.834C109.971 297.602 115.874 300.77 120.81 305.139C123.011 307.139 124.945 309.441 126.479 311.975C127.913 314.343 129.714 316.444 131.882 318.178C134.717 320.412 137.351 322.914 140.519 324.681C144.221 326.749 148.023 328.65 152.325 329.217C152.859 329.283 153.359 329.483 153.859 329.584C154.393 329.65 154.826 330.084 154.893 330.617C154.96 331.051 154.96 331.484 155.06 331.885C155.727 334.986 154.96 335.386 152.458 335.553C149.624 335.753 146.789 336.353 143.954 336.787C143.921 336.887 143.854 336.987 143.721 337.02C143.788 336.954 143.888 336.887 143.954 336.787C143.221 336.754 142.52 336.687 141.787 336.72C141.053 336.754 140.353 336.42 139.786 337.121C139.486 337.521 140.353 337.921 141.753 337.988C142.054 337.988 142.387 337.954 142.687 337.954C146.422 338.888 150.157 339.622 154.026 338.855C154.693 338.721 155.06 338.855 155.26 339.288C155.293 339.355 155.293 339.388 155.327 339.455C155.36 339.588 155.393 339.722 155.393 339.855V340.089C155.46 340.789 155.46 341.423 155.393 342.056ZM161.396 323.247C160.396 324.314 159.162 324.648 157.294 324.648C156.327 324.648 155.393 324.514 154.459 324.214C144.588 321.18 136.651 315.443 130.481 307.139C127.813 303.504 130.048 298.969 133.216 297.535C133.816 297.301 134.417 297.135 135.05 297.068C135.984 296.935 136.451 297.201 136.718 298.102C138.052 302.671 141.22 305.705 145.088 308.173C146.722 309.174 148.457 310.008 150.257 310.608C153.592 311.775 157.094 312.242 160.629 312.042C161.463 312.008 162.33 311.908 163.164 311.875C163.731 311.808 164.231 312.175 164.331 312.742C165.231 316.711 164.231 320.279 161.396 323.247ZM169.467 295C169.267 296.701 168.8 298.335 167.999 299.869C167.065 301.67 166.165 303.471 165.331 305.305C164.964 306.206 164.097 306.806 163.13 306.839C155.96 307.54 149.69 305.439 144.388 300.603C143.688 299.936 143.087 299.202 142.554 298.402C141.253 296.568 140.853 294.834 141.92 292.532C146.389 283.128 150.157 273.39 153.759 263.652C153.959 263.285 154.159 262.885 154.393 262.551C158.595 264.552 161.73 267.554 164.131 271.256C168.866 278.492 170.467 286.463 169.467 295ZM105.136 237.706C104.636 237.539 104.169 237.239 103.702 237.039C103.135 237.139 102.568 236.939 102.201 236.506H101.968L101.768 236.372C101.234 236.472 100.667 236.272 100.334 235.839H100.1L99.8666 235.705C99.333 235.839 98.7661 235.639 98.466 235.172C98.2992 235.205 98.0991 235.172 97.9657 235.038C97.8657 235.038 97.799 235.072 97.6989 235.072C97.2654 235.072 96.8986 234.872 96.6651 234.538C93.7971 234.004 91.1625 232.804 88.4612 231.837C86.8604 231.537 85.3263 230.97 83.8923 230.169L82.7251 229.902L78.8899 228.669C77.5893 228.235 76.322 227.835 75.0548 227.401C74.4545 227.201 73.8542 227.001 73.2539 226.768C73.1538 226.734 73.0871 226.501 73.0538 226.334C73.0538 226.301 73.2206 226.201 73.3206 226.201C73.9876 226.101 74.5879 226.167 75.0548 226.734C76.6555 226.868 78.1896 227.301 79.6236 228.035C80.9909 228.168 82.3249 228.569 83.4921 229.269H83.5922C83.7589 229.269 83.8923 229.302 84.0257 229.402C86.0267 229.836 88.061 230.203 89.8952 231.236C92.7299 231.937 95.5312 232.637 98.1992 233.838C98.3993 233.804 98.5994 233.838 98.7328 233.971C99.2663 233.838 99.8333 234.004 100.167 234.438C100.334 234.371 100.5 234.405 100.634 234.538C101.334 234.405 102.068 234.638 102.568 235.138C103.335 235.072 104.035 235.172 104.569 235.739C104.769 235.672 104.969 235.739 105.102 235.839C105.636 235.705 106.236 235.872 106.603 236.306C110.105 237.273 113.573 238.173 117.042 239.174C139.719 245.743 162.397 252.347 185.074 258.95C186.608 259.383 188.142 259.817 189.676 260.284C190.51 260.551 190.743 260.951 190.477 261.684C189.943 263.185 189.41 264.686 188.843 266.186C188.509 267.02 188.209 267.154 187.375 266.853C185.474 266.186 183.54 265.52 181.639 264.853C156.06 255.815 130.615 246.777 105.136 237.706ZM146.022 219.364C145.989 219.064 145.622 219.031 145.388 218.931C143.087 218.164 140.753 217.463 138.452 216.596C132.082 214.262 128.28 208.225 128.947 201.656C129.114 200.155 129.581 198.721 130.281 197.387C130.648 197.454 130.648 197.72 130.715 197.921C133.716 204.457 141.92 207.592 148.523 204.657C148.823 204.524 149.39 204.49 149.324 203.99C149.257 203.49 148.723 203.657 148.357 203.623C144.988 203.29 141.753 202.223 138.852 200.422C137.651 199.721 136.584 198.821 135.717 197.754C132.382 193.552 133.983 187.982 139.119 186.415C143.921 184.981 148.623 185.248 153.125 187.649C154.226 188.216 155.26 188.916 156.394 189.45C159.829 191.051 164.131 189.016 165.098 185.348C165.198 184.981 165.231 184.614 165.265 184.247C165.298 183.78 165.265 183.28 164.764 183.113C164.264 182.947 163.997 183.447 163.764 183.78C162.83 185.314 161.296 186.348 159.529 186.615C158.795 186.715 158.461 186.615 158.561 185.648C159.028 181.779 159.895 178.078 161.83 174.643C163.43 171.808 165.465 169.307 168.299 167.539C169.967 166.505 171.734 165.838 173.769 166.005C175.703 166.172 177.07 167.206 178.204 168.706C178.538 169.173 178.271 169.44 178.071 169.807C174.936 175.41 174.002 181.446 175.003 187.749C175.236 189.216 175.403 190.384 174.402 191.684C173.569 192.851 173.268 194.352 173.669 195.753C174.369 198.621 174.169 201.489 173.969 204.357C173.535 210.326 172.235 216.229 170.067 221.799C169.6 223.099 168.966 224.333 168.199 225.467C167.532 226.334 167.199 227.401 167.266 228.468C167.332 229.469 166.832 229.969 166.098 230.436C163.197 232.17 160.029 233.004 156.694 233.304C148.657 234.071 140.586 232.304 133.616 228.202C131.182 226.868 129.081 225.033 127.413 222.832C126.146 221.098 125.245 219.231 125.279 217.03C125.279 215.429 125.879 214.028 126.946 212.661C127.246 213.128 127.447 213.461 127.68 213.828C131.348 219.031 136.317 221.498 142.72 220.898C143.721 220.798 144.688 220.465 145.522 219.931C145.755 219.798 146.089 219.664 146.022 219.364ZM176.737 195.386C176.603 194.519 176.737 193.652 177.104 192.851C177.704 191.517 178.471 191.251 179.738 191.918C180.572 192.351 181.272 192.985 181.773 193.785C183.773 196.987 185.308 200.355 185.975 204.123C186.308 206.058 186.808 207.925 186.708 209.926C186.608 215.262 185.874 220.465 183.84 225.434C182.84 227.902 181.406 230.003 178.804 231.003C177.004 231.703 175.136 231.937 173.235 231.336C170.867 230.569 170.1 228.702 171.234 226.501C174.969 219.097 176.67 211.194 176.87 202.923C176.937 200.388 177.104 197.887 176.737 195.386ZM177.27 293.333C176.803 293.333 176.437 292.999 176.57 292.599C176.67 292.299 176.803 291.999 176.937 291.732C179.371 286.563 181.839 281.427 184.274 276.258C184.374 276.058 184.44 275.858 184.541 275.691C184.907 274.957 185.341 274.424 186.308 274.691C186.908 274.824 187.509 275.024 188.109 275.258C188.376 275.424 188.542 275.691 188.542 275.991C188.476 276.525 188.342 277.025 188.176 277.525C187.108 281.727 185.241 285.696 182.673 289.198C181.773 290.498 180.639 291.632 179.338 292.599C178.738 292.999 178.037 293.299 177.27 293.333ZM205.284 279.726C205.35 279.326 205.451 278.926 205.584 278.259C209.853 278.859 213.855 279.426 217.823 280.026C218.457 280.127 219.057 280.327 219.691 280.46C220.358 280.527 220.825 281.127 220.758 281.794V281.827C220.591 284.495 220.825 287.163 220.291 289.798C219.924 291.665 219.791 293.6 219.557 295.501C219.524 295.701 219.624 295.934 219.757 296.068C220.058 296.201 220.424 296.101 220.558 295.801C220.791 295.467 220.991 295.067 221.158 294.667C222.192 291.198 223.626 287.864 223.959 284.195C224.059 283.461 224.193 282.728 224.426 282.027C224.593 281.394 225.06 281.227 225.66 281.294C227.228 281.494 227.628 281.994 227.695 283.561C227.828 287.43 226.894 291.165 226.427 294.967C226.327 295.734 225.86 296.368 225.16 296.701C224.159 297.301 223.092 297.835 222.092 298.369C221.525 298.635 220.958 298.969 220.424 299.302C219.324 300.103 219.124 301.303 219.991 302.337C220.491 302.904 221.025 303.404 221.592 303.871C221.925 304.138 222.259 304.405 222.592 304.638C224.393 305.872 224.86 307.473 224.36 309.607C222.926 315.51 221.325 321.346 219.124 327.016C217.189 332.085 214.888 337.02 212.22 341.756C210.253 345.158 207.985 348.393 205.484 351.427C202.883 354.562 199.781 357.13 195.946 358.764C194.712 359.298 193.678 359.264 192.744 358.331C191.811 357.397 190.377 356.897 189.776 355.629C190.21 354.762 190.977 354.595 191.611 354.262C196.513 351.661 200.348 347.859 203.616 343.457C208.485 336.854 212.421 329.584 215.222 321.88C216.856 317.611 217.957 313.142 218.557 308.607C218.59 308.207 218.557 307.773 218.457 307.373C218.457 307.306 218.323 307.139 218.257 307.173C218.057 307.173 217.756 307.206 217.723 307.306C217.456 307.873 217.223 308.473 217.056 309.074C214.221 318.045 210.686 326.682 205.717 334.686C202.116 340.522 197.38 345.525 191.777 349.46C190.477 350.393 189.143 351.261 187.842 352.194C187.208 352.628 186.642 352.494 186.175 351.928C184.541 349.96 183.107 347.826 181.939 345.558C179.505 341.056 178.037 336.087 177.671 330.984C177.204 324.048 178.571 317.678 182.373 311.875C184.541 308.573 187.442 305.772 190.844 303.771C193.578 302.17 195.679 299.903 197.513 297.435C201.415 292.199 204.083 286.129 205.284 279.726ZM192.111 277.058C192.544 274.891 193.511 273.323 195.279 272.189C196.746 271.256 198.314 271.089 199.781 272.023C201.349 273.023 202.116 274.457 201.715 276.391C200.248 283.728 197.247 290.331 192.211 295.934C191.177 297.035 190.01 297.968 188.709 298.702C185.908 300.403 182.873 300.169 179.938 298.068C187.042 292.799 190.41 285.396 192.111 277.058ZM207.518 236.172C206.918 238.773 206.418 241.375 205.851 243.976C205.551 245.31 205.217 245.577 203.816 245.343C199.614 244.643 195.446 243.876 191.244 243.109C179.471 240.941 167.666 238.773 155.893 236.606C157.594 236.406 159.295 236.105 160.963 235.739C163.43 235.172 165.732 234.104 167.766 232.57C168.099 232.337 168.366 232.07 168.8 232.504C170.801 234.505 173.302 235.005 176.003 234.838C178.938 234.638 181.406 233.304 183.607 231.437C184.24 230.803 184.807 230.136 185.274 229.369C185.508 228.935 186.041 228.769 186.508 228.935C187.742 229.235 189.009 229.469 190.243 229.736C196.913 231.07 203.249 230.77 209.219 228.935C208.652 231.37 208.085 233.771 207.518 236.172ZM208.585 182.747C208.452 183.147 208.319 183.58 208.219 184.014C208.252 184.381 208.185 184.714 208.018 185.048C208.018 185.515 207.985 185.981 207.852 186.448C207.852 186.548 207.818 186.615 207.785 186.715V186.682C207.752 187.749 207.952 188.816 207.552 189.85C207.285 190.984 206.985 192.151 206.718 193.285C206.785 193.852 206.418 194.252 206.118 194.686C202.349 199.921 197.38 203.156 190.777 203.456C190.543 203.456 190.31 203.49 190.043 203.523C189.476 203.69 189.276 203.523 189.143 202.956C188.509 200.155 187.309 197.554 186.075 195.019C184.707 192.151 182.906 189.683 179.538 188.916C179.171 188.816 179.105 188.549 179.071 188.216C178.738 182.513 179.205 176.91 181.839 171.741C182.906 169.674 182.473 167.906 181.372 166.239C178.671 162.137 173.469 160.736 168.533 162.604C165.732 163.704 163.264 165.472 161.296 167.773C158.628 170.841 156.694 174.509 155.727 178.444C155.66 178.678 155.56 178.878 155.493 179.111V179.078C155.293 180.912 154.96 182.747 155.16 184.581C154.693 184.714 154.459 184.414 154.159 184.247C149.49 181.713 144.555 181.079 139.386 182.08C134.216 183.08 131.182 186.415 130.014 191.451C129.748 192.518 129.347 193.352 128.48 193.952C127.313 195.386 126.446 197.02 125.546 198.654C125.412 199.054 125.279 199.488 125.179 199.888C124.478 202.99 124.578 206.224 125.512 209.259C125.646 209.693 125.446 209.86 125.145 210.126C120.977 213.761 120.143 218.831 122.944 223.599C124.445 226.201 126.546 228.402 129.081 230.069C130.281 230.87 131.515 231.603 132.749 232.27C129.648 231.67 126.546 231.07 123.445 230.503C111.339 228.168 99.1996 225.867 87.0938 223.599C77.5893 221.799 68.0847 219.998 58.5468 218.264C52.7774 217.23 47.008 216.329 41.2052 215.429C39.9379 215.229 38.704 215.029 37.5034 214.428C48.2419 165.538 60.2477 116.982 71.2863 68.1917C71.9533 67.8915 72.4202 68.4585 72.887 68.7586L121.81 100.174C123.078 100.974 124.312 101.808 125.512 102.675C126.713 103.542 127.88 103.442 129.014 102.541C131.548 100.574 133.95 98.4729 136.217 96.2385C141.42 91.1694 147.023 86.6005 152.992 82.4985C156.494 80.0974 160.362 78.1965 164.431 76.9292C167.599 75.9621 170.934 75.6953 174.202 76.1622C178.971 76.7625 183.64 77.6962 188.276 78.9969C190.043 79.4971 191.811 79.9306 193.578 80.3642C198.38 82.9988 228.828 100.607 230.396 126.286C230.496 127.987 230.629 129.321 230.796 130.355C229.695 135.29 228.562 140.193 227.461 145.129C227.394 145.429 227.294 145.729 227.194 146.062C226.761 147.696 226.627 147.863 225.06 147.696C222.325 147.43 219.557 147.063 216.823 146.729C210.153 145.896 203.516 145.062 196.813 144.828C196.079 144.795 195.312 144.828 194.579 144.795C190.877 144.728 188.042 146.396 185.774 149.197C183.673 151.832 182.573 154.933 182.039 158.235C181.272 163.004 182.006 167.873 184.174 172.208C184.507 172.875 184.907 173.509 185.308 174.142C187.175 177.144 189.743 178.678 193.378 178.978C198.714 179.378 204.016 179.912 209.352 180.445C209.119 181.146 208.819 181.946 208.585 182.747ZM233.831 154.7C234.198 156.501 234.164 158.302 234.198 160.102C234.231 163.804 233.764 167.506 232.764 171.074C230.629 169.373 228.028 168.373 224.86 168.24C221.625 168.106 218.79 169.273 216.222 171.141C214.021 172.745 212.19 174.804 210.853 177.177C207.885 176.877 204.917 176.544 201.915 176.243C198.447 175.877 194.946 175.51 191.444 175.176C189.776 175.043 188.709 174.209 187.909 172.808C184.107 166.072 184.007 159.269 187.575 152.399C188.376 150.898 189.576 149.597 191.01 148.664C192.311 147.73 193.978 147.43 195.512 147.863C200.281 148.997 205.15 149.497 210.019 150.031C215.088 150.598 220.158 151.165 225.26 151.665C227.161 151.865 229.095 151.932 230.996 152.065C233.331 152.299 233.331 152.332 233.831 154.7ZM232.664 80.7644C233.23 77.7296 233.531 74.6615 233.797 71.56C234.898 58.1869 235.365 44.7805 234.364 31.3407C234.298 30.507 234.364 29.6399 234.364 28.8395C234.931 28.506 235.365 28.7728 235.865 28.9729C241.434 31.3741 247.004 33.8086 252.573 36.143C253.474 36.4432 254.174 37.2102 254.374 38.144C254.674 39.2778 254.908 40.4451 255.274 41.5456C257.009 46.648 259.81 50.9167 264.846 53.3846C265.012 53.4513 265.146 53.6847 265.279 53.8515C265.079 55.0187 264.345 55.9525 263.778 56.953C261.377 61.0883 258.709 65.0902 256.008 69.0588C252.673 73.9945 249.272 78.8968 246.237 84.0326C246.037 84.3995 245.736 84.6996 245.436 85.1331C243.836 84.1327 242.135 83.7325 240.334 83.4657C238.133 83.1322 235.932 82.6653 233.731 82.2651C232.697 82.065 232.463 81.7982 232.664 80.7644ZM309.7 85.3999C307.866 86.8673 306.032 88.3013 304.164 89.702C281.42 106.777 258.709 123.818 235.965 140.86C235.031 141.527 234.231 142.394 233.03 142.761C232.797 139.959 234.164 138.192 236.299 136.624C248.371 127.72 260.377 118.716 272.449 109.778C277.852 105.776 283.321 101.908 288.49 97.6725C289.157 97.1389 289.791 96.5386 290.491 96.0384C292.459 94.6043 293.393 92.9035 292.959 90.3356C292.592 88.0012 292.826 85.6334 293.659 83.399C294.46 81.2313 295.494 79.3304 297.695 78.2632C298.062 78.0631 298.428 77.8296 298.762 77.5628C299.362 77.096 299.596 76.2622 299.295 75.5619C299.062 74.9616 298.795 74.3947 298.428 73.8611C294.26 67.7248 289.257 62.3889 282.954 58.3536C282.321 57.9534 281.654 57.62 281.053 57.1531C280.22 56.5528 278.752 56.5528 278.552 55.4523C278.419 54.6519 279.152 53.7181 279.519 52.8177L279.853 52.084L280.186 51.3503C280.32 51.0835 280.42 50.8167 280.553 50.5499C280.687 50.2831 280.82 49.983 280.987 49.6495C281.454 49.8829 281.92 50.1164 282.354 50.3832C288.824 55.1188 294.893 60.2546 300.096 66.3908C304.398 71.4599 307.666 77.1627 310.334 83.2656C310.834 84.4662 310.834 84.4995 309.7 85.3999Z" fill="black"/>
</g>
</svg>
